<?xml version="1.0" encoding="utf-8"?>
<!-- Generator: Adobe Illustrator 30.0.0, SVG Export Plug-In . SVG Version: 9.03 Build 0)  -->
<svg version="1.1" id="レイヤー_1" xmlns="http://www.w3.org/2000/svg" xmlns:xlink="http://www.w3.org/1999/xlink" x="0px"
	 y="0px" viewBox="0 0 25.82 25.23" style="enable-background:new 0 0 25.82 25.23;" xml:space="preserve">
<style type="text/css">
	.st0{fill:#978474;}
</style>
<g>
	<g>
		<g>
			<path class="st0" d="M21.44,1.11c1.8,0,3.27,1.47,3.27,3.27v16.47c0,1.8-1.47,3.27-3.27,3.27H4.38c-1.8,0-3.27-1.47-3.27-3.27
				V4.38c0-1.8,1.47-3.27,3.27-3.27H21.44 M21.44,0H4.38C1.97,0,0,1.97,0,4.38v16.47c0,2.41,1.97,4.38,4.38,4.38h17.06
				c2.41,0,4.38-1.97,4.38-4.38V4.38C25.82,1.97,23.84,0,21.44,0L21.44,0z"/>
		</g>
		<path class="st0" d="M11.95,6.48h-1.48H8.91v0.64l-3.7,10.72h2.38l0.84-2.72h2.04h2.04l0.84,2.72H16L11.95,6.48z M10.47,12.93
			H9.11l1.36-4.41l1.36,4.41H10.47z"/>
		<rect x="17.07" y="9.16" class="st0" width="2.44" height="8.68"/>
		<circle class="st0" cx="18.29" cy="6.95" r="1.39"/>
	</g>
</g>
<g>
</g>
<g>
</g>
<g>
</g>
<g>
</g>
<g>
</g>
<g>
</g>
</svg>
