<?xml version="1.0" encoding="utf-8"?>
<!-- Generator: Adobe Illustrator 30.0.0, SVG Export Plug-In . SVG Version: 9.03 Build 0)  -->
<svg version="1.1" id="レイヤー_1" xmlns="http://www.w3.org/2000/svg" xmlns:xlink="http://www.w3.org/1999/xlink" x="0px"
	 y="0px" viewBox="0 0 25.82 25.23" style="enable-background:new 0 0 25.82 25.23;" xml:space="preserve">
<style type="text/css">
	.st0{fill:#978474;}
	.st1{fill:#988475;}
</style>
<g>
	<g>
		<g>
			<path class="st0" d="M21.44,1.11c1.8,0,3.27,1.47,3.27,3.27v16.47c0,1.8-1.47,3.27-3.27,3.27H4.38c-1.8,0-3.27-1.47-3.27-3.27
				V4.38c0-1.8,1.47-3.27,3.27-3.27H21.44 M21.44,0H4.38C1.97,0,0,1.97,0,4.38v16.47c0,2.41,1.97,4.38,4.38,4.38h17.06
				c2.41,0,4.38-1.97,4.38-4.38V4.38C25.82,1.97,23.84,0,21.44,0L21.44,0z"/>
		</g>
		<g>
			<path class="st1" d="M10.12,6.36L4.85,6.29c0,0,0.07,0.44,0.07,1.76c0,0,0,8.2,0,9.17s-0.08,1.72-0.08,1.72h2.73
				c0,0-0.08-0.65-0.08-1.75v-2.52h2.61c0,0,3.44-0.03,3.44-4.4C13.56,6.37,10.12,6.36,10.12,6.36z M9.64,12.14H7.5V8.9h2.14
				c0,0,1.28,0.03,1.28,1.55C10.91,12.12,9.64,12.14,9.64,12.14z"/>
			<path class="st1" d="M21.21,10.59l-0.53,1.87c0,0-2.95-0.62-3.14-0.15c-0.19,0.46,0.63,0.9,1.83,1.57c1.2,0.67,2.1,1.5,2.1,2.4
				c0,0.91-0.91,1.88-2.1,2.15c-1.19,0.27-3.51,0.11-4.88-0.05l0.4-1.96c0,0,3.63,0.64,3.83,0.04c0.2-0.6-2.02-1.7-2.35-1.89
				c-0.33-0.19-2.85-1.36-0.63-3.47C17.2,9.71,21.21,10.59,21.21,10.59z"/>
		</g>
	</g>
</g>
<g>
</g>
<g>
</g>
<g>
</g>
<g>
</g>
<g>
</g>
<g>
</g>
</svg>
