<?xml version="1.0" encoding="utf-8"?>
<!-- Generator: Adobe Illustrator 30.0.0, SVG Export Plug-In . SVG Version: 9.03 Build 0)  -->
<svg version="1.1" id="レイヤー_1" xmlns="http://www.w3.org/2000/svg" xmlns:xlink="http://www.w3.org/1999/xlink" x="0px"
	 y="0px" viewBox="0 0 213.55 43.24" style="enable-background:new 0 0 213.55 43.24;" xml:space="preserve">
<style type="text/css">
	.st0{fill:#978474;}
	.st1{fill:#968274;}
</style>
<g>
	<g>
		<polygon class="st0" points="31.35,10.58 27.81,24.63 24.71,10.58 22.12,10.58 19.54,10.58 16.43,24.63 12.9,10.58 7.47,10.58 
			13.93,32.65 18.93,32.65 22.12,19.12 25.31,32.65 30.31,32.65 36.78,10.58 		"/>
		<g>
			<path class="st0" d="M36.74,1.9c3.09,0,5.61,2.52,5.61,5.61v28.23c0,3.09-2.52,5.61-5.61,5.61H7.5c-3.09,0-5.61-2.52-5.61-5.61
				V7.5C1.9,4.41,4.41,1.9,7.5,1.9H36.74 M36.74,0H7.5C3.38,0,0,3.38,0,7.5v28.23c0,4.13,3.38,7.5,7.5,7.5h29.23
				c4.13,0,7.5-3.38,7.5-7.5V7.5C44.24,3.38,40.87,0,36.74,0L36.74,0z"/>
		</g>
	</g>
	<g>
		<g>
			<g>
				<path class="st1" d="M75.29,9.48c-0.51,0.03-0.6,0.16-0.68,0.32c-0.47,1.11-2.44,6.33-2.69,6.93c-0.08,0.19-0.25,0.17-0.32-0.02
					c-0.23-0.63-1.19-3.15-1.93-5.04c-0.54,1.34-1.73,4.5-1.95,5.06c-0.08,0.19-0.29,0.18-0.36-0.02c-0.31-0.9-2.18-5.71-2.7-6.95
					c-0.06-0.15-0.34-0.26-0.77-0.28c-0.25-0.01-0.24-0.26,0.02-0.25c0.57,0.02,1.5,0.03,2.2,0c0.22-0.01,0.21,0.23,0,0.25
					c-0.61,0.04-0.74,0.12-0.66,0.33c0.41,1.04,1.7,4.41,2.22,5.78c0.34-0.99,1.34-3.61,1.73-4.6c-0.18-0.47-0.34-0.87-0.46-1.14
					c-0.1-0.25-0.28-0.34-0.81-0.37c-0.25-0.01-0.24-0.26,0.01-0.25c0.57,0.02,1.44,0.03,2.12,0c0.23-0.01,0.23,0.22,0.01,0.24
					c-0.62,0.06-0.73,0.11-0.68,0.24c0.39,0.93,1.76,4.48,2.28,5.89c0.41-1.17,1.75-4.67,2.19-5.8c0.09-0.2-0.06-0.3-0.62-0.33
					c-0.21-0.01-0.21-0.25,0.01-0.24c0.7,0.03,1.25,0.02,1.83,0C75.53,9.22,75.53,9.47,75.29,9.48z"/>
				<path class="st1" d="M76.57,13.98c0-1.65,1.22-2.88,2.85-2.88s2.85,1.23,2.85,2.88c0,1.65-1.22,2.88-2.85,2.88
					S76.57,15.63,76.57,13.98z M81.55,13.67c-0.2-1.46-1.25-2.42-2.48-2.24c-1.22,0.17-1.98,1.4-1.77,2.87
					c0.2,1.45,1.25,2.41,2.47,2.23C80.99,16.36,81.75,15.14,81.55,13.67z"/>
				<path class="st1" d="M88.04,11.64c0,0.27-0.28,0.14-0.74,0.14c-0.42,0-0.97,0.1-1.72,0.82c-0.02,1.13-0.03,2.57,0.02,3.56
					c0.01,0.17,0.19,0.26,0.61,0.3c0.19,0.02,0.19,0.26,0,0.25c-0.62-0.02-1.36-0.02-1.89,0c-0.22,0.01-0.22-0.25-0.01-0.26
					c0.47-0.02,0.62-0.11,0.63-0.3c0.04-0.67,0.04-3.25-0.02-4.27c-0.01-0.18-0.3-0.15-0.87-0.12c-0.2,0.01-0.22-0.27-0.01-0.29
					c0.47-0.04,0.96-0.17,1.43-0.3c0.2-0.05,0.22,0.12,0.18,0.25c-0.03,0.1-0.06,0.22-0.06,0.32c0,0.18-0.01,0.39-0.01,0.61
					c0.39-0.6,0.81-0.97,1.26-1.1C87.41,11.08,88.04,11.28,88.04,11.64z"/>
				<path class="st1" d="M94.67,16.71c-0.33-0.03-0.73-0.01-0.94,0c-0.17,0.01-0.25-0.08-0.25-0.26c-0.41,0.21-0.87,0.34-1.47,0.32
					c-1.71-0.07-2.7-1.14-2.62-2.9c0.06-1.52,1.3-2.68,2.75-2.62c0.52,0.02,1,0.14,1.23,0.32c0.15,0.13,0.07,0.22-0.13,0.15
					c-0.31-0.1-0.76-0.19-1.14-0.19c-0.94,0.01-1.98,0.86-2.04,2.23c-0.06,1.49,0.83,2.64,2.08,2.69c0.47,0.02,0.94-0.16,1.21-0.34
					c0.06-0.04,0.13-0.11,0.13-0.13c0.01-1.51,0-5.6-0.02-6.4c0-0.18-0.3-0.18-0.88-0.14c-0.21,0.01-0.24-0.27-0.02-0.29
					c0.49-0.05,0.98-0.17,1.46-0.31c0.15-0.04,0.21,0.07,0.17,0.25c-0.02,0.1-0.05,0.22-0.05,0.33c-0.02,1.08-0.05,5.55,0,6.76
					c0.01,0.15,0.16,0.23,0.55,0.26C94.93,16.46,94.92,16.73,94.67,16.71z"/>
			</g>
		</g>
		<g>
			<g>
				<rect x="63.87" y="26.41" class="st0" width="27.14" height="8.43"/>
				<path class="st0" d="M90.61,26.81v7.63H64.27v-7.63H90.61 M91.41,26.01H63.46v9.24h27.95V26.01L91.41,26.01z"/>
			</g>
			<g>
				<rect x="94.4" y="26.41" class="st0" width="27.14" height="8.43"/>
				<path class="st0" d="M121.14,26.81v7.63H94.81v-7.63H121.14 M121.95,26.01H94v9.24h27.95V26.01L121.95,26.01z"/>
			</g>
			<g>
				<rect x="124.94" y="26.41" class="st0" width="27.14" height="8.43"/>
				<path class="st0" d="M151.68,26.81v7.63h-26.34v-7.63H151.68 M152.48,26.01h-27.95v9.24h27.95V26.01L152.48,26.01z"/>
			</g>
			<g>
				<rect x="155.47" y="26.41" class="st0" width="27.14" height="8.43"/>
				<path class="st0" d="M182.21,26.81v7.63h-26.34v-7.63H182.21 M183.02,26.01h-27.95v9.24h27.95V26.01L183.02,26.01z"/>
			</g>
			<g>
				<path class="st0" d="M212.55,27.01v7.24H64.46v-7.24H212.55 M213.55,26.01H63.46v9.24h150.09V26.01L213.55,26.01z"/>
			</g>
		</g>
	</g>
</g>
<g>
</g>
<g>
</g>
<g>
</g>
<g>
</g>
<g>
</g>
<g>
</g>
</svg>
