<?xml version="1.0" encoding="utf-8"?>
<!-- Generator: Adobe Illustrator 30.0.0, SVG Export Plug-In . SVG Version: 9.03 Build 0)  -->
<svg version="1.1" id="レイヤー_1" xmlns="http://www.w3.org/2000/svg" xmlns:xlink="http://www.w3.org/1999/xlink" x="0px"
	 y="0px" viewBox="0 0 213.55 43.24" style="enable-background:new 0 0 213.55 43.24;" xml:space="preserve">
<style type="text/css">
	.st0{fill:#978474;}
	.st1{fill:#968274;}
</style>
<path class="st0" d="M3.11,0l2.6,37.74l16.42,5.49l16.36-5.49L41.14,0H3.11z M34.04,11.41H15.37l0.46,6.42h17.7L32.6,33.09
	l-10.46,3.47l-10.35-3.47l-0.35-5.16h5.43v1.52l5.26,1.72l5.51-1.72l0.5-6.47H11.09L9.94,6.33h24.39L34.04,11.41z"/>
<g>
	<g>
		<g>
			<path class="st1" d="M71.68,16.73c-0.56-0.02-1.35-0.03-2.02,0c-0.23,0.01-0.21-0.23-0.01-0.24c0.6-0.04,0.63-0.1,0.63-0.4
				c0-0.51,0.01-1.81,0.02-3.1c-1.08-0.03-3.5-0.02-4.04-0.01c-0.1,0-0.2-0.01-0.28-0.03c0,1.31,0.01,2.62,0.01,3.14
				c0,0.31,0.06,0.35,0.63,0.4c0.2,0.02,0.22,0.25-0.01,0.24c-0.67-0.03-1.45-0.02-2.01,0c-0.25,0.01-0.25-0.23-0.01-0.25
				c0.67-0.04,0.72-0.16,0.73-0.4c0.02-1.19,0.02-5.12-0.01-6.26c0-0.21-0.2-0.3-0.72-0.33c-0.24-0.02-0.24-0.26,0.01-0.25
				c0.56,0.01,1.32,0.03,1.99,0c0.22-0.01,0.22,0.23,0.01,0.24c-0.61,0.05-0.61,0.16-0.62,0.34c-0.01,0.31-0.01,1.46,0,2.72
				c0.87,0.07,3.17,0.08,3.74,0.04c0.21-0.01,0.43-0.03,0.58-0.08c0.01-1.24,0.01-2.37-0.01-2.68c-0.01-0.18-0.01-0.3-0.62-0.34
				c-0.21-0.01-0.21-0.25,0.01-0.24c0.67,0.03,1.44,0.02,2,0c0.25-0.01,0.25,0.24,0.01,0.25c-0.52,0.02-0.71,0.12-0.72,0.33
				c-0.05,1.14-0.06,5.07-0.01,6.26c0.01,0.23,0.06,0.34,0.73,0.4C71.93,16.5,71.93,16.74,71.68,16.73z"/>
			<path class="st1" d="M80.42,9.48c-0.13,0.13-0.09,1.17-0.09,1.41c0,0.2-0.34,0.28-0.47,0.2c-0.1-0.06-0.06-1-0.08-1.27
				c-0.01-0.14-0.07-0.18-0.24-0.19c-0.36-0.01-1.15-0.01-2.02-0.01c-0.17,0.03-0.22,0.12-0.22,0.27c-0.02,0.79-0.01,5.39,0.01,6.21
				c0.01,0.26,0.13,0.32,0.81,0.37c0.22,0.02,0.22,0.27,0,0.26c-0.71-0.03-1.74-0.01-2.33,0c-0.26,0.01-0.26-0.24-0.01-0.26
				c0.66-0.04,0.83-0.12,0.83-0.36c0.03-1.32,0.03-5.56-0.01-6.49c-0.96,0-1.85,0-2.21,0.01c-0.17,0.01-0.24,0.05-0.25,0.19
				c-0.02,0.27,0.02,1.21-0.08,1.27c-0.13,0.08-0.47,0-0.47-0.2c0-0.24,0.05-1.29-0.09-1.41c-0.1-0.09-0.16-0.23,0.13-0.22
				c1.22,0.04,5.16,0.03,6.66,0C80.58,9.25,80.52,9.4,80.42,9.48z"/>
			<path class="st1" d="M91.47,16.72c-0.56-0.02-1.4-0.03-2.07,0c-0.22,0.01-0.22-0.22-0.01-0.24c0.56-0.05,0.66-0.11,0.67-0.32
				c0.03-1.06,0.03-5.17,0-6.39c-0.17,0.05-0.26,0.2-0.34,0.32c-0.45,0.63-2.47,3.86-2.73,4.22c-0.15,0.21-0.39,0.2-0.54-0.05
				c-0.46-0.76-1.99-3.28-2.66-4.31c-0.06-0.1-0.14-0.21-0.25-0.28c-0.08,0.03-0.11,0.11-0.11,0.23c-0.02,0.86-0.01,5.41,0.01,6.19
				c0.01,0.31,0.11,0.36,0.68,0.39c0.21,0.01,0.21,0.25,0,0.24c-0.67-0.03-1.33-0.02-1.88,0c-0.25,0.01-0.25-0.24-0.01-0.25
				c0.59-0.04,0.72-0.11,0.72-0.35c0.03-1.12,0.03-5.06,0-6.29c-0.01-0.19-0.07-0.31-0.66-0.35c-0.23-0.01-0.23-0.26,0.02-0.25
				c0.39,0.02,0.72,0.01,1,0.01c0.46-0.01,0.98,0.23,1.18,0.57c0.53,0.86,1.66,2.72,2.17,3.51c0.16,0.25,0.3,0.27,0.42,0.08
				c0.84-1.3,2.14-3.38,2.5-3.97c0.09-0.14,0.26-0.18,0.64-0.18c0.35,0,0.64,0,1.1-0.02c0.24-0.01,0.25,0.24,0.01,0.25
				c-0.55,0.03-0.59,0.11-0.6,0.37c-0.01,1.29,0,5.5,0.02,6.23c0.01,0.26,0.08,0.35,0.73,0.39C91.72,16.48,91.71,16.73,91.47,16.72z
				"/>
			<path class="st1" d="M93.73,16.47c0.63-0.04,0.79-0.12,0.79-0.36c0.03-1.11,0.03-5.1,0-6.28c0-0.22-0.23-0.33-0.79-0.36
				c-0.24-0.01-0.23-0.25,0.02-0.24c0.55,0.01,1.45,0.02,2.12,0c0.22-0.01,0.22,0.22,0.01,0.24c-0.49,0.04-0.67,0.15-0.68,0.36
				c-0.02,0.85,0,5.48,0.02,6.25c0.01,0.23,0.04,0.26,0.31,0.27c0.99,0.01,2.8,0.02,3.28,0.02c0.33-0.01,0.36-0.06,0.37-0.34
				c0.01-0.19,0.01-0.83,0-1.05c0-0.06,0.05-0.1,0.14-0.1c0.26,0,0.45,0.12,0.43,0.28c-0.04,0.32-0.06,1,0.12,1.24
				c0.2,0.28,0.06,0.32-0.21,0.32c-1.54-0.02-4.64-0.03-5.91,0C93.5,16.72,93.49,16.48,93.73,16.47z"/>
		</g>
	</g>
	<g>
		<g>
			<rect x="63.87" y="26.41" class="st0" width="27.14" height="8.43"/>
			<path class="st0" d="M90.61,26.81v7.63H64.27v-7.63H90.61 M91.41,26.01H63.46v9.24h27.95V26.01L91.41,26.01z"/>
		</g>
		<g>
			<rect x="94.4" y="26.41" class="st0" width="27.14" height="8.43"/>
			<path class="st0" d="M121.14,26.81v7.63H94.81v-7.63H121.14 M121.95,26.01H94v9.24h27.95V26.01L121.95,26.01z"/>
		</g>
		<g>
			<rect x="124.94" y="26.41" class="st0" width="27.14" height="8.43"/>
			<path class="st0" d="M151.68,26.81v7.63h-26.34v-7.63H151.68 M152.48,26.01h-27.95v9.24h27.95V26.01L152.48,26.01z"/>
		</g>
		<g>
			<rect x="155.47" y="26.41" class="st0" width="27.14" height="8.43"/>
			<path class="st0" d="M182.21,26.81v7.63h-26.34v-7.63H182.21 M183.02,26.01h-27.95v9.24h27.95V26.01L183.02,26.01z"/>
		</g>
		<g>
			<path class="st0" d="M212.55,27.01v7.24H64.46v-7.24H212.55 M213.55,26.01H63.46v9.24h150.09V26.01L213.55,26.01z"/>
		</g>
	</g>
</g>
<g>
</g>
<g>
</g>
<g>
</g>
<g>
</g>
<g>
</g>
<g>
</g>
</svg>
