<?xml version="1.0" encoding="utf-8"?>
<!-- Generator: Adobe Illustrator 30.0.0, SVG Export Plug-In . SVG Version: 9.03 Build 0)  -->
<svg version="1.1" id="レイヤー_1" xmlns="http://www.w3.org/2000/svg" xmlns:xlink="http://www.w3.org/1999/xlink" x="0px"
	 y="0px" viewBox="0 0 25.82 25.23" style="enable-background:new 0 0 25.82 25.23;" xml:space="preserve">
<style type="text/css">
	.st0{fill:#978474;}
</style>
<g>
	<g>
		<g>
			<path class="st0" d="M21.44,1.11c1.8,0,3.27,1.47,3.27,3.27v16.47c0,1.8-1.47,3.27-3.27,3.27H4.38c-1.8,0-3.27-1.47-3.27-3.27
				V4.38c0-1.8,1.47-3.27,3.27-3.27L21.44,1.11 M21.44,0H4.38C1.97,0,0,1.97,0,4.38v16.47c0,2.41,1.97,4.38,4.38,4.38h17.06
				c2.41,0,4.38-1.97,4.38-4.38V4.38C25.82,1.97,23.84,0,21.44,0L21.44,0z"/>
		</g>
		<polygon class="st0" points="18.01,6.51 16.06,14.28 14.34,6.51 12.91,6.51 11.48,6.51 9.76,14.28 7.81,6.51 4.81,6.51 
			8.38,18.72 11.15,18.72 12.91,11.23 14.67,18.72 17.44,18.72 21.01,6.51 		"/>
	</g>
</g>
</svg>
