<?xml version="1.0" encoding="utf-8"?>
<!-- Generator: Adobe Illustrator 30.0.0, SVG Export Plug-In . SVG Version: 9.03 Build 0)  -->
<svg version="1.1" id="レイヤー_1" xmlns="http://www.w3.org/2000/svg" xmlns:xlink="http://www.w3.org/1999/xlink" x="0px"
	 y="0px" viewBox="0 0 213.55 43.24" style="enable-background:new 0 0 213.55 43.24;" xml:space="preserve">
<style type="text/css">
	.st0{fill:#978474;}
	.st1{fill:#968274;}
</style>
<g>
	<path class="st0" d="M3.01,0l3.37,38.87l15.74,4.36l15.74-4.41L41.24,0H3.01z M33.95,12.54L22.12,17.6h11.33l-1.24,14.97
		l-10.09,2.88l-10.09-2.88l-0.6-7.59h5.06l0.19,3.67l5.44,1.55l5.48-1.55l0.35-6.3H11.04l-0.35-4.76l11.85-5.01h-12.3L9.7,7.73
		h24.59L33.95,12.54z"/>
	<g>
		<g>
			<g>
				<path class="st1" d="M64.36,13.04c-0.03-2.25,1.48-3.88,3.61-3.88c1.56,0,2.46,0.68,2.75,1.37c0.17,0.4,0.09,0.81-0.19,0.94
					c-0.45,0.19-0.27-0.99-1.36-1.66c-0.39-0.24-0.76-0.32-1.27-0.3c-1.72,0.06-2.87,1.54-2.8,3.58c0.07,2,1.41,3.44,3.17,3.38
					c0.98-0.03,1.82-0.53,2.33-1.32c0.1-0.14,0.31-0.09,0.39,0.08c0.07,0.18,0.05,0.3-0.07,0.43c-0.67,0.71-1.62,1.15-2.72,1.16
					C65.97,16.85,64.39,15.3,64.36,13.04z"/>
				<path class="st1" d="M73.03,14.94c0-0.33,0.14-0.53,0.35-0.53c0.49,0,0.35,2.13,2.27,2.13c1.03,0,1.86-0.79,1.86-1.75
					c0-0.73-0.75-1.39-2.01-1.78c-1.23-0.38-2.4-0.96-2.4-1.98c0-1.1,1.01-1.9,2.45-1.9c1.21,0,2.37,0.81,2.37,1.38
					c0,0.24-0.12,0.41-0.28,0.41c-0.34,0-0.81-1.52-2.09-1.52c-1.12,0-1.81,0.74-1.81,1.43c0,0.65,0.62,1.14,1.96,1.56
					c1.67,0.51,2.46,1.28,2.46,2.4c0,1.11-1.03,2.05-2.58,2.05C73.96,16.84,73.03,15.64,73.03,14.94z"/>
				<path class="st1" d="M80.26,14.94c0-0.33,0.14-0.53,0.35-0.53c0.49,0,0.35,2.13,2.27,2.13c1.03,0,1.86-0.79,1.86-1.75
					c0-0.73-0.75-1.39-2.01-1.78c-1.23-0.38-2.4-0.96-2.4-1.98c0-1.1,1.01-1.9,2.45-1.9c1.21,0,2.37,0.81,2.37,1.38
					c0,0.24-0.12,0.41-0.28,0.41c-0.34,0-0.81-1.52-2.09-1.52c-1.12,0-1.81,0.74-1.81,1.43c0,0.65,0.62,1.14,1.96,1.56
					c1.67,0.51,2.46,1.28,2.46,2.4c0,1.11-1.03,2.05-2.58,2.05C81.19,16.84,80.26,15.64,80.26,14.94z"/>
			</g>
		</g>
		<g>
			<g>
				<rect x="63.87" y="26.41" class="st0" width="27.14" height="8.43"/>
				<path class="st0" d="M90.61,26.81v7.63H64.27v-7.63H90.61 M91.41,26.01H63.46v9.24h27.95V26.01L91.41,26.01z"/>
			</g>
			<g>
				<rect x="94.4" y="26.41" class="st0" width="27.14" height="8.43"/>
				<path class="st0" d="M121.14,26.81v7.63H94.81v-7.63H121.14 M121.95,26.01H94v9.24h27.95V26.01L121.95,26.01z"/>
			</g>
			<g>
				<rect x="124.94" y="26.41" class="st0" width="27.14" height="8.43"/>
				<path class="st0" d="M151.68,26.81v7.63h-26.34v-7.63H151.68 M152.48,26.01h-27.95v9.24h27.95V26.01L152.48,26.01z"/>
			</g>
			<g>
				<path class="st0" d="M212.55,27.01v7.24H64.46v-7.24H212.55 M213.55,26.01H63.46v9.24h150.09V26.01L213.55,26.01z"/>
			</g>
		</g>
	</g>
</g>
<g>
</g>
<g>
</g>
<g>
</g>
<g>
</g>
<g>
</g>
<g>
</g>
</svg>
