<?xml version="1.0" encoding="utf-8"?>
<!-- Generator: Adobe Illustrator 30.0.0, SVG Export Plug-In . SVG Version: 9.03 Build 0)  -->
<svg version="1.1" id="レイヤー_1" xmlns="http://www.w3.org/2000/svg" xmlns:xlink="http://www.w3.org/1999/xlink" x="0px"
	 y="0px" viewBox="0 0 1920 1226.48" style="enable-background:new 0 0 1920 1226.48;" xml:space="preserve">
<style type="text/css">
	.st0{clip-path:url(#SVGID_00000019665942977539407250000000814904718793201593_);fill:#DBD4CF;}
	.st1{clip-path:url(#SVGID_00000072242220368307886260000008753364624583164827_);}
	.st2{fill:#DBD4CF;}
	.st3{clip-path:url(#SVGID_00000104701064429206251210000018427512696394237629_);}
	.st4{fill:#988575;}
	.st5{clip-path:url(#SVGID_00000055708519413882087500000002079250508429449913_);}
	.st6{fill:#B7AA9E;}
	.st7{clip-path:url(#SVGID_00000082355607201114024190000007785435440943649976_);fill:#988575;}
</style>
<g>
	<g>
		<g>
			<defs>
				<rect id="SVGID_1_" y="-1.98" width="1920" height="396.47"/>
			</defs>
			<clipPath id="SVGID_00000062908074957217697120000016702078101722189718_">
				<use xlink:href="#SVGID_1_"  style="overflow:visible;"/>
			</clipPath>
			<path style="clip-path:url(#SVGID_00000062908074957217697120000016702078101722189718_);fill:#DBD4CF;" d="M15.28,233.62
				c0,0,2.85-7-3.09-12.72c-5.93-5.72-8.75-12.22-7.65-16.76c0,0,2.61,10.43,13.97,17.26c0,0-6.65-6.15-6.04-13.21
				c0,0-0.19,10.83,13.42,9.91L53,204.15c0,0-7.6-5.04-7.6-16.93s-8.41-14.99-8.41-14.99s9.18-0.68,12.27,16.65
				c0,0-3.3-16.14,2.2-24.29c0,0-3.3,13.49,3.52,39.55l8.29-5.03c0,0-6.75-8.8-6.53-17.47c0,0,5.72,18.13,14.31,16.62
				c0,0,1.76-19.28-1.32-23.61c0,0,4.7,4.27,4.6,6.99c0,0-1.52-10.66-4.82-14.84c0,0,8.81,7.88,9.69,28.6l19.28-11.48
				c0,0-3.34-8.32-0.95-15.8c0,0,0.65,12.73,5.36,13.52l13.52-4.93c0,0,7.93-7.98-5.5-20.26c0,0,5.89,2.22,10.13,7.05
				c0,0-3.48-10.25-1.41-17.35c0,0-0.79,12.72,9.12,22.4l8.15-3.08c0,0-0.44-9.03-2.42-13.43c0,0,5.5,3.74,9.47,16.51
				c0,0,4.4-9.41,1.54-14.83c0,0,5.72,7.35,5.5,13.51l12.86-2.86c0,0-4.27,0.95-3.18-14.53c0.5-7.08-1.98-12.77-1.98-12.77
				s5.16,4.6,5.16,16.65c0,0,0-7.57,4.27-8.95c0,0-5.96,4.62,3.65,17.83l19.51-5.94c0,0,8.57-10.25,2.53-13.87
				c0,0,4.77,0.44,5.34,8.09c0,0-4.78-11.66-2.52-17.34c0,0-0.41,6.36,3.12,11.01c0,0,0.67-3.41,2.86-5.06c0,0-4.75,6.5,4.95,14.23
				c0,0,1.98-6.54-2.2-13.25c0,0,6.17,1.22,11.45,10.69c0,0,1.76-3.08,0-7.49c0,0,3.88,2.25,6.02,8.5l12.58-2.46
				c0,0-5.31-4.97-3.23-15.17c1.75-8.62,0.11-12.65,0.11-12.65s4.68,4.04,1.64,21.57l5.34,7.49l24.96-6.48c0,0-4.34-9.81,0-16.86
				c0,0,0.15,6.89,3.45,9.62c0,0-0.65-12.77,2.66-15.16c0,0-3.3,7.04,6.61,19.61c0,0,1.27-10,3.74-12.06c0,0-0.66,5.92,3.08,13.62
				l19.6-2.76c0,0,7.14-3.65,4.94-9.06c-5.08-12.47-3.18-19.69-3.18-19.69s0.37,9.24,5.08,14.92c0,0-1.24-7.27,1.31-10.72
				c0,0-2.2,9.25,7.27,19.38l25.42-3.65c0,0,1-9.21-1.2-13.46c0,0,4.18,4.06,4.84,7.72c0,0,3.52-7.1,1.76-11.41
				c0,0,5.06,4.28,4.62,14.19l20.04-1.07c0,0,3.7-5.65,2.82-12.45c-0.88-6.81,0.82-13.45,0.82-13.45s0.5,10.81,4.8,13.78
				c0,0-1.24-7.02,1.47-11.46c0,0-2.29,4.42,4.8,17.84l16.97-1.77c0,0,5.53-10.57,5.31-12.55c0,0,1.11,6.83,0.01,12.77l22.01-0.44
				c0,0,0.22-14.09,6.61-19.16c0,0-5.5,9.25,0,20.26l14.97-2.8c0,0,2.51-12.06,1.76-15.78c0,0,5.94,9.55,5.06,17.92l16.51-2.14
				c0,0-1.06-18.56,5.2-26.92c6.25-8.37,6.03-11.07,6.03-11.07s1.76,7.65-5.06,14.97c0,0,5.57,0.72,9.72-4.56
				c0,0-5.52,10.03-10.69,15.25l10.69,12.34c0,0,8.12-15.03,6.79-21.86c0,0,3.3,3.99,5.5,18.18l26.64-2.78
				c0,0,7.93-10.33,7.93-21.12c0,0,3.46,9.84,1.07,20.11l24.26-1.88c0,0,0.54-16.15,6.15-16.69c0,0-3.08,3.94,1.1,16.06
				c0,0,1.32-7.47,1.1-12.1c0,0,3.96,3.19,4.62,9.74l28.18-3.44c0,0,3.76-2.37,3.35-6.99c-0.41-4.62,1.71-15.82,2.59-17.25
				c0,0-1.79,11.82,2.5,20.98c0,0,5.86-11.63,6.08-13.61c0,0,1.76,6.87,0,16.87h36.99c0,0,4.7-1.25,4.24-6.56
				c-1.49-17.26,3.32-23.74,3.32-23.74s-3.01,9.13,1.3,20.19c0,0-0.28-10.28,6.11-12.94c0,0-6.39,2.66,0,19.39l11.89,4.84
				c0,0,19.82-13.33,18.72-23.4c0,0,3.52,6.01,2.86,9.09c0,0,0.44-9.76,3.3-12.14c0,0-2.86,6.25,1.98,25.27l43.38-0.13
				c0,0,0.22-15.63,3.52-22.02c0,0,1.95,8.08,5.92,8.66c0,0-5.37-13.21,4.65-16.8c0,0-7.49,3.85,2.42,25.05
				c0,0,17.17-7.42,16.73-18.99c0,0,5.37,3.77,4.88,10.75c0,0,1.55-8.67,8.55-6.9c0,0-7.84,0.99,4.44,15.14l23.3,0.94
				c0,0-3.16-3.54,2.09-11.19c4.84-7.05,4.24-11.64,4.24-11.64s4.12,5.59-0.34,14.37l3.93,10.22l31.74-3.61
				c0,0-0.71-12.97,6.11-19.1c0,0-3.08,6.64,0,11.92c0,0,5.34-8.29,11.01-5.28c0,0-7.49,2.64,4.84,14.31h54.39
				c0,0,0.36-13.64,5.94-19.92c0,0-2.5,7.92,1.54,18.99h29.28c0,0,0.22-18.22,7.49-21.96c0,0-2.75,4.56,0.66,11.05
				c0,0,0.77-8.7,6.83-7.53c0,0-5.28-0.66,0,15.19l11.89,1.16c0,0,5.28-9.6,4.18-17.93c0,0,4.41,11.05,1.54,17.98l43.38-0.31
				c0,0-6.39-9.49-3.52-16.32s2.64-12.6,2.64-12.6s4.4,3.07,0.11,22.11c-1.62,7.17,13.54,10.09,13.54,10.09l21.5-0.94
				c0,0,6.27-11.61,5.93-16.68c0,0,3.84,4.73,4.06,14.36l35.46,2.83c0,0,4.73-6.17,9.56-12.09c4.4-5.39,5.15-12.14,5.15-12.14
				s0.85,19.25-6.64,23.28s1.16,2.25,1.16,2.25l33.51,0.22c0,0-0.48-11.45,4.8-17.83c0,0-2.83,8.02,1.78,18.1l37.64,3.26
				c0,0,7.05-12.78,6.83-19.38c0,0,3.08,5.73,2.64,7.93c0,0,3.3-6.61,1.98-12.77c0,0,6.84,8.94,3.97,23.4l35.18,1.93
				c0,0,1.14-12.5,6.42-18.26s3.08-8.84,3.08-8.84s4.62,1.94-2.42,15.72c-7.05,13.78,3.91,13.42,3.91,13.42l24.27,1.68
				c0,0,4.69-11.98,1.79-17.99c0,0,5.72,1.48,4.83,16.89l29.23,2.06c0,0,2.24-18.28,8.41-21.84c0,0-2.31,2.41,0,11.19
				c0,0,1.76-6.43,7.27-5.42c0,0-6.88,1.91,2.18,17.42l13.01,1.04c0,0,3.53-8.64,2.65-12.6c0,0,4.41,4.28,1.33,12.93l26.48,2.26
				c0,0-0.5-11.43,3.9-18.04s2.64-8.77,2.64-8.77s5.72,3.21-1.54,19.2s32.71,11.77,32.71,11.77s7.27-8.12,7.87-13.84
				c0,0,0.93-0.1,1.7,3.97c0,0,3.44-6.47,2.43-11.25c0,0,3.75,6.4,0,18.95l24.22,3.96c0,0-1.54-15.86,6.17-16.41
				c0,0-4.15,2.69,1.21,12.16c0,0,3.19-3.08,2.75-9.18c0,0,3.67,4.93,0,11.61l32.46,5.01c0,0,18.29,4.44,14.48-9.74
				c0,0,6.46,7.58,2.36,14.88l27.11,5.32c0,0-2.11-12.73,3.24-17.79s4.47-11.05,4.47-11.05s3.85,8.63-3.74,18.38
				c-10.9,14,42.72,15.84,42.72,15.84s7.87-13.19,5.94-18.11c0,0,3.66,3.76,1.32,13.39l17.45,10.28c0,0,4.46-11.64,2.37-17.33
				c0,0,5.4,4.84,4.68,15.85l28.12,7.04c0,0,12.14-0.47,10.6-9.06s9-19.34,9-19.34s-5.96,7.87-3.3,16.3
				c3.82,12.12-0.66,20.04-0.66,20.04l30.46,0.22c0,0,7.19-8.7,3.89-16.46c0,0,7.27,4.13,5.28,20.86l34.79,8.21
				c0,0,6.83-12.19,6.61-16.7c0,0,5.28,9.52,2.86,19.69l20.37,3.58c0,0-2.1-8.08,1.64-16.38s2.63-12.44,2.63-12.44
				s3.87,15.66-0.4,26.03c-4.28,10.37,25.73,15.98,25.73,15.98s3.3-11.52,8.59-16.77c0,0-3.52,2.68-2.42,16.33l27.08,12.33
				c0,0,2.66-16.29,11.01-18.94c0,0-6.94,4.15-3.47,19.47l16.42,7.17c0,0,7.58-8.15,7.78-14.09c0.19-5.94,4.16-7.93,4.16-7.93
				s-3.31,4.06-1.54,13.01s-5.06,15.83-5.06,15.83l16.86,11.33c0,0,9.13-4.72,9.13-12.65c0,0-0.07,16.74-4,18.39
				C1908.03,235.27,15.28,233.62,15.28,233.62z"/>
		</g>
	</g>
	<g>
		<g>
			<defs>
				<rect id="SVGID_00000141415615253271470920000004887309115049711506_" y="-1.98" width="1920" height="396.47"/>
			</defs>
			<clipPath id="SVGID_00000075871875766670543830000015797568204767911843_">
				<use xlink:href="#SVGID_00000141415615253271470920000004887309115049711506_"  style="overflow:visible;"/>
			</clipPath>
			<g style="clip-path:url(#SVGID_00000075871875766670543830000015797568204767911843_);">
				<g>
					<path class="st2" d="M77.42,108.08c0.37,1.63-1.08,2.75-2.72,3.09c-2.22,0.03-3.97-1.74-3.76-2.59
						c0.14-2.02,2.01-3.66,3.22-3.54C75.51,105.31,77.18,106.19,77.42,108.08z"/>
				</g>
				<g>
					<path class="st2" d="M132.48,137.26c0.12,1.8-0.99,3.36-2.37,3.11c-2.78-0.39-3.96-1.3-3.45-3.29
						c0.41-1.81,1.72-2.51,2.72-2.48C130.96,134.59,133.22,135.67,132.48,137.26z"/>
				</g>
				<g>
					<path class="st2" d="M38.05,129.37c0.39,1.75-0.89,3.85-3.49,2.98c-1.22,0.34-2.25-0.71-2.44-2.26
						c-0.53-1.71,1.63-3.97,2.42-3.87C36.21,127,38.43,127.86,38.05,129.37z"/>
				</g>
				<g>
					<path class="st2" d="M32.56,159.58c-0.52,2.14-1.57,3.13-3.2,3.1c-2.04-0.25-4.02-1.09-3.08-3.48
						c-0.95-1.58,0.47-2.78,3.06-2.37C30.44,157.12,31.97,157.82,32.56,159.58z"/>
				</g>
				<g>
					<path class="st2" d="M190.08,117.64c0.8,2-0.52,3.48-2.26,3.5c-2.72-0.24-3.35-1.77-3.95-3.24c0.57-1.64,2.16-2.86,3.53-2.56
						C189.13,115.13,190.2,116.24,190.08,117.64z"/>
				</g>
				<g>
					<path class="st2" d="M326.16,104.92c-0.01,1.47-0.62,2.84-2.96,2.35c-1.11,0.37-2.86-0.69-2.91-2.22
						c0.73-2.05,2.27-3.11,3.61-3.86C325.75,101.48,326.35,102.81,326.16,104.92z"/>
				</g>
				<g>
					<path class="st2" d="M261,101.74c0.03,2.22-0.57,2.82-3.23,3.16c-1.6-0.57-2.93-0.93-2.5-2.94c-0.61-1.33,1.26-2.81,3.17-3.81
						C260.39,99.17,260.75,99.7,261,101.74z"/>
				</g>
				<g>
					<path class="st2" d="M358.5,73.13c-0.36,1.76-1.08,3.4-3.07,3.58c-1.82-0.27-3.03-1.51-3.25-3.54
						c0.08-0.85,1.86-2.01,3.64-2.49C357.06,70.01,358.43,72.54,358.5,73.13z"/>
				</g>
				<g>
					<path class="st2" d="M384.51,83.19c-0.09,2.29-1.44,3.71-3.54,3.78c-1.18-0.98-1.91-1.4-3.01-3.79
						c0.81-2.03,1.66-3.23,3.55-3.31C383.79,79.89,384.85,81.08,384.51,83.19z"/>
				</g>
				<g>
					<path class="st2" d="M476.02,75.08c-0.08,2.61-2.02,3.96-3.37,3.76c-2.25-0.5-2.6-1.26-3.6-3.72c0.67-1.06,1.47-2.18,3.72-2.92
						C473.94,72.92,476.02,73.86,476.02,75.08z"/>
				</g>
				<g>
					<path class="st2" d="M533.9,65.16c-0.29,0.9-2.07,2.6-2.93,3.22c-2.21-0.87-4.02-1.45-4.08-3.54c0.38-1.94,1.49-2.81,3.93-2.87
						C531.75,61.94,533.52,62.95,533.9,65.16z"/>
				</g>
				<g>
					<path class="st2" d="M586.63,45.58c-0.36,2.43-1.05,3.13-3.25,3.77c-1.57-0.14-2.43-1.23-2.56-3.49
						c0.39-1.47,1.16-3.18,3.31-3.18C585.79,42.29,586.84,44.77,586.63,45.58z"/>
				</g>
				<g>
					<path class="st2" d="M633.01,51.59c-0.33,1.66-2.41,2.7-3.84,2.66c-1.69,0.12-2.42-1.71-2.84-2.54
						c0.17-2.27,1.5-3.22,3.06-3.09C631.13,48.16,632.23,49.22,633.01,51.59z"/>
				</g>
				<g>
					<path class="st2" d="M691.06,35.32c-0.1,0.89-0.41,2.64-2.96,2.34c-1.28,0.7-2.56-1.39-2.78-3.12
						c-0.01-1.44,1.21-2.7,3.18-3.11C689.7,31.44,691.14,32.99,691.06,35.32z"/>
				</g>
				<g>
					<path class="st2" d="M837.13,42.4c-0.11,2.11-2.15,3.07-4,2.95c-1.35,0.83-2.8-0.31-2.23-2.52c0.22-1.14,1.48-3,2.81-3.37
						C835.62,39.62,836.99,41.56,837.13,42.4z"/>
				</g>
				<g>
					<path class="st2" d="M821.68,65.03c-0.84,1.33-2.15,2.49-3.54,3.37c-1.56-0.77-2.2-1.66-2.36-3.68
						c-0.57-2.11,0.89-2.59,2.99-3.19C820.03,61.69,821.69,63.55,821.68,65.03z"/>
				</g>
				<g>
					<path class="st2" d="M868.96,17.73c0.23,1.08-1.99,2.19-3.81,2.2c-1.61-0.12-2.74-1.37-2.56-2.96
						c-0.21-0.87,1.43-2.46,3.35-3.13C867.81,13.78,869.07,15.07,868.96,17.73z"/>
				</g>
				<g>
					<path class="st2" d="M711.96,66.26c0.55,1.07-1.96,2.13-3.21,2.5c-1.23-0.3-3.37-0.65-3.45-3.36c0.3-1.53,2.16-2.81,3.69-2.1
						C710.71,63.23,712.03,63.73,711.96,66.26z"/>
				</g>
				<g>
					<path class="st2" d="M926.68,57.19c-0.82,2.26-1.19,2.92-3.88,3.04c-1.55,0.46-2.62-0.43-2.63-2.29
						c-0.24-1.96,1.59-3.63,3.09-3.04C924.76,54.72,926.69,55.88,926.68,57.19z"/>
				</g>
				<g>
					<path class="st2" d="M1000.01,54.72c-0.28,1.11-1.43,2.92-3.44,2.99c-1.46,0.01-2.38-1.76-2.47-3.56
						c-0.27-0.78,1.11-2.63,2.68-2.78C998.73,52.02,1000.03,52.21,1000.01,54.72z"/>
				</g>
				<g>
					<path class="st2" d="M1058.44,45.81c-0.1,2.13-1.19,2.68-2.58,2.93c-2.58,0.62-3.19-1.46-3.45-2.75
						c0.2-1.8,1.22-3.03,2.37-2.56C1057.43,43.25,1058.4,43.89,1058.44,45.81z"/>
				</g>
				<g>
					<path class="st2" d="M1121.06,30.8c0.64,1.25-0.68,3.24-2.87,3.49c-0.84-1.01-3.21-2.25-2.26-4.03
						c-1.08-1.5,1.36-3.07,2.35-2.73C1120.24,27.96,1121.56,28.62,1121.06,30.8z"/>
				</g>
				<g>
					<path class="st2" d="M1190.93,47.42c0.49,2.02-0.79,3.25-2.15,3.87c-2.34-0.61-3.18-2.29-3.35-3.11
						c0.42-2.01,0.99-3.76,3.46-3.6C1189.46,44.88,1191.48,45.64,1190.93,47.42z"/>
				</g>
				<g>
					<path class="st2" d="M1147.24,60c-0.2,1.36-2.03,3.39-3.37,2.95c-1.53,0.09-2.95-0.5-3.63-2.87c0.73-1.02,1.88-3.25,3.92-2.51
						C1145.54,57.66,1146.66,58.88,1147.24,60z"/>
				</g>
				<g>
					<path class="st2" d="M1264.53,41.34c0.06,2.13-0.99,3.45-2.61,3.88c-2-0.83-2.88-1.87-2.83-3.55c0.1-1.12,1.84-3.38,3.24-3.23
						C1263.32,39.23,1264.83,40.1,1264.53,41.34z"/>
				</g>
				<g>
					<path class="st2" d="M1324.79,77.17c-0.44,1.33-1.5,3.12-2.79,3.03c-1.91,0.4-3.92-0.91-4.05-2.6
						c-0.11-2.12,1.89-4.04,3.87-3.3C1323.52,73.94,1323.98,75.78,1324.79,77.17z"/>
				</g>
				<g>
					<path class="st2" d="M1365.21,65.5c-0.01,1.45-1.35,2.76-2.97,3.1c-1.4-0.36-2.97-1.52-2.16-3.15
						c-0.61-1.89,1.26-3.63,2.95-3.4C1363.63,61.92,1365.62,62.92,1365.21,65.5z"/>
				</g>
				<g>
					<path class="st2" d="M1435.61,80.62c-0.31,1.1-0.98,2.89-2.23,2.03c-2.67,0.4-3.94-0.49-3.84-2.88
						c0.07-0.84,2.05-3.18,3.64-2.04C1434.72,77.1,1436.32,77.91,1435.61,80.62z"/>
				</g>
				<g>
					<path class="st2" d="M1518.92,55.52c0.24,1.46-1.19,3.79-2.43,3.76c-2.71-0.97-3.32-1.26-3.79-3.66
						c0.02-1.57,1.84-3.14,3.31-2.44C1517.72,52.18,1518.87,54.12,1518.92,55.52z"/>
				</g>
				<g>
					<path class="st2" d="M1584.49,59.86c-0.26,1.84-0.88,3.81-3.57,3.41c-0.74,0.31-2.46-1.05-2.41-2.92
						c-0.69-2.34,0.8-2.62,2.34-3.6C1583.43,56.69,1584.19,58.69,1584.49,59.86z"/>
				</g>
				<g>
					<path class="st2" d="M1494.27,90.5c-0.64,2.44-2.04,3.76-2.85,4.15c-1.89-1.06-4.14-2.25-3.85-3.29
						c0.54-1.62,1.55-3.51,3.3-3.54C1492.13,87.67,1493.73,89.2,1494.27,90.5z"/>
				</g>
				<g>
					<path class="st2" d="M1562.66,101.67c0.3,2.35-1.41,2.83-2.24,3.6c-2.69,0.06-2.93-1.9-3.23-3.94
						c-0.34-1.34,1.69-2.39,2.78-2.53C1561.24,98.72,1562.7,100.21,1562.66,101.67z"/>
				</g>
				<g>
					<path class="st2" d="M1624.81,91.53c0.59,2.3-1.56,2.99-2.66,3.41c-2.1,0.7-3.61-0.71-3.05-2.9c-0.12-1.65,0.99-3.19,2.64-2.64
						C1623.47,89.1,1624.6,89.87,1624.81,91.53z"/>
				</g>
				<g>
					<path class="st2" d="M1754.54,111.43c0.56,1.45-1.32,2.45-3.01,2.97c-1.57-0.66-3.1-2.26-2.79-3.06c0-1.71,1.2-3.04,3.06-3.73
						C1753.78,108.26,1754.99,109.21,1754.54,111.43z"/>
				</g>
				<g>
					<path class="st2" d="M1678.18,114.58c0.88,1.4-0.82,2.5-2.91,2.84c-1.5-0.7-2.73-1.31-3.13-3.5c-0.16-1.83,2.24-2.42,2.93-2.98
						C1676.62,110.67,1679.05,112.06,1678.18,114.58z"/>
				</g>
				<g>
					<path class="st2" d="M748,53.25c0.72,1.68-1.58,3.41-2.93,3.39c-1.28,0-2.34-1.28-2.85-3.06c-0.43-1.77,0.87-3.24,2.56-3.02
						C747.33,50.74,748.53,52.3,748,53.25z"/>
				</g>
				<g>
					<path class="st2" d="M1790.24,78.69c0.65,1.37-0.67,2.77-2.44,2.16c-1.81,0.4-2.86-1.33-3.09-2.63
						c0.2-1.68,1.48-3.17,2.84-2.97C1789.78,75.55,1790.71,76.52,1790.24,78.69z"/>
				</g>
				<g>
					<path class="st2" d="M1825.05,120.93c-0.42,1.92-1.71,3.51-3.53,3.38c-1.93-0.03-2.82-1.68-3.05-2.62
						c-0.72-1.63,1.31-3.41,3.17-4.12C1823.15,118.11,1824.59,119.66,1825.05,120.93z"/>
				</g>
				<g>
					<path class="st2" d="M1833.83,156.12c0.13,1.43-1.72,2.53-3.94,3.22c-0.95-0.32-2.11-1.62-2.95-2.85
						c-0.06-2.52,1.25-3.07,2.97-3.44C1832.28,152.68,1832.88,154.14,1833.83,156.12z"/>
				</g>
				<g>
					<path class="st2" d="M1911.26,184.48c0.63,1.13-0.98,2.41-3.49,2.95c-1.12-0.66-2.2-1.23-2.21-3.64
						c-0.75-0.77,0.87-2.05,3.27-2.87C1909.42,181.34,1911.38,182.45,1911.26,184.48z"/>
				</g>
				<g>
					<path class="st2" d="M457.79,62.97c0.56,0.86-1.94,2.41-3.02,2.68c-1.64-0.17-2.6-1.77-3.67-3.26
						c0.91-1.37,1.86-2.73,3.39-2.83C455.82,59.5,457.63,60.16,457.79,62.97z"/>
				</g>
			</g>
		</g>
	</g>
	<g>
		<g>
			<defs>
				<rect id="SVGID_00000029031535229233636600000005722379356685503877_" y="-1.98" width="1920" height="396.47"/>
			</defs>
			<clipPath id="SVGID_00000058575894227255203690000006866985698774931119_">
				<use xlink:href="#SVGID_00000029031535229233636600000005722379356685503877_"  style="overflow:visible;"/>
			</clipPath>
			<g style="clip-path:url(#SVGID_00000058575894227255203690000006866985698774931119_);">
				<path class="st4" d="M874.49,97.16c0,0-11.45-59.01,7.49-73.98c0,0-10.48-5.94-5.46-16.29s10.3-2.64,10.3-2.64
					s3.08,0.22,3.52,2.86c0,0,1.32-3.52,5.5-2.42s7.5,18.95-11.45,18.72c0,0-20.04,7.05-7.93,73.76L874.49,97.16L874.49,97.16z"/>
				<path class="st4" d="M874.72,64.84c0,0-2.86-15.64,11.67-26.75c14.53-11.12,14.53-11.12,14.53-11.12S900.92,55.6,874.72,64.84z"
					/>
				<path class="st4" d="M865.57,77.14c0,0-8.08-23.11-25.19-16.11C840.38,61.04,844.59,67.94,865.57,77.14z"/>
				<path class="st4" d="M874.49,97.16c0,0-8.15-48.44-29.94-71.34c0,0,7.94-10.44-4.18-16.73c-10.76-5.58-8.59,3.52-8.59,3.52
					s-1.76,0.44-1.1,2.86c0,0-4.46,0.73-3.74,4.84c0.67,3.87,3.65,11.13,16.61,7.03c0,0,18.96,15.66,28.75,69.81L874.49,97.16
					L874.49,97.16z"/>
				<path class="st4" d="M942.33,101.84c0,0,5.94-33.69,0-43.71c0,0-10.65,0-10.57-7.65c0.08-7.31,7.94-6.44,8.86-5.37
					c0,0-0.89-3.91,3.3-2.62c0,0-0.33-2.48,2.59-2.75c10.79-0.99,9.03,17.17-2.98,18.39c0,0,6.39,7.27,0,43.71H942.33z"/>
				<path class="st4" d="M1306.5,101.84c0,0-3.23-33.85,0-43.71c0,0-11.19-0.02-10.57-7.65c0.64-7.86,11.25-6.69,9.57-3.76
					c0,0,2.29-2.09,3.45,0.52c0,0,1.63-2.65,4.22-1.27c5.17,2.75,1.21,13.43-5.47,12.17c0,0-3.11,5.34,0,43.71h-1.2V101.84z"/>
				<path class="st4" d="M1278.72,113.19c0,0,6.94-33.1-6.85-43.71c0,0-10.65,0-10.57-7.65c0.08-7.31,5.72-4.68,5.57-3.71
					c0,0-0.26-3.14,3.93-1.84c0,0,0.55-4.27,5.94-2.28c7.8,2.87,8.74,14.23-3.27,15.44c0,0,12.83,7.31,6.45,43.75H1278.72z"/>
				<path class="st4" d="M1529.2,144.05c0,0,7.1-43.93,27.91-62.75c0,0-11.27-7.23-2.97-15.19c7.37-7.08,8.26,2.97,8.26,2.97
					s3.69-1.29,4.13,1.35c0,0,3.38-3.54,6.44,0.47c2.27,2.97,5.28,20.31-14.68,12.03c0,0-16.2,7.46-27.1,61.13L1529.2,144.05
					L1529.2,144.05z"/>
				<path class="st4" d="M1525.85,132.02c0,0,20.18-42.95,15.24-74.18c0,0,16.22-1.32,10.9-12.22s-9.41-3.96-9.41-3.96
					s-1.7-0.64-2.53,1.73c0,0-5.23-4.87-8.7,0.25c-2.34,3.46-4.95,10.73,8.16,13.53c0,0,5.58,25.25-15.47,73.59L1525.85,132.02z"/>
				<path class="st4" d="M1787.84,178.66c0,0-3.45-56.46,18.52-80.46c0,0-13-7.61-5.46-16.29c8.32-9.58,10.3-2.64,10.3-2.64
					s3.52-0.66,3.96,1.98c0,0,2.25-3.11,6.5-0.26c4.83,3.24,4.94,21.18-12.89,17.44c0,0-21.08,15.35-18.96,80.24h-1.97
					L1787.84,178.66L1787.84,178.66z"/>
				<path class="st4" d="M1814.7,134.58c0,0-24.55,0.6-23.13,19.09C1791.57,153.68,1799.46,151.78,1814.7,134.58z"/>
				<path class="st4" d="M1802.11,184.2c-21.72-34.16-22.3-72.56-22.3-72.56c7.96-1.45,14.41-12.85,2.61-17.51
					c-10.36-4.09-10.04,2.38-10.04,2.38s-3.61-0.38-3.49,3.18c0,0-4.89-0.84-3.72,5.42c0.77,4.11,1.97,8.18,13.06,6.85
					c0,0,1.68,42.68,21.69,72L1802.11,184.2z"/>
				<path class="st4" d="M1170.47,105.88c0,0,3.05-38.64-0.22-63.19c0,0,12.76-1.41,11.12-9c-1.9-8.78-8.34-6.41-8.94-5.7
					c0,0,0.28-1.9-3.91-0.61c0,0-0.66-2.31-3.85-1.16c-10.19,3.69-7.62,15.25,4.39,16.46c0,0,2.73,13.85,0.22,63.19h1.19V105.88z"/>
				<path class="st4" d="M101.63,204.14c0,0-28.07-76.98-9.13-91.95c0,0-10.48-5.94-5.46-16.29s10.54-1.05,10.54-1.05
					s3.02-2.64,3.46,0c0,0,1.41-2.98,5.33-1.15c4,1.87,6.89,19.6-11.45,18.72c0,0-20.8,5.2,8.69,91.73L101.63,204.14L101.63,204.14z
					"/>
				<path class="st4" d="M89.41,211.4c0,0,4.2-53.17-34.34-96.57c0,0,7.83-10.11-4.18-16.73c-10.62-5.86-7.02,2.6-7.02,2.6
					s-1.76,0.44-1.1,2.86c0,0-7.07,0.33-5.58,7.28c0.46,2.15,2.58,8.33,16.56,5.98c0,0,35.66,36.3,33.46,94.59L89.41,211.4
					L89.41,211.4z"/>
				<path class="st4" d="M640.83,118.61c0,0-11.45-59.01,7.49-73.98c0,0-15.2-8.69-5.57-18.62c5.92-6.1,6.67,0.87,6.67,0.87
					s3.01-3.18,5.02,2.52c0,0,3.89-5.23,7.74-3.26c7.85,4.01,5.49,22-11.45,18.72c0,0-20.04,7.05-7.93,73.76L640.83,118.61
					L640.83,118.61z"/>
				<path class="st4" d="M362.71,135.3c0,0-7.14-34.76-24.43-48.43c0,0,8.92-10.99-1.65-16.94s-9.14,4.73-9.14,4.73
					s-3.75-0.57-3.09,1.85c0,0-4.37,0.71-3.74,4.84c0.99,6.51,3.3,9.03,16.29,7.49c0,0,15.42,9.38,23.55,46.45L362.71,135.3
					L362.71,135.3z"/>
				<path class="st4" d="M483.02,127.62c0,0,5.88-34.84,0.22-67.52c0,0-10.62-1.12-10.57-7.65c0.06-7.31,4.06-7.56,5.25-6.49
					c0,0-0.26-3.14,3.93-1.84c0,0,1.21-3.47,5.57-2.4c10.52,2.58,7.75,16.16-2.98,18.39c0,0,6.17,31.08-0.22,67.52h-1.2
					L483.02,127.62L483.02,127.62z"/>
				<path class="st4" d="M681.94,108.21c0,0,5.94-33.69,0-43.71c0,0-16.65,0.34-10.57-11.24c3.4-6.48,7.71-3.14,8.18-1.53
					c0,0,1.01-3.69,3.93-1.84c0,0,2.01-3.53,6.16-0.57c3.96,2.82,0.99,15.53-6.5,15.18c0,0,6.39,7.27,0,43.71H681.94z"/>
				<path class="st4" d="M1531.88,103.04c0,0,9.08-13.21-4.79-35.67C1527.1,67.37,1516.65,71.48,1531.88,103.04z"/>
				<path class="st4" d="M1781.71,141.3c0,0-2.86-9.13-10.35-12.55c-8.57-3.92-8.68-5.7-8.68-5.7S1761.89,135.36,1781.71,141.3z"/>
				<path class="st4" d="M1168.93,69.79c0,0,1.4-11.23-13.29-19.73C1155.63,50.05,1162.49,74.74,1168.93,69.79z"/>
				<path class="st4" d="M639.86,73.65c0,0,11.78,0,14.09-6.83c1.02-3.02,3.52-6.39,3.52-6.39S647.12,57.36,639.86,73.65z"/>
				<path class="st4" d="M352.49,112.9c0,0-3.34-8.6-16.64-14.08C335.85,98.81,339.1,111.7,352.49,112.9z"/>
				<path class="st4" d="M42.35,137.07c0,0,8.59,16.84,31.71,18.17C74.06,155.23,79.34,145.98,42.35,137.07z"/>
				<path class="st4" d="M93.55,163.49c0,0-3.3-27.99,18.83-31.84c0,0-4.05,2.7-4.71,8.89C106.78,148.9,102.55,163.49,93.55,163.49z
					"/>
			</g>
		</g>
	</g>
	<g>
		<g>
			<defs>
				<rect id="SVGID_00000013909232161063690610000008239662736530442175_" y="-1.98" width="1920" height="396.47"/>
			</defs>
			<clipPath id="SVGID_00000176006121568209081170000009896803174038684082_">
				<use xlink:href="#SVGID_00000013909232161063690610000008239662736530442175_"  style="overflow:visible;"/>
			</clipPath>
			<g style="clip-path:url(#SVGID_00000176006121568209081170000009896803174038684082_);">
				<g>
					<path class="st6" d="M38.29,229.88c0,0,5.62-12.29-6.62-23.99c-12.23-11.71-17.38-16.17-17.8-26.99c0,0-7.82-7.88-0.58-18.01
						c0,0,5.2,1,1.16,18.01c0,0-1.31,9.24,11.5,20.63s16.22,17.67,12.97,30.35H38.29z"/>
					<path class="st6" d="M18.64,189.76c-0.17-0.02-2.73-7.51,10.29-15.12C28.93,174.64,29.46,190.87,18.64,189.76z"/>
					<path class="st6" d="M15.28,188.16c0,0-2.1-7.3-14.18-6.46C1.11,181.7,6.3,191.57,15.28,188.16z"/>
					<path class="st6" d="M25.89,202.02c0,0-0.32-4.83-10.61-3.56c-2.16,0.27-4.14,0.56-4.14,0.56S13.61,204.96,25.89,202.02z"/>
				</g>
				<g>
					<path class="st6" d="M194.55,172.22c0,0-4.84-8.67-17.07-20.38s-8.04-28.42-7.34-30.6c0,0-6.42-2.95,0.63-12.53
						c0,0,5.06,5.28-0.05,12.53c0,0-5.55,18.58,7.26,29.97s15.03,16.62,17.2,21.01L194.55,172.22L194.55,172.22z"/>
					<path class="st6" d="M167.88,129.89c-0.03,0.1-4.96,0.9-8.32-8.01C159.56,121.88,169.72,123.28,167.88,129.89z"/>
					<path class="st6" d="M177.77,130.94c0,0-6.67-3.78-5.98,10.73C171.8,141.67,178.6,134.52,177.77,130.94z"/>
				</g>
				<g>
					<path class="st6" d="M1094.88,117.56c0,0,2.76-9.03-6.01-34.23c-7.79-22.36,4.39-48.95,5.67-51.87c0,0-6.24-5.94,2.69-17.33
						c0,0,3.23,18.93-1.89,17.41c0,0-14.45,32.73-4.53,54.56c7.18,15.78,4.95,31.55,4.95,31.55L1094.88,117.56z"/>
					<path class="st6" d="M1089.45,43.62c-0.05,0.15-11.32-11.62-8.03-17.47C1081.42,26.15,1092.59,33.73,1089.45,43.62z"/>
					<path class="st6" d="M1086.28,57.52c0.01,0.16-7.93-1.37-17.12-12.44C1069.16,45.07,1085.63,47.16,1086.28,57.52z"/>
					<path class="st6" d="M1094.84,58.34c0,0-8.96,5.11-6.1,15.1C1088.74,73.44,1096.31,63.69,1094.84,58.34z"/>
					<path class="st6" d="M1101.4,42.74c0,0-5.91-5.49-11.85,11.68C1089.55,54.42,1096.03,55.96,1101.4,42.74z"/>
				</g>
				<g>
					<path class="st6" d="M394.85,132.8c0,0,8.89-14.01,4.92-27.64c-3.71-12.76-3.3-18.42-2.47-24.76c0,0-5.89-6.9-0.58-18.01
						c0,0,7.12,15.55,1.16,18.01c0,0-1.96,9.97,2,22.06c5.34,16.29-2.65,27.78-4.4,30.35L394.85,132.8L394.85,132.8z"/>
					<path class="st6" d="M398.43,102.41c0,0-6.84-0.04-8.85-7.72c-0.7-2.68-0.63-2.54-0.63-2.54S398.02,96.35,398.43,102.41z"/>
					<path class="st6" d="M405.91,80.2c0,0-4.93,3.16-6.1,8.58c-0.98,4.55-1.26,6.39-1.26,6.39S405.96,91.54,405.91,80.2z"/>
				</g>
				<g>
					<path class="st6" d="M1848.27,200.72c0,0,8.89-14.01,4.92-27.64c-3.71-12.76-3.3-18.42-2.47-24.76c0,0-5.89-6.9-0.58-18.01
						c0,0,6.55,10.11,1.16,18.01c0,0-1.96,9.97,2,22.06c5.34,16.29-2.65,27.78-4.4,30.35h-0.63L1848.27,200.72L1848.27,200.72z"/>
					<path class="st6" d="M1851.85,170.33c0,0-6.84-0.04-8.85-7.72c-0.7-2.68-0.63-2.54-0.63-2.54S1851.44,164.27,1851.85,170.33z"
						/>
					<path class="st6" d="M1859.33,148.12c0,0-5.55,3.51-6.71,8.93c-0.98,4.55-0.64,6.05-0.64,6.05S1859.38,159.47,1859.33,148.12z"
						/>
				</g>
				<g>
					<path class="st6" d="M246.79,160.42c0,0-3.41-17.61-4.48-34.51c-1.06-16.9-1.16-23.71-9.16-31c0,0-0.09-8.26-13.39-12.05
						c0,0,6.68,14.69,13.02,12.49c0,0,7.91,4.95,8.36,22.09s1.28,25.87,5.24,43.46L246.79,160.42z"/>
					<path class="st6" d="M240.33,118.19c0.17,0.01,1.28-7.88-12.93-12.94C227.4,105.26,230.83,117.83,240.33,118.19z"/>
					<path class="st6" d="M239.33,101.94c0,0-1.02-6.84,4.2-15C243.53,86.94,247.72,97.28,239.33,101.94z"/>
					<path class="st6" d="M243.57,129.61c0,0,0.3-1.55,4.49-9.92c1.48-2.95,3.59-5.18,3.59-5.18S258.04,120.52,243.57,129.61z"/>
				</g>
				<g>
					<path class="st6" d="M617.21,112.87c0,0,7.09-11.5-3.61-24.62s-15.25-18.19-14.34-28.97c0,0-6.51-7.11,1.65-17.94
						c0,0,6.72,17.01-1.07,18.01c0,0-2.44,9.01,8.87,21.89s13.92,19.53,9.13,31.71L617.21,112.87z"/>
					<path class="st6" d="M605.23,75.47c-0.1,0.13-4.36-12.63,9.5-18.58C614.72,56.9,614.94,63.13,605.23,75.47z"/>
					<path class="st6" d="M599.85,70.5c0,0-0.98-9.15-13.07-9.8C586.78,60.69,587.69,66.68,599.85,70.5z"/>
					<path class="st6" d="M608.36,83.03c0,0-3.13-6.12-13.63-7.64C594.73,75.39,598.48,85.12,608.36,83.03z"/>
				</g>
				<g>
					<path class="st6" d="M1332.82,130.29c0,0,12.42-7.73,8.39-25.62s-6.01-25,0.08-35.02c0,0-2.58-6.55,7.08-9.41
						c0,0-1.43,7.6-6.56,9.75c0,0-6.72,7.56-1.97,25.51s4.07,25.66-6.45,35.16L1332.82,130.29z"/>
					<path class="st6" d="M1336.36,79.86c0,0,2.6-3.49-1.04-8.73c-1.91-2.75-1.26-4.26-1.26-4.26S1328.21,72.68,1336.36,79.86z"/>
					<path class="st6" d="M1338.76,85.41c0,0,4.39,1.88,7.36-7.28C1346.12,78.13,1339.24,78.73,1338.76,85.41z"/>
				</g>
				<g>
					<path class="st6" d="M1472.07,122.64c0,0-2.51-20.48-10.46-29.17c-9.61-10.51-6.7-20.52-6.43-26.43c0,0-6.7-8.17-0.58-18.01
						c0,0,5.2,1,1.15,18.01c0,0-3.2,16.13,5.48,25.12c7.75,8.02,12.02,27.43,11.46,30.48H1472.07z"/>
					<path class="st6" d="M1456.73,82.6c-0.13-0.01-2.12-5.84,8.01-11.76C1464.74,70.83,1465.15,83.46,1456.73,82.6z"/>
					<path class="st6" d="M1454.07,76.74c0,0,0.67-7.56-10.9-11.13C1443.17,65.61,1444.46,76.69,1454.07,76.74z"/>
					<path class="st6" d="M1446.97,86.74c0,0,5.51-0.71,10.12,2.8c2.12,1.61,2.52,2.21,2.52,2.21S1448.71,95.23,1446.97,86.74z"/>
					<path class="st6" d="M1469.75,85.5c0,0-3.25-0.79-4.52,5.32c-0.94,4.56-0.23,5.71-0.23,5.71S1471.09,93.79,1469.75,85.5z"/>
				</g>
				<g>
					<path class="st6" d="M1642.72,138.32c0,0-8.66-10.36,0.04-24.89s12.49-20.19,10.04-30.73c0,0,7.11-13-4.2-17.52
						c0,0-4.75,2.33,3.64,17.67c0,0,3.71,8.57-5.64,22.94s-10.98,21.32-4.49,32.69L1642.72,138.32z"/>
					<path class="st6" d="M1651.08,94.43c0.15-0.06,0.65-7.96-13.92-11.86C1637.16,82.57,1640.94,98.35,1651.08,94.43z"/>
					<path class="st6" d="M1653.89,92c0,0,0.1-7.59,11.97-9.97C1665.86,82.02,1663.45,92.92,1653.89,92z"/>
					<path class="st6" d="M1642.14,111.54c0,0,2.77-6.38-3.42-11.61c-2.16-1.83-2.26-2.94-2.26-2.94S1634.07,109.25,1642.14,111.54z
						"/>
					<path class="st6" d="M1648.74,105.21c0,0-0.79-3.87,7.63-5.12c3.78-0.56,4.87-1.33,4.87-1.33S1662.76,105.8,1648.74,105.21z"/>
					<path class="st6" d="M1640.51,121.18c0,0-1.43-5.21,9.3-7.14C1649.81,114.05,1648.08,121.68,1640.51,121.18z"/>
				</g>
				<g>
					<path class="st6" d="M1878.36,204.6c0,0-6.26-20.8,3.63-36.45c8.72-13.79,9.66-19.98,11.89-30.21c0,0,9.84-6.58,7.12-22.4
						c0,0-10.49,1.88-7.84,22.2c0,0-1.49,13.73-10.41,27.73c-12.04,18.9-4.85,36.31-5.17,38.91L1878.36,204.6z"/>
					<path class="st6" d="M1884.65,165.18c0,0,8.6,2.38,13.86-6.56c1.83-3.12,1.69-2.97,1.69-2.97S1887.31,157.71,1884.65,165.18z"
						/>
					<path class="st6" d="M1883.13,134.63c0,0,4.05,5.73,4.61,12.94c0.5,6.5-0.69,8.47-0.69,8.47S1877.17,144.83,1883.13,134.63z"/>
					<path class="st6" d="M1878.75,170.37c0,0,0.13-4.33-3.42-11.61c-0.91-1.87-2.26-2.94-2.26-2.94S1870.68,168.09,1878.75,170.37z
						"/>
					<path class="st6" d="M1878.12,180.5c0,0-1.43-5.21,9.3-7.14C1887.42,173.36,1885.68,180.99,1878.12,180.5z"/>
				</g>
			</g>
		</g>
	</g>
	<g>
		<g>
			<defs>
				<rect id="SVGID_00000054234048182953804820000014452202131690553246_" y="-1.98" width="1920" height="396.47"/>
			</defs>
			<clipPath id="SVGID_00000176724635105145738800000016756339877181264797_">
				<use xlink:href="#SVGID_00000054234048182953804820000014452202131690553246_"  style="overflow:visible;"/>
			</clipPath>
			<path style="clip-path:url(#SVGID_00000176724635105145738800000016756339877181264797_);fill:#988575;" d="M680.45,98.81
				c0,0,3.91-6.11-9.74-13.6c0,0,12.88,1.54,15.85,11.89c0,0-2.64-17.17,7.05-20.7c0,0-6.64,5.52,0.94,12.83
				c0,0-0.33-4.29,5.45-6.44c0,0-4.26,2.98,3.74,12.05c0,0,3.03-2.97,1.38-8.09c0,0,3.62-0.56,6.28,5.94c0,0,1.16-18.94,15.69-20.7
				c0,0-11.06,3.03-3.14,22.84c0,0,5.61-3.63,4.29-9.57c0,0,5.94,0.99,7.76,9.57c0,0,4.13-9.57-2.15-15.52c0,0,6-0.17,9.08,6.44
				c0,0-2.59-14.26,4.46-14.7c0,0-7.76,0.99,1.65,25.76c0,0-0.5-17.01,7.27-17.34c0,0-5.45,11.39,6.77,15.35c0,0,4.79-16.01,0.99-18
				c0,0,6.94-1.16,3.47,18.99c0,0,12.22-4.46,12.43-13.76c0,0,6.06,2.2,7,10.18c0,0-1.32-9.25,4.4-11.45c0,0-3.08,9.3,12.33,11.89
				c0,0,1.43-7.16-2.2-7.93c0,0,2.94-0.25,5.66,2.08c0,0-3.01-7.36,2.27-10.88c0,0-4.4,6.33,6.17,14.09c0,0,6.17-0.88,0-7.49
				c0,0,8.81,5.61,7.05,12.27c0,0,1.32-13.15,7.49-13.59c0,0-3.52,6.17,0,8.81c0,0,4.18-1.76,3.3-4.84c0,0,2.23,3.96,0.12,6.61
				c0,0,10.45-6.11,5.38-13.21c0,0,6.28,0.06,8.37,13.43c0,0-3.52-15.19,5.94-18.94c0,0-5.07,4.84,0,8.81c0,0,0.88-3.96,3.3-3.96
				c0,0-4.18,6.83,4.84,11.23c0,0,2.42-2.2,0-5.28c0,0,4.84,1.32,4.84,8.59c0,0,1.54-7.27,5.06-7.49c0,0-2.09,5.94,6.06,7.54
				c0,0,2.86-0.72,3.3-8.81c0.43-7.94,5.39-11.94,7.16-11.72c0,0-6.17,4.62,0,21.36c0,0,6.61-1.1,5.5-8.37c0,0,1.87-0.28,3.3,8.15
				c0,0-0.33-13.27,18.28-24.22c0,0-10.68,10.62-2.42,17.83c0,0,5.17-7.62,2.42-10.79c0,0,4.84,0.22,3.74,16.29
				c0,0,5.94-22.02,15.41-23.34c0,0-4.94,2.64-2.64,10.63c0,0,2.64-0.49,2.64-5.56c0,0,2.42,4.84,1.1,10.35c0,0,4.29-3.36,3.63-5.56
				c0,0,1.87,4.65-0.33,6.53c0,0,5.72-9.56,9.69-9.34c0,0-6.17,1.46-5.06,16.07c0,0,5.06-5.5,5.06-10.79c0,0,3.08,4.62,1.76,12.33
				c0,0,5.28-2.9,4.84-8.27c0,0,2.42,4.09,2.2,8.05c0,0,1.32-20.04,10.57-23.56c0,0-3.63,6.22,4.84,15.51c0,0,4.18-2.96,3.3-7.36
				c0,0,4.84,1.76,5.28,11.01c0,0,2.86-16.74,10.13-20.04c0,0-8.26,7.98-2.86,22.46c0,0,2.2-4.88,6.83-6.07c0,0-3.3,3.92,1.54,6.29
				c0,0,2.2-7.49,0-11.23c0,0,4.18,1.54,4.84,6.39c0,0,3.96-6.17,3.74-14.97c-0.22-8.81,10.57-11.89,10.57-11.89
				s-11.23,13.43-8.81,31.71c0,0,5.7-2.08,3.96-10.8c0,0,4.62,7.72,2.64,13.01c0,0,6.17-5.5,5.06-12.11c0,0,7.27,6.88,7.49,9.96
				c0,0-1.32-22.95,9.91-26.7c0,0-7.71,5.72-1.1,20.48c0,0,3.89-3.7,1.1-11.45c0,0,3.85,3.42,6.17,13.87c0,0,3.3-20.26,14.75-22.02
				c0,0-9.47,9.74-7.05,18.11c0,0,3.85-8.81,7.05-11.72c0,0-4.84,6.88,1.54,18.72c0,0,7.27-8.15,4.62-13.21
				c0,0,4.84,9.03,3.96,14.75c0,0,1.31-12.11,0.11-15.41c-1.21-3.3-0.11-18.06,10.02-18.94c0,0-8.37,6.17-7.93,16.51
				c0,0,1.98-6.17,3.52-6.39c0,0-6.17,7.49-2.86,24.44c0,0,3.96-7.09,1.76-11.45c0,0,4.17,5.14,2.42,9.91c0,0,2.86-14.75,7.93-15.63
				c0,0-1.98,11.94,0,15.25c0,0,3.3-6.47,3.3-10.86c0,0,1.54,5.52,0,12.57c0,0,5.28-15.41,14.53-16.51c0,0-9.43,6.73,1.78,20.6
				c0,0,7.03-29.63,15.62-30.29c0,0-7.93,3.8-5.5,17.89c0,0,1.56-8.37,8.59-11.06c0,0-7.27,3.52,0,15.85c0,0,6.39-2.89,5.72-9.04
				c0,0,5.5,5.84,2.64,14.93c0,0,9.25-8.31,5.94-16.67c0,0,4.4,3.96,4.84,11.01c0,0,0.22-15.19,8.15-18.06c0,0-6.83,2.74,2.64,23.72
				c0,0,10.35-10.07,8.37-19.1c0,0,6.61,4.73,4.62,19.1c0,0,4.4-25.48,22.9-32.53c0,0-15.08,4.24-12.22,31.54
				c0,0,0.98-17.53,10.68-20.31c0,0-11.23,4.18,3.3,23.78c0,0,2.64-2.42-1.54-11.01c0,0,7.93,5.06,7.27,11.89
				c0,0,3.16-10.82,0.04-18.29c0,0,5.61,5.69,6.02,14.38c0,0,0.22-7.6,5.06-13.76c4.84-6.17,0.77-14.92,0.77-14.92
				s7.93,5.01,0.66,30.77c0,0,3.08-10.79,9.25-18.66c0,0-3.96,13.6,0,13.65c0,0,1.76-3.96,1.1-7.71c0,0,4.84,3,3.74,12.99
				c0,0,4.84-16.55,15.85-16.75c0,0-9.03,3.1-6.17,17.19c0,0,5.5-11.67,14.09-9.03c0,0-3.52,2.42,3.3,5.5c0,0,3.08,0-1.1-11.23
				c0,0,7.27,7.05,3.74,17.17c0,0,16.51-16.68,5.06-25.32c0,0,12.99,5.06,12.11,21.58c0,0-0.88-7.49,5.06-13.65
				c0,0-6.39,6.83,2.2,17.39c0,0,1.32-10.57,5.28-11.01c0,0-4.4,5,2.86,13.18c0,0,9.69-4.59,5.72-16.92c0,0,5.94,6.83,6.39,11.45
				c0,0,2.86-10.79-1.54-17.39c0,0,7.27,7.49,6.39,24.22c0,0,4.84-12.55,10.79-11.45c0,0-5.28,6.61,11.23,12.33c0,0-3.3-4.96,0-9.09
				c0,0,0.88,5.78,3.74,5.56c0,0,2.86-10.13,0-13.65c0,0,8.15,3.96,6.61,17.17c0,0,1.1-13.65,8.81-11.45c0,0-6.61,1.98-1.1,11.45
				c0,0,4.84-3.52,3.96-7.27c0,0,4.84,2.2,4.62,4.4c0,0,2.66-9.03,0.01-14.53c0,0,12.98,5.23,12.1,20.12c0,0,1.98-11.75,12.33-10.87
				c0,0-4.4,2.15,4.62,10.87c0,0,1.98-2.95,0-5.81c0,0,10.35,3.08,10.79,9.25c0,0,0.66-11.67-4.62-21.58c0,0,7.49,6.61,7.49,12.77
				c0,0-0.66-16.29,7.93-13.43c0,0-7.71,0.88,3.3,16.51c0,0,2.73-1.92-1.54-7.93c0,0,13.65-0.22,16.73,13.65
				c0,0-1.1-13.65,9.03-12.99c0,0-7.71,1.54,1.32,14.75c0,0,0.44-11.67,5.28-11.67c0,0-2.64,4.62,1.76,8.37c0,0,4.18-4.3,0.88-13.71
				c0,0,4.3,6.88,1.27,17.01c0,0,10.18-13.43,16.79-10.57c0,0-4.4,4.62,5.28,10.57c0,0,0-5.34,5.72-5.2c0,0-1.32,2.47,3.01,6.04
				c0,0,0.94-7.57,3.79-8.88c0,0-1.54,3.82,1.57,12.23c0,0,5.28-8.37-1.76-16.51c0,0,7.49,3.96,7.05,16.51
				c0,0-2.42-19.38,8.81-19.82c0,0-7.71,1.98,1.54,22.9c0,0,2.75-8.46,10.58-10.67c0,0-2.09,2.64,0.97,4.5c0,0,4.64-6.37,8.82-5.82
				c0,0-3.95,1.91,2.08,10.44c0,0,7.05-5.94,3.3-14.09c0,0,5.94,3.52,6.17,9.03c0,0,3.3-1.6,2.42-5.86c0,0,6.32,6.41,3.3,12.47
				c0,0,2.42-9.74,8.37-12.47c0,0-6.17,6.08-2.2,17.53c0,0,2.42-2.86,2.2-7.49c0,0,7.5,3.19,6.83,10.73c0,0,7.7-11.61,5.06-17.56
				c0,0,9.25,5.72,9.91,11.67c0,0,1.32-6.17,5.5-6.39c0,0-3.98,4.34,0,9.91c0,0,3.52-2.64,2.64-5.28c0,0,7.93,2.31,8.37,7.65
				c0,0-1.54-10.07,3.96-10.73c0,0-1.54,3.96,1.98,6.61c0,0,4.18-0.66,3.3-3.74c0,0,3.74,1.54,3.08,4.62c0,0,2.14-5.06,0.08-9.25
				s7.41-7.27,7.41-7.27s-5.19,2.64-1.16,11.67s2.49,8.09,2.49,8.09s-0.66-10.29,5.5-10.51c0,0-4.18,0.44,0,12.99
				c0,0,6.61-6.17,4.4-14.97c0,0,6.83,10.79-0.66,19.16c0,0,10.79-4.4,9.69-10.13c0,0,11.75,6.61,9.07,12.99
				c0,0,1.5-13.21,10.31-15.85c0,0-5.28,5.06,2.42,14.53c0,0,3.74-3.08,1.98-7.27c0,0,9,9.69,8.15,11.89c0,0,1.76-16.73,13.21-16.07
				c0,0-3.3,1.1-1.98,4.84c0,0,2.2-3.08,6.39-0.22c0,0-4.45,0-8.87,7.27c0,0,7.53,0.81,8.87-2.64c0,0,0.06,4.84-4.4,6.83
				c0,0,13.21-2.86,10.57-10.79c0,0,4.4,1.1-0.66,9.69c0,0,9.03-3.52,9.25-10.57s9.03-9.69,9.03-9.69s-6.39,1.98-6.61,18.06
				c0,0,6.83-4.84,6.61-9.91c0,0,2.35,8.12-5.5,14.31c0,0,9.69,0,10.13-5.06c0,0,2.2,5.29-1.54,9.47c0,0,10.35-7.49,8.15-16.73
				c0,0,8.15,4.4,8.15,16.73c0,0,3.74-9.91,7.05-9.69c0,0-4.18,2.86,5.94,15.19c0,0,3.08-3.74,0-7.93c0,0,14.53,0.22,17.39,14.31
				c0,0-0.22-14.75-5.94-20.26c0,0,7.71,2.86,9.03,9.47c0,0,1.76-8.81,8.59-7.71c0,0-4.62,4.18,2.42,18.5c0,0,1.76-5.72,0-10.35
				c0,0,6.61,4.4,6.17,12.33c0,0,3.08-13.87,16.29-13.43c0,0-7.27,1.98-4.4,8.59c0,0,2.2-2.86,2.2-4.4c0,0,1.59,0.45,0,9.25
				c0,0,8.15,2.64,10.35-5.06c0,0,3.96,6.39-1.32,12.33c0,0,7.05-10.57,15.19-8.59c0,0-5.94,2.64-2.42,11.67c0,0-2.2-3.52,2.42-6.61
				c0,0-3.52,7.05,6.17,11.01c0,0,4.62-2.42,3.52-12.55c0,0,3.74,5.06,3.52,8.37c0,0-1.08-7.49,0.01-12.99s3.95-7.27,3.95-7.27
				s-4.84,7.05,0,18.72c0,0,2.86,0.88,2.2-5.94c0,0,5.68,8.1,2.86,13.43c0,0,5.72-10.13,13.65-7.27c0,0-11.01,2.86-5.28,14.31
				c0,0,0.66-9.25,5.28-7.93c0,0-2.35,6.83,2.86,10.79c0,0,7.93,0.88,6.17-10.57c0,0,3.96,3.74,3.3,12.33c0,0,10.35-1.54,8.81-12.55
				c0,0,3.3,3.52,2.42,7.27c0,0,1.32-6.61,6.61-8.15c0,0-4.4,1.76-3.08,15.19c0,0,5.72,1.76,5.72-5.5c0,0,5.72,7.05,3.08,12.99
				c0,0,9.03-2.86,7.71-10.13c0,0,3.3,1.76,2.86,5.94c0,0,5.94-8.37,12.11-5.5c0,0-10.27,1.57-9.69,11.45c0,0,3.74-6.17,9.69-3.08
				c0,0-5.58,0.7-3.96,8.81c0,0,10.13,4.84,10.79-2.64c0,0,2.66,3.07,0,9.03c0,0,5.94-10.13,9.03-10.13c0,0-1.76,3.74,0,12.77
				c0,0,3.96,1.76,4.18-8.59c0,0,2.42,12.77-5.28,16.95c0,0,5.72-0.22,7.49-6.61c0,0,2.2,6.61-1.98,11.67c0,0,6.61-8.81,11.89-7.71
				c0,0-5.06,2.86-6.17,5.5c0,0,7.93-3.74,10.35-0.66c0,0-7.27-3.96-7.93,8.81c0,0,7.05,0.22,6.83-3.08c0,0,6.33,154.71-4.43,164.62
				H0c0,0-10.15-151.85-9.16-166.55c0,0,2.81,10.9,10.9,9.91c0,0-4.54-4.29-3.14-9.58c0,0,0.33,3.14,2.81,2.15
				c0,0,2.15-3.96-3.14-8.26c0,0,6.94,0.5,7.43,3.3c0,0-2.81-6.28-1.16-11.23c0,0,0,5.28,1.82,6.28c0,0-1.82-5.12,0.33-6.77
				c0,0,0,10.4,8.26,9.41c0,0,2.48-3.3-0.5-4.95c0,0,4.46-2.48,7.76,0.17c0,0-1.65-8.92-5.61-12.22c0,0,5.12,0.83,8.42,5.45
				c0,0-2.31-5.78,1.65-7.43c0,0-1.49,4.46,6.11,5.61c0,0,0.99-5.28-4.13-11.89s-2.97-8.26-2.97-8.26s0.66,9.41,13.21,14.53
				c0,0-4.95-4.46-3.3-9.41c0,0,1.49,5.61,6.77,6.44c0,0,1.65-1.65-0.99-3.96c0,0,5.28,1.16,7.6,7.6c0,0,2.81-10.4-3.3-15.03
				c0,0,9.91,4.84,13.05,6.66c0,0,5.12-17.06,0.99-19.87c0,0,3.96-1.32,4.13,9.74c0,0,1.16-5.28,4.13-5.12c0,0-4.13,5.61,3.14,7.93
				c7.27,2.31,0.33-5.61,0.33-5.61s3.8,0,6.77,4.62c0,0,2.31-4.29-2.31-9.91c0,0,11.06-0.17,17.01,5.12c0,0-5.94-7.76-3.63-12.39
				c2.31-4.62,1.49-8.42,1.49-8.42s2.48,4.79,1.49,13.05c-0.99,8.26,13.54,3.3,13.54,3.3s-9.91,0.99-7.76-5.12
				c0,0,1.26,1.99,4.9,1.65c0,0-2.59,1.16-2.09-8.75c0,0,1.82,4.62,5.94,5.12c0,0-1.82-6.94-4.46-8.92c0,0,5.45,0.5,10.24,13.54
				c0,0-4.62-10.73,3.3-15.19c0,0,3.63,6.77,9.41,7.1c0,0,3.63-3.14,0.99-5.94c0,0,5.12,0.33,5.61,2.31c0,0,0.66-3.3-3.3-6.77
				c0,0,6.61-0.17,13.38,8.09c0,0-2.81-5.61,0.66-8.59c0,0-1.49,5.28,3.3,5.45c0,0-0.5-2.81,2.64-3.96c0,0-0.99,3.47,2.81,4.13
				c0,0,0.83-3.47-2.48-10.9c-3.3-7.43-0.83-10.27-0.83-10.27s1.32,9.66,6.11,13.35c0,0-1.49-6.72,1.98-8.7
				c0,0-4.46,7.43,5.94,12.55c0,0,4.46-1.82,0.5-6.94c0,0,7.6,1.16,11.56,9.08c0,0-4.46-7.27,1.82-13.71c0,0-0.17,5.5,5.94,7.71
				c0,0,1.49-6.88-2.31-12.17c0,0,2.92,0.66,6.53,3.13c0,0-2.29-3.46,2.55-7.92c0,0-2.48,5.12,0.99,7.27c0,0-0.33-2.86,4.46-3.66
				c0,0-6.94,4.49,3.47,10.43c0,0,1.32-5.12,0.17-7.27c0,0,9.29,0,11.67,3.63c0,0-0.16-4.63,2.04-6.8c0,0,3.3,6.47,10.07,7.46
				c0,0-2.31-10.57-6.11-13.54c0,0,5.61-0.33,8.59,5.12c0,0-0.99-5.61,2.81-5.94c0,0-4.13,5.78,4.62,10.73c0,0-3.14-5.94,2.48-7.1
				c0,0-4.13,2.97,6.11,6.94c0,0,2.15-5.94-0.5-9.58c0,0,6.11,2.97,6.61,10.73c0,0,4.95-9.58,1.65-15.69c0,0,3.63,0.66,4.79,4.62
				c0,0,0.99-5.78,3.8-5.94c0,0-3.96,2.64-1.32,10.24c0,0,3.47-6.61,9.91-6.44c0,0-4.29,2.48,7.76,6.11c0,0,1.49-4.62-2.81-11.06
				c0,0,11.06,1.16,15.03,11.23c0,0,2.81-0.5-1.82-12.22c0,0,2.31,0.99,3.63,4.46c0,0-2.64-7.93-0.99-12.22c0,0-0.66,3.96,1.65,5.61
				c0,0,3.8-5.45,8.09-4.46c0,0-8.09,1.65-3.96,9.74c0,0,3.21-1.05,2.48-4.95c0,0,1.16,0,3.63,3.8c0,0-1.16-6.77,3.3-8.42
				c0,0-3.8,3.96,5.61,14.37c0,0,3.14-7.1,0.99-9.25c0,0,5.12,1.32,6.94,3.96c0,0,1.16-8.75-2.15-11.39c0,0,10.24,0.5,14.86,6.61
				c0,0-3.63-9.41,2.31-8.09c0,0-3.3,0.5,2.97,6.28c0,0,0.99-1.82,0.66-3.96c0,0,2.97,0.5,4.79,7.6c0,0,2.97-4.29,1.82-8.09
				c0,0,3.14,3.8,2.48,9.74c0,0,2.81-9.08,8.09-9.41c0,0-2.31,2.97,3.14,5.61c0,0,1.82-10.9,4.79-10.9c0,0-1.65,2.81,0.17,5.61
				c0,0,3.3-0.99,2.31-5.78c0,0,2.97,4.95-0.5,12.72c0,0,5.28-6.61,5.12-13.05c0,0,1.49-1.32,1.65,7.27c0,0,0.99-12.39,6.61-12.22
				c0,0-4.79,3.96,5.28,14.53c0,0,8.26-9.08,6.11-16.02c0,0,8.59,1.32,9.74,9.74c0,0,5.12-6.61,3.47-9.08c0,0,3.14,3.14,0.99,11.56
				c0,0,4.79-18.17,14.2-18.17c0,0-8.92-0.99-4.46,21.8c0,0,3.14-20.15,11.89-18.66c0,0-8.59,2.31-2.48,12.06
				c0,0,2.81-4.13,2.64-7.27c0,0,1.98,5.45,0.33,11.23c0,0,3.96-15.19,10.07-15.36c0,0-4.79,5.45,8.59,11.72c0,0-4.62-14.53-9.41-18
				c0,0,7.27,3.3,11.72,13.38c0,0,1.98-4.95-0.5-10.57c0,0,3.8,2.15,5.78,6.94c0,0,1.42-12.06,10.53-10.9c0,0-8.62,0.66,0,15.69
				c0,0,5.68-6.44,2.84-11.06c0,0,6.11,1.16,9.41,10.73c0,0-3.63-18.83,6.11-18.99c0,0-7.1,2.64,5.45,14.53c0,0,2.81-2.81-0.5-7.76
				c0,0,8.09,2.31,9.08,11.06c0,0-1.32-13.54,1.16-16.18c0,0-0.66,1.98,1.16,5.78c0,0,2.64-3.96,0.5-9.08c0,0,4.46,3.3,2.81,13.87
				c0,0,9.08-6.61,8.59-12.55c0,0,3.8,4.79,0.99,13.54c0,0,5.61-12.72,13.05-11.39c0,0-7.93,3.14,3.96,11.06c0,0,1.49-4.95-0.5-7.1
				c0,0,3.47,0.5,4.46,3.96c0,0-1.82-13.21,4.13-14.7c0,0-3.96,0.99,5.12,13.21c0,0-4.95-7.6,1.16-12.22c0,0-3.96,4.95,4.62,12.22
				c0,0,6.44-9.58,2.15-18.83s0.17-11.72,0.17-11.72s-2.42,14.81,9.47,24.88c0,0,0.28-10.51-0.88-15.63c0,0,2.15,0.17,2.15,10.4
				c0,0,0.83-2.81,4.62-2.64c0,0-5.28,0.5-0.99,11.39c0,0,3.47-12.72,9.91-11.06c0,0-4.68,8.92,7.87,15.03c0,0,5.17-6.77,0.72-15.03
				c0,0,8.2,2.92,8.53,10.84c0,0,1.87-13.32,7.32-17.28c0,0-2.15,5.61,0.66,10.57c0,0,4.29-1.16,3.96-6.11c0,0,1.71,8.37-0.94,14.81
				c0,0,3.41-15.63,13.32-15.14c0,0-0.72,9.41,7.05,14.86c0,0,0.06-16.02-1.6-20.31c0,0,8.04,12.55,7.71,18.33
				c0,0,3.49-11.23,3.49-17.67c0,0,6.7,7.1,5.05,11.56c0,0,4.07-14.2,6.22-11.72c0,0-4.07,6.11,1.71,13.04c0,0,4.24-6.77,3.91-10.07
				c0,0,3.3,7.93-0.66,12.72c0,0,9.02-6.28,9.02-9.41c0,0,3.53,4.62,1.22,8.92c0,0,3.32-12.06,9.25-12.72c0,0-3.63,4.45-0.83,10.56
				c0,0,4.29,2.15,3.47-3.63c0,0,4.62,2.31,4.79,5.45c0,0-0.33-3.47,2.15-5.12C671.7,91.54,673.68,96.08,680.45,98.81z"/>
		</g>
	</g>
</g>
<rect y="254.36" class="st4" width="1920" height="972.12"/>
</svg>
