<?xml version="1.0" encoding="utf-8"?>
<!-- Generator: Adobe Illustrator 30.0.0, SVG Export Plug-In . SVG Version: 9.03 Build 0)  -->
<svg version="1.1" id="レイヤー_1" xmlns="http://www.w3.org/2000/svg" xmlns:xlink="http://www.w3.org/1999/xlink" x="0px"
	 y="0px" viewBox="0 0 196.89 204.33" style="enable-background:new 0 0 196.89 204.33;" xml:space="preserve">
<style type="text/css">
	.st0{fill:#F3F2EE;}
	.st1{fill:#B7AA9E;}
	.st2{fill:none;stroke:#988575;stroke-width:1.26;stroke-linecap:round;stroke-linejoin:round;stroke-miterlimit:10;}
	.st3{fill:#988575;stroke:#988575;stroke-width:1.26;stroke-linecap:round;stroke-linejoin:round;stroke-miterlimit:10;}
</style>
<g>
	<path class="st0" d="M106.95,185.96c-9.88,11.27-9.17,26.67-0.64,13.06c8.93-14.26,13.9-8.82,23.51-15.54
		c29.94-20.94,28.87-17.69,33.14-45.39c6.39-41.44,7.27-10.23,21.49-25.79s18.56-23.75,0.64-24.71
		c-27.06-1.45-39.04,5.61-58.09,26.59C116.66,125.55,137.27,151.37,106.95,185.96z"/>
	<path class="st0" d="M78.07,186.8c10.49,5.7,32.14,7.67,50.08-90.46C144.39,7.45,22.17-0.36,5.81,0.01
		c-15.81,0.36,6.03,29.3,2.6,53.22c-3.9,27.16,7.32,66.86,32.01,91.44S72.04,183.52,78.07,186.8z"/>
</g>
<g>
	<g>
		<path class="st1" d="M70.39,119.58c7.71-5.83,18.7-12.79,32.22-17.78c4.23,0.61,8.29,0.93,12.18,0.93
			c13.92,0,25.61-3.92,34.88-11.71c20.13-16.93,20.63-45.76,20.64-46.98l0.22-19.41l-3,3.45c-0.31-4.41-1.57-9.07-4.54-13.38
			c-7.83-11.34-24.55-15.94-49.66-13.68L98.96,2.32l-0.2,14.21c0.07,0.01,7.03,0.85,14.49,3.01c13.66,3.97,18.63,11,23.44,17.8
			c2.29,3.23,4.74,6.68,8.05,9.32c-31.62,10.31-44.49,33.45-48.34,42.2c-10.11,3.84-18.85,8.6-26.06,13.28
			c0.29-19.57,1.77-41.94,5.24-66.6c5.56-10.56,12.93-15.02,16.07-16.52c0.56-0.24,1.14-0.48,1.73-0.71L88.65,4.84
			c-0.29,0.09-1.34,0.44-2.92,1.18c-4.33,1.91-7.91,4.09-10.87,6.38l-9.64-2.14c-0.64,2.44-9.85,38.28-11.68,84.5
			c-4.92-4.81-12.42-9.31-23.86-11.93l-15.26-3.49l7.36,13.82c0.02,0.03,1.69,3.18,2.6,6.34c3.65,12.66,13.11,15.81,20.01,18.11
			c1.59,0.53,3.11,1.06,4.49,1.65c-0.99,0.99-1.56,1.61-1.68,1.75l6.38,5.78c0.98,21.9,4.08,44.82,10.66,66.81l3.07,10.26l8.29-6.77
			l3.51-2.91l-1.11-4.4C77.56,188.03,71.28,162.3,70.39,119.58z M136.45,15.57c7.18,1.18,12.23,3.61,14.74,7.21
			c2.56,3.67,2.43,8.37,1.71,12.07c-1.24-1.19-2.61-3.02-4.55-5.77C145.46,24.99,141.98,20.07,136.45,15.57z M150.04,59.95
			c1.21-0.38,2.36-0.79,3.45-1.23c-2.11,7.17-5.99,15.49-13.09,21.43c-7.01,5.86-16.29,8.63-27.7,8.26
			C117.96,79.74,129.04,66.53,150.04,59.95z"/>
		<path class="st1" d="M173.84,163.24c0,0,0.13-0.04,0.39-0.07c-0.05,0-3.82,0.27-9.95-4.42c-22.13-16.93-38.85-28.19-49.69-33.47
			c-3.35-1.63-6.92-3.11-10.17-3.44c-8.58-5.69-13.7-5.96-15.59-5.79l1.34,14.22c-0.48,0.05-0.74,0.02-0.74,0.02
			c0.01,0,0.28,0.04,0.83,0.2l-0.84,0.78l9.35,4.04c0.82,0.82,3.88,4.3,8.36,14.65c5.36,12.38,16.47,22.43,30.48,27.58
			c6.6,2.42,13.48,3.63,20.13,3.63c7.46,0,14.62-1.52,20.74-4.54L173.84,163.24z M142.53,164.13c-10.01-3.67-17.94-10.56-21.9-18.97
			c7.06,4.48,16.76,11.17,29.97,21.13C147.91,165.83,145.2,165.11,142.53,164.13z"/>
	</g>
	<g>
		<g>
			<path class="st2" d="M52.5,125.81c0,0,18.56-20.51,49.35-31.34"/>
			<path class="st2" d="M89.51,123.16c0,0,4.1-0.39,12.83,5.91"/>
			<path class="st2" d="M155.71,53.17c1.8-3.73,2.55-6.78,1.75-9.14"/>
		</g>
		<g>
			<path class="st3" d="M55.75,114.87c0,0,0.39-18.65-27.67-25.07c0,0,2.02,3.75,3.16,7.72C35.15,111.06,47.48,109.12,55.75,114.87z
				"/>
			<path class="st3" d="M72.13,12.09c0,0-25.59,97.5-1.05,179.47C71.1,191.57,52.5,120.2,72.13,12.09z"/>
			<path class="st3" d="M67.97,34.83c0,0,1.8-14.98,22.82-23.17C90.79,11.66,76.64,16.09,67.97,34.83z"/>
			<path class="st3" d="M157.46,44.02c0,0,20.16-41.6-43.49-35.88c-10.91,0.98-14.37,1.29-14.37,1.29s7.47,0.87,15.65,3.25
				C144.62,21.22,141.06,43.54,157.46,44.02L157.46,44.02"/>
			<path class="st3" d="M102.33,129.07c0,0,4.35,1.88,11.36,18.05c10.13,23.4,41.8,32.88,61.63,23.1c0,0-6.11,1.29-15.37-5.81
				C107.5,124.3,102.33,129.07,102.33,129.07L102.33,129.07"/>
			<path class="st3" d="M101.85,94.48c0,0,9.7-29.96,46.05-41.34c10.02-3.14,15.26-9.16,15.26-9.16S162.61,104.47,101.85,94.48"/>
		</g>
	</g>
</g>
</svg>
