<?xml version="1.0" encoding="utf-8"?>
<!-- Generator: Adobe Illustrator 30.0.0, SVG Export Plug-In . SVG Version: 9.03 Build 0)  -->
<svg version="1.1" id="レイヤー_1" xmlns="http://www.w3.org/2000/svg" xmlns:xlink="http://www.w3.org/1999/xlink" x="0px"
	 y="0px" viewBox="0 0 308.02 93.08" style="enable-background:new 0 0 308.02 93.08;" xml:space="preserve">
<style type="text/css">
	.st0{fill:#F3F2EE;}
</style>
<g>
	<g>
		<path class="st0" d="M36.34,16.51c0,8.28-6.86,14.5-16.04,14.5c-3.43,0-6.86-0.89-9.53-2.31c0.06,7.04,0.12,13.43,0.18,15.5
			c0.06,1.18,0.83,1.48,6.15,1.95c1.24,0.12,1.3,1.36,0,1.36C12.96,47.4,6.16,47.4,2.31,47.46c-1.48,0.06-1.54-1.3-0.12-1.36
			c3.73-0.24,4.73-0.65,4.73-1.89c0.18-6.93,0.13-30.36-0.05-37.7c0-1.18-1.18-1.72-4.5-1.89c-1.42-0.06-1.42-1.6,0.06-1.54
			c3.49,0.06,9.11,0.24,13.2,0.12c1.12-0.06,3.2-0.12,3.96-0.12C30.83,3.08,36.34,9.06,36.34,16.51z M32.13,16.39
			c0-6.63-5.27-11.48-12.54-11.6c-1.54,0-3.55,0-4.5,0.06c-3.79,0.35-4.32,0.59-4.32,1.77v18.82c2.07,2.31,5.5,3.61,9.53,3.61
			C27.22,29.06,32.13,23.73,32.13,16.39z"/>
		<path class="st0" d="M46.92,31.25c0-9.76,7.22-17.04,16.86-17.04c9.65,0,16.86,7.28,16.86,17.04s-7.22,17.04-16.86,17.04
			S46.92,41.01,46.92,31.25z M76.39,29.41c-1.18-8.64-7.4-14.32-14.68-13.25c-7.21,1-11.71,8.28-10.47,16.98
			c1.18,8.58,7.4,14.26,14.62,13.2C73.08,45.33,77.57,38.11,76.39,29.41z"/>
		<path class="st0" d="M114.79,17.4c0,1.6-1.66,0.83-4.38,0.83c-2.49,0-5.74,0.59-10.18,4.85c-0.12,6.69-0.18,15.21,0.12,21.07
			c0.06,1.01,1.12,1.54,3.61,1.78c1.12,0.12,1.12,1.54,0,1.48c-3.67-0.12-8.05-0.12-11.18,0c-1.3,0.06-1.3-1.48-0.06-1.54
			c2.78-0.12,3.67-0.65,3.73-1.78c0.24-3.96,0.24-19.23-0.12-25.27c-0.06-1.06-1.77-0.89-5.15-0.71c-1.18,0.06-1.3-1.6-0.06-1.72
			c2.78-0.24,5.68-1.01,8.46-1.77c1.18-0.3,1.3,0.71,1.06,1.48c-0.18,0.59-0.35,1.3-0.35,1.89c0,1.07-0.06,2.31-0.06,3.61
			c2.31-3.55,4.79-5.74,7.46-6.51C111.06,14.09,114.79,15.27,114.79,17.4z"/>
		<path class="st0" d="M139.64,16.75c-4.08,0.18-6.39,0.77-6.69,1.66V40.6c0,4.32,1.66,6.27,5.8,6.69c0.47,0.06,0.77,0.41,0.77,0.77
			c0,0.41-0.29,0.71-0.77,0.71c-6.27,0-9.7-2.96-9.7-8.52c0.06-3.96,0-14.79,0-22.84c-2.31,0-4.38,0-5.68,0.06s-1.36-1.48-0.06-1.54
			c3.91-0.24,5.33-0.59,5.74-1.3c0-2.78-0.06-4.97-0.06-6.04c-0.06-1.6,2.19-1.36,2.9-3.91c0.3-1.06,1.18-0.95,1.18,0.24
			c-0.06,2.84-0.06,6.51-0.06,10.41c2.37,0,5.27,0,6.57-0.06C140.7,15.21,140.7,16.69,139.64,16.75z"/>
		<path class="st0" d="M170.58,7.93c-1.6,1.12-1.18-5.21-5.86-5.21c-1.78,0-3.25,3.37-3.37,7.99c-0.06,0.95-0.06,2.6-0.12,4.62
			c2.54,0,5.44,0,6.75-0.06c1.18,0,1.18,1.48,0.06,1.54c-4.08,0.12-6.45,0.71-6.81,1.6c-0.12,8.34-0.12,20.59,0.12,25.92
			c0.06,0.83,1.06,1.3,3.85,1.6c1.07,0.12,1.07,1.54-0.06,1.48c-3.67-0.12-8.7-0.06-11.83,0c-1.3,0.06-1.3-1.42-0.06-1.54
			c2.54-0.18,4.26-0.47,4.26-1.78c0.06-3.25,0.06-17.93,0-26.69c-2.31,0-4.44,0.06-5.74,0.12c-1.3,0-1.36-1.48-0.06-1.6
			c4.2-0.24,5.56-0.59,5.8-1.42v-3.37c0-5.21,3.85-9.47,7.4-9.47c2.31,0,3.96,0.47,5.27,1.72C171.82,4.85,172,6.93,170.58,7.93z"/>
		<path class="st0" d="M180.22,31.25c0-9.76,7.22-17.04,16.87-17.04c9.64,0,16.86,7.28,16.86,17.04s-7.22,17.04-16.86,17.04
			C187.44,48.29,180.22,41.01,180.22,31.25z M209.69,29.41c-1.18-8.64-7.4-14.32-14.67-13.25c-7.22,1.01-11.72,8.28-10.47,16.98
			c1.18,8.58,7.4,14.26,14.62,13.2C206.38,45.33,210.87,38.11,209.69,29.41z"/>
		<path class="st0" d="M225.96,46.04c2.49-0.18,3.67-0.53,3.73-1.83c0.06-3.91-0.06-30.77-0.18-39.11c0-1.06-1.78-1.01-5.09-0.83
			c-1.12,0.06-1.24-1.36-0.06-1.48c2.72-0.3,5.86-1.01,8.52-1.77c0.83-0.24,1.18,0.3,0.95,1.36c-0.12,0.59-0.3,1.24-0.3,1.89
			c-0.18,4.5-0.24,32.66,0.06,39.94c0.06,0.95,0.77,1.54,3.67,1.83c1.01,0.12,1.01,1.42-0.06,1.36c-3.55-0.12-8.17-0.06-11.18,0
			C224.77,47.46,224.77,46.1,225.96,46.04z"/>
		<path class="st0" d="M251.1,45.86c2.78-0.18,3.79-0.65,3.79-1.78c0.06-3.96,0.12-19.7-0.18-25.74c-0.06-1.12-1.78-0.95-5.15-0.77
			c-1.18,0.06-1.3-1.54-0.06-1.66c2.78-0.3,5.68-1.01,8.46-1.78c1.18-0.35,1.24,0.65,1.07,1.42c-0.12,0.59-0.3,1.3-0.3,1.95
			c-0.18,6.75-0.29,19.11,0,26.57c0.06,1.06,1.18,1.6,3.67,1.78c1.12,0.12,1.12,1.6-0.06,1.54c-3.61-0.12-8.05-0.06-11.18,0
			C249.86,47.46,249.86,45.92,251.1,45.86z M253.17,3.85c0-1.66,1.36-2.96,3.02-2.96s3.02,1.3,3.02,2.96c0,1.6-1.36,2.96-3.02,2.96
			S253.17,5.45,253.17,3.85z"/>
		<path class="st0" d="M273.58,31.25c0-9.76,7.22-17.04,16.86-17.04s16.86,7.28,16.86,17.04s-7.22,17.04-16.86,17.04
			S273.58,41.01,273.58,31.25z M303.05,29.41c-1.18-8.64-7.4-14.32-14.68-13.25c-7.22,1.01-11.72,8.28-10.47,16.98
			c1.18,8.58,7.4,14.26,14.62,13.2C299.74,45.33,304.23,38.11,303.05,29.41z"/>
	</g>
	<g>
		<path class="st0" d="M52.6,81.19c0,3.4-2.72,6.14-5.99,6.14c-1.69,0-4.03-0.09-5.63-0.02c-0.56,0.02-0.56-0.56-0.02-0.61
			c1.13-0.09,1.37-0.25,1.37-0.68c0.07-2.68,0.04-12.24-0.02-14.79c-0.02-0.38-0.27-0.43-2-0.29c-0.47,0.02-0.52-0.61-0.02-0.65
			c1.08-0.11,2.21-0.38,3.31-0.7c0.34-0.09,0.47,0.16,0.38,0.56c-0.25,1.12-0.16,3.6-0.18,5.24c0.72-0.32,1.55-0.5,2.59-0.5
			C50.26,74.91,52.6,77.23,52.6,81.19z M51.05,81.5c0-3.26-2.18-5.87-4.93-5.87c-0.88,0-1.71,0.29-2.32,0.63
			c-0.04,2.79-0.02,8.19,0.07,9.86c0.02,0.41,0.05,0.45,0.81,0.5c0.54,0.02,1.26,0.07,2,0.07C48.8,86.68,51.05,84.58,51.05,81.5z"/>
		<path class="st0" d="M69.27,75.65c-0.9,0.07-1.31,0.27-1.62,0.88c-1.6,3.17-5.47,11.34-6.86,14.25c-0.38,0.79-0.58,1.22-1.08,1.19
			c-0.61-0.05-1.49-0.05-2.05,0c-0.5,0.02-0.5-0.54-0.02-0.59c0.79-0.07,1.85-0.23,2.3-1.12c0.47-0.97,1.22-2.52,2.07-4.25
			c-0.99-2.52-2.97-7.49-3.89-9.54c-0.23-0.5-0.72-0.74-1.69-0.81c-0.47-0.02-0.45-0.59,0.02-0.56c1.17,0.05,2.86,0.05,4.19,0
			c0.43-0.02,0.43,0.52,0.02,0.56c-0.88,0.07-1.24,0.31-1.1,0.7c0.7,1.82,2.23,5.58,3.24,7.99c1.44-3.02,2.97-6.23,3.8-8.01
			c0.2-0.45-0.04-0.61-1.19-0.68c-0.4-0.02-0.4-0.59,0.02-0.56c1.35,0.05,2.7,0.02,3.83,0C69.75,75.06,69.75,75.63,69.27,75.65z"/>
		<path class="st0" d="M93.37,87.11c-1.4-0.02-1.22,0.97-2.03,0.5c-3.53-2.05-4.93-4.97-5.83-8.15h-0.07
			c-1.19,0-2.36-0.27-3.31-0.74c0,3.17,0.02,6.35,0.04,7.23c0.02,0.54,0.36,0.7,2.05,0.85c0.47,0.04,0.47,0.52-0.02,0.52
			c-1.55-0.04-3.85-0.04-5.31,0c-0.56,0-0.56-0.5-0.02-0.54c1.4-0.07,1.8-0.23,1.8-0.7c0.07-2.61,0.07-11.55,0-14.31
			c-0.02-0.43-0.54-0.65-1.73-0.72c-0.54-0.02-0.52-0.61,0.02-0.58c1.71,0.07,4.52,0,6.41,0c3.76,0,5.92,2,5.92,4.5
			c0,2.3-2.32,4.25-5.27,4.48c1.28,2.86,3.04,5.4,7.43,7.29C93.73,86.84,93.69,87.11,93.37,87.11z M89.73,74.93
			c0-2.09-1.96-3.8-4.32-3.83c-0.77,0-1.73-0.02-2.21,0c-0.92,0.04-1.04,0.13-1.04,0.68c-0.02,1.08-0.02,3.31-0.02,5.76
			c0.81,0.79,1.98,1.26,3.26,1.26C87.7,78.8,89.73,77.2,89.73,74.93z"/>
		<path class="st0" d="M96.5,81.16c0-3.71,2.75-6.48,6.41-6.48c3.67,0,6.42,2.77,6.42,6.48c0,3.71-2.75,6.48-6.42,6.48
			C99.24,87.65,96.5,84.88,96.5,81.16z M107.71,80.47c-0.45-3.29-2.81-5.45-5.58-5.04c-2.75,0.38-4.46,3.15-3.98,6.46
			c0.45,3.26,2.81,5.42,5.56,5.02C106.45,86.52,108.16,83.77,107.71,80.47z"/>
		<path class="st0" d="M126.09,87.31c-0.7-0.04-1.71-0.02-2.12,0c-0.45,0.04-0.54-0.25-0.54-0.54c0.02-1.04,0.02-6.5,0.02-7.25
			c-0.04-2.48-1.4-3.96-3.56-3.96c-0.83,0-2.18,0.56-3.11,1.58c-0.04,2.66-0.07,6.48,0.02,8.91c0.02,0.41,0.45,0.61,1.4,0.68
			c0.43,0.04,0.43,0.61-0.02,0.58c-1.37-0.04-3.06-0.02-4.23,0c-0.5,0.02-0.52-0.56-0.02-0.58c1.06-0.07,1.42-0.25,1.42-0.68
			c0.04-1.51,0.07-7.49-0.07-9.79c-0.02-0.43-0.65-0.36-1.94-0.29c-0.47,0.02-0.54-0.58-0.05-0.63c1.08-0.11,2.18-0.38,3.22-0.67
			c0.36-0.09,0.5,0.11,0.41,0.54c-0.04,0.23-0.11,0.5-0.11,0.74v0.2c0.92-0.77,2.25-1.22,3.33-1.22c3.06,0,4.77,1.53,4.77,4.32
			c0,1.28-0.04,4.5,0.04,6.93c0.02,0.34,0.31,0.5,1.17,0.56C126.63,86.77,126.63,87.35,126.09,87.31z"/>
		<path class="st0" d="M130.09,81.21c0-3.69,2.57-6.46,5.94-6.46c2.18,0,4.39,1.64,4.41,3.83c0.02,0.74-0.32,1.19-1.06,1.35
			c-1.98,0.41-5.27,0.99-7.27,1.4c-0.34,0.07-0.52-0.4-0.04-0.52c1.91-0.5,5.02-1.26,6.44-1.64c0.52-0.13,0.7-0.4,0.56-0.9
			c-0.29-1.19-1.26-2.79-3.06-2.79c-2.29,0-4.37,2.57-4.37,5.45c0,3.29,1.78,5.96,4.66,5.96c1.35,0,2.66-0.72,3.44-1.64
			c0.2-0.25,0.52-0.41,0.77-0.14c0.25,0.29,0.13,0.63-0.11,0.86c-1.04,1.04-2.54,1.69-4.19,1.69
			C132.72,87.65,130.09,84.88,130.09,81.21z"/>
		<path class="st0" d="M167.83,88.43c-1.58-0.25-1.55,0.65-2.25,0.2c-3.85-2.45-6.3-6.03-7.81-11.21c-0.77,0.77-1.42,1.42-1.73,1.71
			c-0.72,0.65-1.58,1.19-2,1.28c0.02,2.52,0.04,4.77,0.07,5.51c0.02,0.65,0.18,0.77,1.53,0.88c0.47,0.04,0.47,0.56-0.02,0.54
			c-1.51-0.07-3.53-0.04-4.77,0c-0.56,0.02-0.56-0.54-0.04-0.56c1.44-0.09,1.78-0.27,1.78-0.81c0.07-2.54,0.07-11.43,0-14.11
			c0-0.5-0.5-0.74-1.78-0.81c-0.54-0.05-0.5-0.59,0.04-0.56c1.24,0.02,3.22,0.04,4.73,0c0.5-0.02,0.5,0.5,0.02,0.54
			c-1.35,0.11-1.51,0.38-1.53,0.83c-0.02,1.04-0.02,4.48-0.02,7.72c0.36-0.25,0.86-0.61,1.33-1.06c2.29-2.14,5.63-5.63,6.08-6.19
			c0.38-0.45,0.47-0.68,0.41-0.86c-0.16-0.25-0.58-0.38-1.44-0.45c-0.45-0.02-0.5-0.56,0.02-0.54c1.51,0.04,3.85,0.02,5.11,0
			c0.56-0.02,0.56,0.52,0.02,0.56c-1.08,0.07-1.67,0.43-2.12,0.74c-0.18,0.13-0.36,0.31-0.47,0.43c-0.74,0.7-2.99,2.97-4.77,4.77
			c2,4.64,4.64,8.49,9.79,11.01C168.26,88.14,168.17,88.48,167.83,88.43z"/>
		<path class="st0" d="M182.7,87.31c-0.97-0.02-1.78-0.02-2.27,0c-0.45,0.02-0.79-0.18-0.79-0.52v-0.45
			c-0.79,0.65-2.23,1.1-3.26,1.1c-3.31,0-5-1.49-4.93-4.41c0.04-2.21,0.07-4.57-0.02-6.8c-0.02-0.34-0.41-0.52-1.28-0.56
			c-0.52-0.02-0.52-0.65,0.02-0.61c0.72,0.07,1.76,0.02,2.18,0c0.38-0.02,0.63,0.18,0.61,0.56c-0.04,1.28-0.04,4.75,0,7.16
			c0.04,2.7,1.24,4.03,3.62,4.03c0.74,0,2.09-0.52,3.06-1.37c0.02-2.68,0.02-7.74-0.02-9.07c-0.02-0.41-0.47-0.61-1.44-0.7
			c-0.43-0.04-0.43-0.61,0.02-0.59c1.42,0.05,3.15,0.02,4.37,0c0.5-0.02,0.52,0.56,0.02,0.59c-1.06,0.07-1.46,0.25-1.49,0.7
			c-0.04,1.8-0.04,7.56,0.07,9.9c0.02,0.29,0.92,0.43,1.55,0.45C183.22,86.75,183.2,87.33,182.7,87.31z"/>
		<path class="st0" d="M195.8,75.9c0,0.61-0.63,0.31-1.67,0.31c-0.95,0-2.18,0.23-3.87,1.85c-0.04,2.54-0.07,5.78,0.04,8.01
			c0.02,0.38,0.43,0.59,1.37,0.68c0.43,0.04,0.43,0.58,0,0.56c-1.4-0.04-3.06-0.04-4.25,0c-0.5,0.02-0.5-0.56-0.02-0.58
			c1.06-0.04,1.4-0.25,1.42-0.68c0.09-1.51,0.09-7.31-0.04-9.61c-0.02-0.41-0.67-0.34-1.96-0.27c-0.45,0.02-0.5-0.61-0.02-0.65
			c1.06-0.09,2.16-0.38,3.22-0.68c0.45-0.11,0.5,0.27,0.41,0.56c-0.07,0.23-0.14,0.5-0.14,0.72c0,0.4-0.02,0.88-0.02,1.37
			c0.88-1.35,1.82-2.18,2.84-2.48C194.38,74.64,195.8,75.09,195.8,75.9z"/>
		<path class="st0" d="M199.89,86.72c1.06-0.07,1.44-0.25,1.44-0.68c0.02-1.51,0.04-7.49-0.07-9.79c-0.02-0.43-0.68-0.36-1.96-0.29
			c-0.45,0.02-0.5-0.58-0.02-0.63c1.06-0.11,2.16-0.38,3.22-0.67c0.45-0.14,0.47,0.25,0.41,0.54c-0.04,0.23-0.11,0.5-0.11,0.74
			c-0.07,2.57-0.11,7.27,0,10.11c0.02,0.41,0.45,0.61,1.4,0.68c0.43,0.04,0.43,0.61-0.02,0.58c-1.37-0.04-3.06-0.02-4.25,0
			C199.42,87.33,199.42,86.75,199.89,86.72z M200.68,70.74c0-0.63,0.52-1.12,1.15-1.12s1.15,0.5,1.15,1.12
			c0,0.61-0.52,1.13-1.15,1.13S200.68,71.35,200.68,70.74z"/>
		<path class="st0" d="M221.09,87.33c-0.7-0.07-1.64-0.02-2.12,0c-0.38,0.02-0.56-0.16-0.54-0.56c0.04-1.04,0.02-6.5,0.02-7.25
			c-0.04-2.45-1.37-3.96-3.53-3.96c-0.79,0-2.25,0.52-2.95,1.19c-0.02,3.6-0.02,7.77,0.04,9.3c0.02,0.38,0.41,0.58,1.4,0.68
			c0.43,0.04,0.41,0.58-0.02,0.58c-1.4-0.04-3.06-0.04-4.23-0.02c-0.5,0.02-0.54-0.54-0.04-0.58c1.06-0.07,1.42-0.23,1.44-0.65
			c0.04-1.53,0-12.22-0.07-14.9c-0.02-0.43-0.65-0.41-1.96-0.31c-0.45,0.02-0.52-0.59-0.02-0.63c1.06-0.11,2.16-0.38,3.22-0.68
			c0.45-0.13,0.47,0.25,0.41,0.54c-0.05,0.23-0.11,0.5-0.11,0.72l-0.04,5.13c0.92-0.63,2.21-0.99,3.2-0.99
			c3.06,0,4.75,1.53,4.75,4.34c0,1.26-0.04,4.48,0.07,6.91c0.02,0.34,0.29,0.5,1.15,0.56C221.63,86.77,221.63,87.38,221.09,87.33z"
			/>
		<path class="st0" d="M235.65,87.02c0,0.16-0.11,0.29-0.29,0.29c-1.51,0-2.16-1.12-2.3-1.37c-0.88,0.94-2.14,1.46-3.47,1.44
			c-2.59-0.05-4.48-1.82-4.46-4.16s1.96-4.1,4.55-4.1c1.8,0,2.86,0.9,3.13,1.17v-2.34c0-2.03-1.31-2.59-2.45-2.59
			c-2.66,0-2.77,2.7-3.71,2.63c-0.59-0.04-0.7-1.19,0.02-1.96c0.63-0.68,1.94-1.24,3.8-1.24c1.3,0,3.8,0.77,3.8,3.15v6.39
			c0,1.35,0.27,2.36,1.08,2.36C235.53,86.7,235.65,86.86,235.65,87.02z M232.88,85.24c-0.04-0.27-0.07-0.54-0.07-0.9V81.7
			c0-1.85-2.63-2.39-4.3-1.82c-1.82,0.63-2.5,2.48-1.71,4.34c0.79,1.89,2.75,2.88,4.48,2.23C232.34,86.09,232.83,85.31,232.88,85.24
			z"/>
		<path class="st0" d="M248.58,75.9c0,0.61-0.63,0.31-1.67,0.31c-0.95,0-2.18,0.23-3.87,1.85c-0.04,2.54-0.07,5.78,0.04,8.01
			c0.02,0.38,0.43,0.59,1.37,0.68c0.43,0.04,0.43,0.58,0,0.56c-1.4-0.04-3.06-0.04-4.25,0c-0.5,0.02-0.5-0.56-0.02-0.58
			c1.06-0.04,1.4-0.25,1.42-0.68c0.09-1.51,0.09-7.31-0.04-9.61c-0.02-0.41-0.67-0.34-1.96-0.27c-0.45,0.02-0.5-0.61-0.02-0.65
			c1.06-0.09,2.16-0.38,3.22-0.68c0.45-0.11,0.5,0.27,0.41,0.56c-0.07,0.23-0.14,0.5-0.14,0.72c0,0.4-0.02,0.88-0.02,1.37
			c0.88-1.35,1.82-2.18,2.84-2.48C247.17,74.64,248.58,75.09,248.58,75.9z"/>
		<path class="st0" d="M262.24,87.02c0,0.16-0.11,0.29-0.29,0.29c-1.51,0-2.16-1.12-2.29-1.37c-0.88,0.94-2.14,1.46-3.47,1.44
			c-2.59-0.05-4.48-1.82-4.46-4.16s1.96-4.1,4.55-4.1c1.8,0,2.86,0.9,3.13,1.17v-2.34c0-2.03-1.31-2.59-2.45-2.59
			c-2.66,0-2.77,2.7-3.71,2.63c-0.58-0.04-0.7-1.19,0.02-1.96c0.63-0.68,1.94-1.24,3.8-1.24c1.31,0,3.8,0.77,3.8,3.15v6.39
			c0,1.35,0.27,2.36,1.08,2.36C262.13,86.7,262.24,86.86,262.24,87.02z M259.47,85.24c-0.04-0.27-0.07-0.54-0.07-0.9V81.7
			c0-1.85-2.63-2.39-4.3-1.82c-1.82,0.63-2.5,2.48-1.71,4.34c0.79,1.89,2.75,2.88,4.48,2.23C258.93,86.09,259.43,85.31,259.47,85.24
			z"/>
	</g>
</g>
</svg>
