<?xml version="1.0" encoding="utf-8"?>
<!-- Generator: Adobe Illustrator 30.0.0, SVG Export Plug-In . SVG Version: 9.03 Build 0)  -->
<svg version="1.1" id="レイヤー_1" xmlns="http://www.w3.org/2000/svg" xmlns:xlink="http://www.w3.org/1999/xlink" x="0px"
	 y="0px" viewBox="0 0 213.55 43.24" style="enable-background:new 0 0 213.55 43.24;" xml:space="preserve">
<style type="text/css">
	.st0{fill:#978474;}
	.st1{fill:#968274;}
</style>
<g>
	<g>
		<path class="st0" d="M36.74,1.9c3.09,0,5.61,2.52,5.61,5.61v28.23c0,3.09-2.52,5.61-5.61,5.61H7.5c-3.09,0-5.61-2.52-5.61-5.61
			V7.5C1.9,4.41,4.41,1.9,7.5,1.9H36.74 M36.74,0H7.5C3.38,0,0,3.38,0,7.5v28.23c0,4.13,3.38,7.5,7.5,7.5h29.23
			c4.13,0,7.5-3.38,7.5-7.5V7.5C44.24,3.38,40.87,0,36.74,0L36.74,0z"/>
	</g>
	<path class="st0" d="M20.47,11.11h-2.53h-2.66v1.1L8.93,30.58H13l1.44-4.66h3.5h3.5l1.44,4.66h4.54L20.47,11.11z M17.94,22.15H15.6
		l2.34-7.56l2.34,7.56H17.94z"/>
	<rect x="29.25" y="15.7" class="st0" width="4.18" height="14.88"/>
	<circle class="st0" cx="31.34" cy="11.91" r="2.39"/>
</g>
<g>
	<g>
		<g>
			<path class="st1" d="M64.64,16.49c0.61-0.04,0.78-0.13,0.79-0.37c0.02-1.13,0.03-5.04,0-6.24c-0.01-0.26-0.15-0.34-0.79-0.38
				c-0.24-0.02-0.23-0.26,0.01-0.25c0.59,0.03,1.47,0.03,2.14,0C67,9.25,67,9.48,66.79,9.5C66.2,9.55,66.1,9.68,66.1,9.88
				c-0.01,0.91,0,5.54,0.02,6.24c0.01,0.25,0.13,0.32,0.76,0.37c0.21,0.02,0.21,0.26-0.01,0.25c-0.67-0.03-1.66-0.02-2.22,0
				C64.41,16.75,64.4,16.51,64.64,16.49z"/>
			<path class="st1" d="M69.2,16.49c0.42-0.03,0.62-0.09,0.63-0.31c0.01-0.66-0.01-5.2-0.03-6.61c0-0.18-0.3-0.17-0.86-0.14
				c-0.19,0.01-0.21-0.23-0.01-0.25c0.46-0.05,0.99-0.17,1.44-0.3c0.14-0.04,0.2,0.05,0.16,0.23c-0.02,0.1-0.05,0.21-0.05,0.32
				c-0.03,0.76-0.04,5.52,0.01,6.75c0.01,0.16,0.13,0.26,0.62,0.31c0.17,0.02,0.17,0.24-0.01,0.23c-0.6-0.02-1.38-0.01-1.89,0
				C69,16.73,69,16.5,69.2,16.49z"/>
			<path class="st1" d="M73.27,16.49c0.42-0.03,0.62-0.09,0.63-0.31c0.01-0.66-0.01-5.2-0.03-6.61c0-0.18-0.3-0.17-0.86-0.14
				C72.82,9.44,72.8,9.21,73,9.19c0.46-0.05,0.99-0.17,1.44-0.3c0.14-0.04,0.2,0.05,0.16,0.23c-0.02,0.1-0.05,0.21-0.05,0.32
				c-0.03,0.76-0.04,5.52,0.01,6.75c0.01,0.16,0.13,0.26,0.62,0.31c0.17,0.02,0.17,0.24-0.01,0.23c-0.6-0.02-1.38-0.01-1.89,0
				C73.07,16.73,73.07,16.5,73.27,16.49z"/>
			<path class="st1" d="M82.63,16.72c-0.43-0.01-0.79-0.01-1.01,0c-0.2,0.01-0.35-0.08-0.35-0.23v-0.2
				c-0.35,0.29-0.99,0.49-1.45,0.49c-1.47,0-2.22-0.66-2.19-1.96c0.02-0.98,0.03-2.03-0.01-3.02c-0.01-0.15-0.18-0.23-0.57-0.25
				c-0.23-0.01-0.23-0.29,0.01-0.27c0.32,0.03,0.78,0.01,0.97,0c0.17-0.01,0.28,0.08,0.27,0.25c-0.02,0.57-0.02,2.11,0,3.18
				c0.02,1.2,0.55,1.79,1.61,1.79c0.33,0,0.93-0.23,1.36-0.61c0.01-1.19,0.01-3.44-0.01-4.03c-0.01-0.18-0.21-0.27-0.64-0.31
				c-0.19-0.02-0.19-0.27,0.01-0.26c0.63,0.02,1.4,0.01,1.94,0c0.22-0.01,0.23,0.25,0.01,0.26c-0.47,0.03-0.65,0.11-0.66,0.31
				c-0.02,0.8-0.02,3.36,0.03,4.4c0.01,0.13,0.41,0.19,0.69,0.2C82.86,16.47,82.85,16.73,82.63,16.72z"/>
			<path class="st1" d="M84.61,15.87c-0.09-0.19-0.19-0.47-0.09-0.68c0.06-0.14,0.22-0.2,0.31-0.2c0.18,0,0.24,0.21,0.33,0.6
				c0.13,0.61,0.63,1.03,1.26,1.03c0.79,0,1.41-0.55,1.41-1.26c0-0.39-0.38-0.94-1.46-1.26c-1.3-0.39-1.77-0.79-1.81-1.56
				c-0.01-0.31,0.11-0.6,0.35-0.84c0.33-0.37,0.85-0.56,1.44-0.56c0.77,0,1.33,0.33,1.61,0.64c0.13,0.15,0.19,0.35,0.15,0.53
				c-0.04,0.15-0.12,0.29-0.28,0.29c-0.11,0-0.19-0.1-0.32-0.38c-0.22-0.53-0.65-0.85-1.16-0.85c-0.38,0-0.74,0.16-0.98,0.41
				c-0.18,0.2-0.28,0.45-0.27,0.66c0.04,0.54,0.46,0.75,1.43,1.06c1.26,0.39,1.83,0.95,1.83,1.81c0,0.92-0.85,1.55-1.94,1.55
				C85.61,16.86,84.88,16.45,84.61,15.87z"/>
			<path class="st1" d="M93.01,11.54c-0.69,0.03-1.08,0.13-1.13,0.28v3.75c0,0.73,0.28,1.06,0.98,1.13
				c0.08,0.01,0.13,0.07,0.13,0.13c0,0.07-0.05,0.12-0.13,0.12c-1.06,0-1.64-0.5-1.64-1.44c0.01-0.67,0-2.5,0-3.86
				c-0.39,0-0.74,0-0.96,0.01c-0.22,0.01-0.23-0.25-0.01-0.26c0.66-0.04,0.9-0.1,0.97-0.22c0-0.47-0.01-0.84-0.01-1.02
				C91.2,9.89,91.58,9.93,91.7,9.5c0.05-0.18,0.2-0.16,0.2,0.04c-0.01,0.48-0.01,1.1-0.01,1.76c0.4,0,0.89,0,1.11-0.01
				C93.19,11.28,93.19,11.53,93.01,11.54z"/>
			<path class="st1" d="M98.94,11.65c0,0.27-0.28,0.14-0.74,0.14c-0.42,0-0.97,0.1-1.72,0.82c-0.02,1.13-0.03,2.57,0.02,3.56
				c0.01,0.17,0.19,0.26,0.61,0.3c0.19,0.02,0.19,0.26,0,0.25c-0.62-0.02-1.36-0.02-1.89,0C95,16.73,95,16.47,95.21,16.46
				c0.47-0.02,0.62-0.11,0.63-0.3c0.04-0.67,0.04-3.25-0.02-4.27c-0.01-0.18-0.3-0.15-0.87-0.12c-0.2,0.01-0.22-0.27-0.01-0.29
				c0.47-0.04,0.96-0.17,1.43-0.3c0.2-0.05,0.22,0.12,0.18,0.25c-0.03,0.1-0.06,0.22-0.06,0.32c0,0.18-0.01,0.39-0.01,0.61
				c0.39-0.6,0.81-0.97,1.26-1.1C98.31,11.09,98.94,11.29,98.94,11.65z"/>
			<path class="st1" d="M105.01,16.59c0,0.07-0.05,0.13-0.13,0.13c-0.67,0-0.96-0.5-1.02-0.61c-0.39,0.42-0.95,0.65-1.54,0.64
				c-1.15-0.02-1.99-0.81-1.98-1.85c0.01-1.04,0.87-1.82,2.02-1.82c0.8,0,1.27,0.4,1.39,0.52v-1.04c0-0.9-0.58-1.15-1.09-1.15
				c-1.18,0-1.23,1.2-1.65,1.17c-0.26-0.02-0.31-0.53,0.01-0.87c0.28-0.3,0.86-0.55,1.69-0.55c0.58,0,1.69,0.34,1.69,1.4v2.84
				c0,0.6,0.12,1.05,0.48,1.05C104.96,16.45,105.01,16.52,105.01,16.59z M103.78,15.8c-0.02-0.12-0.03-0.24-0.03-0.4v-1.17
				c0-0.82-1.17-1.06-1.91-0.81c-0.81,0.28-1.11,1.1-0.76,1.93c0.35,0.84,1.22,1.28,1.99,0.99
				C103.54,16.18,103.76,15.83,103.78,15.8z"/>
			<path class="st1" d="M109.58,11.54c-0.69,0.03-1.08,0.13-1.13,0.28v3.75c0,0.73,0.28,1.06,0.98,1.13
				c0.08,0.01,0.13,0.07,0.13,0.13c0,0.07-0.05,0.12-0.13,0.12c-1.06,0-1.64-0.5-1.64-1.44c0.01-0.67,0-2.5,0-3.86
				c-0.39,0-0.74,0-0.96,0.01c-0.22,0.01-0.23-0.25-0.01-0.26c0.66-0.04,0.9-0.1,0.97-0.22c0-0.47-0.01-0.84-0.01-1.02
				c-0.01-0.27,0.37-0.23,0.49-0.66c0.05-0.18,0.2-0.16,0.2,0.04c-0.01,0.48-0.01,1.1-0.01,1.76c0.4,0,0.89,0,1.11-0.01
				C109.76,11.28,109.76,11.53,109.58,11.54z"/>
			<path class="st1" d="M111.48,13.99c0-1.65,1.22-2.88,2.85-2.88c1.63,0,2.85,1.23,2.85,2.88c0,1.65-1.22,2.88-2.85,2.88
				C112.7,16.87,111.48,15.64,111.48,13.99z M116.46,13.68c-0.2-1.46-1.25-2.42-2.48-2.24c-1.22,0.17-1.98,1.4-1.77,2.87
				c0.2,1.45,1.25,2.41,2.47,2.23C115.9,16.37,116.66,15.15,116.46,13.68z"/>
			<path class="st1" d="M122.95,11.65c0,0.27-0.28,0.14-0.74,0.14c-0.42,0-0.97,0.1-1.72,0.82c-0.02,1.13-0.03,2.57,0.02,3.56
				c0.01,0.17,0.19,0.26,0.61,0.3c0.19,0.02,0.19,0.26,0,0.25c-0.62-0.02-1.36-0.02-1.89,0c-0.22,0.01-0.22-0.25-0.01-0.26
				c0.47-0.02,0.62-0.11,0.63-0.3c0.04-0.67,0.04-3.25-0.02-4.27c-0.01-0.18-0.3-0.15-0.87-0.12c-0.2,0.01-0.22-0.27-0.01-0.29
				c0.47-0.04,0.96-0.17,1.43-0.3c0.2-0.05,0.22,0.12,0.18,0.25c-0.03,0.1-0.06,0.22-0.06,0.32c0,0.18-0.01,0.39-0.01,0.61
				c0.39-0.6,0.81-0.97,1.26-1.1C122.32,11.09,122.95,11.29,122.95,11.65z"/>
		</g>
	</g>
	<g>
		<g>
			<rect x="63.87" y="26.4" class="st0" width="27.14" height="8.43"/>
			<path class="st0" d="M90.61,26.8v7.63H64.27V26.8H90.61 M91.41,25.99H63.46v9.24h27.95V25.99L91.41,25.99z"/>
		</g>
		<g>
			<rect x="94.4" y="26.4" class="st0" width="27.14" height="8.43"/>
			<path class="st0" d="M121.14,26.8v7.63H94.81V26.8H121.14 M121.95,25.99H94v9.24h27.95V25.99L121.95,25.99z"/>
		</g>
		<g>
			<rect x="124.94" y="26.4" class="st0" width="27.14" height="8.43"/>
			<path class="st0" d="M151.68,26.8v7.63h-26.34V26.8H151.68 M152.48,25.99h-27.95v9.24h27.95V25.99L152.48,25.99z"/>
		</g>
		<g>
			<rect x="155.47" y="26.4" class="st0" width="27.14" height="8.43"/>
			<path class="st0" d="M182.21,26.8v7.63h-26.34V26.8H182.21 M183.02,25.99h-27.95v9.24h27.95V25.99L183.02,25.99z"/>
		</g>
		<g>
			<path class="st0" d="M212.55,26.99v7.24H64.46v-7.24H212.55 M213.55,25.99H63.46v9.24h150.09V25.99L213.55,25.99z"/>
		</g>
	</g>
</g>
<g>
</g>
<g>
</g>
<g>
</g>
<g>
</g>
<g>
</g>
<g>
</g>
</svg>
