<?xml version="1.0" encoding="utf-8"?>
<!-- Generator: Adobe Illustrator 30.0.0, SVG Export Plug-In . SVG Version: 9.03 Build 0)  -->
<svg version="1.1" id="レイヤー_1" xmlns="http://www.w3.org/2000/svg" xmlns:xlink="http://www.w3.org/1999/xlink" x="0px"
	 y="0px" viewBox="0 0 213.55 43.24" style="enable-background:new 0 0 213.55 43.24;" xml:space="preserve">
<style type="text/css">
	.st0{fill:#978474;}
	.st1{fill:#968274;}
</style>
<g>
	<g>
		<polygon class="st0" points="32.24,10.15 26.83,10.15 22.12,17.44 17.41,10.15 12.01,10.15 19.42,21.62 12.01,33.08 17.41,33.08 
			22.12,25.79 26.83,33.08 32.24,33.08 24.82,21.62 		"/>
		<g>
			<path class="st0" d="M36.74,1.9c3.09,0,5.61,2.52,5.61,5.61v28.23c0,3.09-2.52,5.61-5.61,5.61H7.5c-3.09,0-5.61-2.52-5.61-5.61
				V7.5C1.9,4.41,4.41,1.9,7.5,1.9H36.74 M36.74,0H7.5C3.38,0,0,3.38,0,7.5v28.23c0,4.13,3.38,7.5,7.5,7.5h29.23
				c4.13,0,7.5-3.38,7.5-7.5V7.5C44.24,3.38,40.87,0,36.74,0L36.74,0z"/>
		</g>
	</g>
	<g>
		<g>
			<g>
				<path class="st1" d="M70.15,16.72c-1.34-0.02-4.14-0.02-5.55,0.01c-0.25,0.01-0.25-0.25-0.02-0.26
					c0.64-0.04,0.81-0.14,0.82-0.44c0.02-1.32,0.03-5.05,0.01-6.18c0-0.15-0.08-0.3-0.78-0.34c-0.24-0.02-0.23-0.27,0.02-0.26
					c1.36,0.05,4.25,0.03,5.29-0.01c0.23-0.01,0.31,0.07,0.17,0.21c-0.12,0.12-0.09,0.69-0.09,0.93c0,0.21-0.34,0.28-0.47,0.21
					c-0.1-0.06-0.06-0.51-0.07-0.78c-0.01-0.14-0.08-0.19-0.25-0.19c-0.8-0.02-2.23,0-2.85,0.02c-0.28,0-0.32,0.04-0.32,0.25
					c-0.01,0.35-0.01,1.47-0.01,2.67c0.76,0.12,2.07,0.06,2.33,0.05c0.22-0.01,0.27-0.05,0.28-0.2c0.01-0.25-0.01-0.46,0.16-0.49
					c0.09-0.02,0.28-0.02,0.35,0c0.16,0.05,0.06,0.19,0.04,0.39c-0.02,0.23-0.04,0.7-0.02,0.88c0.05,0.5-0.03,0.77-0.24,0.77
					c-0.16,0-0.22,0.03-0.24-0.14c-0.01-0.12-0.02-0.32-0.03-0.59c-0.01-0.19-0.08-0.25-0.26-0.26c-0.46-0.02-1.63,0.01-1.99,0.02
					c-0.19,0.01-0.3,0.01-0.38-0.04c0,1.37,0.01,2.73,0.03,3.09c0.01,0.29,0.04,0.32,0.21,0.32c0.76,0.02,2.5,0.03,3.01,0.01
					c0.33-0.02,0.37-0.05,0.37-0.34c0-0.19,0.01-0.58,0-0.8c0-0.07,0.05-0.11,0.14-0.11c0.25,0,0.45,0.12,0.43,0.28
					c-0.06,0.48-0.02,0.81,0.12,1C70.56,16.68,70.42,16.73,70.15,16.72z"/>
				<path class="st1" d="M77.69,16.71c-0.51-0.01-1.27-0.01-1.87,0c-0.19,0.01-0.19-0.24-0.01-0.25c0.45-0.02,0.6-0.11,0.48-0.28
					c-0.28-0.4-0.82-1.14-1.39-1.91l-1.51,1.92c-0.12,0.16,0.05,0.26,0.51,0.27c0.19,0.01,0.19,0.26,0,0.26
					c-0.6-0.02-1.2-0.02-1.71-0.01c-0.21,0.01-0.22-0.24-0.01-0.25c0.39-0.03,0.6-0.13,0.79-0.36c0.35-0.42,1.02-1.28,1.7-2.15
					c-0.64-0.85-1.27-1.69-1.59-2.09c-0.17-0.22-0.32-0.31-0.76-0.33c-0.21-0.01-0.2-0.26,0.01-0.25c0.56,0.01,1.32,0.01,1.92,0
					c0.19,0,0.19,0.24,0.01,0.25c-0.46,0.03-0.61,0.13-0.5,0.28c0.27,0.38,0.74,1.02,1.25,1.7c0.54-0.7,1.03-1.35,1.3-1.71
					c0.11-0.15-0.02-0.24-0.49-0.27c-0.18-0.01-0.19-0.25,0.01-0.25c0.59,0.01,1.19,0.01,1.7,0c0.21-0.01,0.22,0.24,0.01,0.25
					c-0.42,0.03-0.6,0.18-0.77,0.4c-0.3,0.37-0.9,1.13-1.52,1.91c0.7,0.93,1.42,1.89,1.76,2.32c0.13,0.17,0.29,0.27,0.69,0.3
					C77.91,16.47,77.9,16.72,77.69,16.71z"/>
				<path class="st1" d="M79.32,13.98c0-1.54,1.4-2.86,2.68-2.85c0.57,0,1.04,0.11,1.26,0.29c0.32,0.26,0.39,0.72,0.14,0.84
					c-0.34,0.17-0.62-0.9-1.43-0.9c-0.83,0-1.96,1.1-1.96,2.48c0,1.49,0.98,2.68,2.21,2.68c0.48,0,0.94-0.19,1.21-0.4
					c0.2-0.15,0.46,0.14,0.2,0.31c-0.41,0.26-0.88,0.43-1.52,0.43C80.37,16.86,79.32,15.8,79.32,13.98z"/>
				<path class="st1" d="M85.53,14c0-1.64,1.14-2.87,2.64-2.87c0.97,0,1.95,0.73,1.96,1.7c0.01,0.33-0.14,0.53-0.47,0.6
					c-0.88,0.18-2.34,0.44-3.23,0.62c-0.15,0.03-0.23-0.18-0.02-0.23c0.85-0.22,2.23-0.56,2.86-0.73c0.23-0.06,0.31-0.18,0.25-0.4
					c-0.13-0.53-0.56-1.24-1.36-1.24c-1.02,0-1.94,1.14-1.94,2.42c0,1.46,0.79,2.65,2.07,2.65c0.6,0,1.18-0.32,1.53-0.73
					c0.09-0.11,0.23-0.18,0.34-0.06c0.11,0.13,0.06,0.28-0.05,0.38c-0.46,0.46-1.13,0.75-1.86,0.75C86.7,16.86,85.53,15.63,85.53,14
					z"/>
				<path class="st1" d="M92.27,16.48c0.42-0.03,0.62-0.09,0.63-0.31c0.01-0.66-0.01-5.2-0.03-6.61c0-0.18-0.3-0.17-0.86-0.14
					C91.82,9.43,91.8,9.19,92,9.17c0.46-0.05,0.99-0.17,1.44-0.3c0.14-0.04,0.2,0.05,0.16,0.23c-0.02,0.1-0.05,0.21-0.05,0.32
					c-0.03,0.76-0.04,5.52,0.01,6.75c0.01,0.16,0.13,0.26,0.62,0.31c0.17,0.02,0.17,0.24-0.01,0.23c-0.6-0.02-1.38-0.01-1.89,0
					C92.07,16.72,92.07,16.49,92.27,16.48z"/>
			</g>
		</g>
		<g>
			<g>
				<rect x="63.87" y="26.41" class="st0" width="27.14" height="8.43"/>
				<path class="st0" d="M90.61,26.81v7.63H64.27v-7.63H90.61 M91.41,26.01H63.46v9.24h27.95V26.01L91.41,26.01z"/>
			</g>
			<g>
				<rect x="94.4" y="26.41" class="st0" width="27.14" height="8.43"/>
				<path class="st0" d="M121.14,26.81v7.63H94.81v-7.63H121.14 M121.95,26.01H94v9.24h27.95V26.01L121.95,26.01z"/>
			</g>
			<g>
				<path class="st0" d="M212.55,27.01v7.24H64.46v-7.24H212.55 M213.55,26.01H63.46v9.24h150.09V26.01L213.55,26.01z"/>
			</g>
		</g>
	</g>
</g>
<g>
</g>
<g>
</g>
<g>
</g>
<g>
</g>
<g>
</g>
<g>
</g>
</svg>
