<?xml version="1.0" encoding="utf-8"?>
<!-- Generator: Adobe Illustrator 30.0.0, SVG Export Plug-In . SVG Version: 9.03 Build 0)  -->
<svg version="1.1" id="レイヤー_1" xmlns="http://www.w3.org/2000/svg" xmlns:xlink="http://www.w3.org/1999/xlink" x="0px"
	 y="0px" viewBox="0 0 213.55 43.24" style="enable-background:new 0 0 213.55 43.24;" xml:space="preserve">
<style type="text/css">
	.st0{fill:#978474;}
	.st1{fill:#988475;}
	.st2{fill:#968274;}
</style>
<g>
	<g>
		<g>
			<path class="st0" d="M36.74,1.9c3.09,0,5.61,2.52,5.61,5.61v28.23c0,3.09-2.52,5.61-5.61,5.61H7.5c-3.09,0-5.61-2.52-5.61-5.61
				V7.5C1.9,4.41,4.41,1.9,7.5,1.9H36.74 M36.74,0H7.5C3.38,0,0,3.38,0,7.5v28.23c0,4.13,3.38,7.5,7.5,7.5h29.23
				c4.13,0,7.5-3.38,7.5-7.5V7.5C44.24,3.38,40.87,0,36.74,0L36.74,0z"/>
		</g>
		<g>
			<path class="st1" d="M17.34,10.9l-9.02-0.12c0,0,0.13,0.75,0.13,3.02c0,0,0,14.06,0,15.71c0,1.65-0.13,2.95-0.13,2.95H13
				c0,0-0.14-1.11-0.14-3v-4.32h4.48c0,0,5.9-0.05,5.9-7.55C23.23,10.91,17.34,10.9,17.34,10.9z M16.52,20.8h-3.66v-5.55h3.66
				c0,0,2.19,0.05,2.19,2.66C18.71,20.77,16.52,20.8,16.52,20.8z"/>
			<path class="st1" d="M36.35,18.15l-0.9,3.2c0,0-5.06-1.06-5.38-0.27c-0.32,0.8,1.08,1.54,3.14,2.69c2.06,1.15,3.6,2.56,3.6,4.12
				c0,1.56-1.57,3.22-3.6,3.68s-6.02,0.19-8.36-0.09l0.69-3.36c0,0,6.23,1.1,6.56,0.07c0.34-1.03-3.47-2.92-4.03-3.24
				c-0.57-0.32-4.89-2.32-1.08-5.94C29.48,16.65,36.35,18.15,36.35,18.15z"/>
		</g>
	</g>
	<g>
		<g>
			<g>
				<path class="st2" d="M70.35,11.49c0,1.4-1.16,2.45-2.71,2.45c-0.58,0-1.16-0.15-1.61-0.39c0.01,1.19,0.02,2.27,0.03,2.62
					c0.01,0.2,0.14,0.25,1.04,0.33c0.21,0.02,0.22,0.23,0,0.23c-0.7-0.02-1.85-0.02-2.5-0.01c-0.25,0.01-0.26-0.22-0.02-0.23
					c0.63-0.04,0.8-0.11,0.8-0.32c0.03-1.17,0.02-5.13-0.01-6.37c0-0.2-0.2-0.29-0.76-0.32c-0.24-0.01-0.24-0.27,0.01-0.26
					c0.59,0.01,1.54,0.04,2.23,0.02c0.19-0.01,0.54-0.02,0.67-0.02C69.42,9.22,70.35,10.23,70.35,11.49z M69.64,11.47
					c0-1.12-0.89-1.94-2.12-1.96c-0.26,0-0.6,0-0.76,0.01c-0.64,0.06-0.73,0.1-0.73,0.3V13c0.35,0.39,0.93,0.61,1.61,0.61
					C68.81,13.61,69.64,12.71,69.64,11.47z"/>
				<path class="st2" d="M77.76,16.72c-0.31-0.03-0.73-0.01-0.94,0c-0.17,0.01-0.25-0.07-0.24-0.25c0.02-0.46,0.01-2.89,0.01-3.22
					c-0.02-1.09-0.61-1.76-1.57-1.76c-0.35,0-1,0.23-1.31,0.53c-0.01,1.6-0.01,3.45,0.02,4.13c0.01,0.17,0.18,0.26,0.62,0.3
					c0.19,0.02,0.18,0.26-0.01,0.26c-0.62-0.02-1.36-0.02-1.88-0.01c-0.22,0.01-0.24-0.24-0.02-0.26c0.47-0.03,0.63-0.1,0.64-0.29
					c0.02-0.68,0-5.43-0.03-6.62c-0.01-0.19-0.29-0.18-0.87-0.14c-0.2,0.01-0.23-0.26-0.01-0.28c0.47-0.05,0.96-0.17,1.43-0.3
					c0.2-0.06,0.21,0.11,0.18,0.24c-0.02,0.1-0.05,0.22-0.05,0.32l-0.02,2.28c0.41-0.28,0.98-0.44,1.42-0.44
					c1.36,0,2.11,0.68,2.11,1.93c0,0.56-0.02,1.99,0.03,3.07c0.01,0.15,0.13,0.22,0.51,0.25C78,16.47,78,16.74,77.76,16.72z"/>
				<path class="st2" d="M79.51,13.98c0-1.65,1.22-2.88,2.85-2.88s2.85,1.23,2.85,2.88c0,1.65-1.22,2.88-2.85,2.88
					S79.51,15.63,79.51,13.98z M84.49,13.67c-0.2-1.46-1.25-2.42-2.48-2.24c-1.22,0.17-1.98,1.4-1.77,2.87
					c0.2,1.45,1.25,2.41,2.47,2.23C83.93,16.36,84.69,15.14,84.49,13.67z"/>
				<path class="st2" d="M89.8,11.53c-0.69,0.03-1.08,0.13-1.13,0.28v3.75c0,0.73,0.28,1.06,0.98,1.13
					c0.08,0.01,0.13,0.07,0.13,0.13c0,0.07-0.05,0.12-0.13,0.12c-1.06,0-1.64-0.5-1.64-1.44c0.01-0.67,0-2.5,0-3.86
					c-0.39,0-0.74,0-0.96,0.01s-0.23-0.25-0.01-0.26c0.66-0.04,0.9-0.1,0.97-0.22c0-0.47-0.01-0.84-0.01-1.02
					c-0.01-0.27,0.37-0.23,0.49-0.66c0.05-0.18,0.2-0.16,0.2,0.04c-0.01,0.48-0.01,1.1-0.01,1.76c0.4,0,0.89,0,1.11-0.01
					C89.98,11.27,89.98,11.52,89.8,11.53z"/>
				<path class="st2" d="M91.7,13.98c0-1.65,1.22-2.88,2.85-2.88s2.85,1.23,2.85,2.88c0,1.65-1.22,2.88-2.85,2.88
					S91.7,15.63,91.7,13.98z M96.68,13.67c-0.2-1.46-1.25-2.42-2.48-2.24c-1.22,0.17-1.98,1.4-1.77,2.87
					c0.2,1.45,1.25,2.41,2.47,2.23C96.12,16.36,96.88,15.14,96.68,13.67z"/>
				<path class="st2" d="M99.33,15.86c-0.09-0.19-0.19-0.47-0.09-0.68c0.06-0.14,0.22-0.2,0.31-0.2c0.18,0,0.24,0.21,0.33,0.6
					c0.13,0.61,0.63,1.03,1.26,1.03c0.79,0,1.41-0.55,1.41-1.26c0-0.39-0.38-0.94-1.46-1.26c-1.3-0.39-1.77-0.79-1.81-1.56
					c-0.01-0.31,0.11-0.6,0.35-0.84c0.33-0.37,0.85-0.56,1.44-0.56c0.77,0,1.33,0.33,1.61,0.64c0.13,0.15,0.19,0.35,0.15,0.53
					c-0.04,0.15-0.12,0.29-0.28,0.29c-0.11,0-0.19-0.1-0.32-0.38c-0.22-0.53-0.65-0.85-1.16-0.85c-0.38,0-0.74,0.16-0.98,0.41
					c-0.18,0.2-0.28,0.45-0.27,0.66c0.04,0.54,0.46,0.75,1.43,1.06c1.26,0.39,1.83,0.95,1.83,1.81c0,0.92-0.85,1.55-1.94,1.55
					C100.33,16.85,99.6,16.44,99.33,15.86z"/>
				<path class="st2" d="M110.5,16.72c-0.31-0.03-0.73-0.01-0.94,0c-0.17,0.01-0.25-0.07-0.24-0.25c0.02-0.46,0.01-2.89,0.01-3.22
					c-0.02-1.09-0.61-1.76-1.57-1.76c-0.35,0-1,0.23-1.31,0.53c-0.01,1.6-0.01,3.45,0.02,4.13c0.01,0.17,0.18,0.26,0.62,0.3
					c0.19,0.02,0.18,0.26-0.01,0.26c-0.62-0.02-1.36-0.02-1.88-0.01c-0.22,0.01-0.24-0.24-0.02-0.26c0.47-0.03,0.63-0.1,0.64-0.29
					c0.02-0.68,0-5.43-0.03-6.62c-0.01-0.19-0.29-0.18-0.87-0.14c-0.2,0.01-0.23-0.26-0.01-0.28c0.47-0.05,0.96-0.17,1.43-0.3
					c0.2-0.06,0.21,0.11,0.18,0.24c-0.02,0.1-0.05,0.22-0.05,0.32l-0.02,2.28c0.41-0.28,0.98-0.44,1.42-0.44
					c1.36,0,2.11,0.68,2.11,1.93c0,0.56-0.02,1.99,0.03,3.07c0.01,0.15,0.13,0.22,0.51,0.25C110.74,16.47,110.74,16.74,110.5,16.72z
					"/>
				<path class="st2" d="M112.25,13.98c0-1.65,1.22-2.88,2.85-2.88s2.85,1.23,2.85,2.88c0,1.65-1.22,2.88-2.85,2.88
					S112.25,15.63,112.25,13.98z M117.23,13.67c-0.2-1.46-1.25-2.42-2.48-2.24c-1.22,0.17-1.98,1.4-1.77,2.87
					c0.2,1.45,1.25,2.41,2.47,2.23C116.67,16.36,117.43,15.14,117.23,13.67z"/>
				<path class="st2" d="M125.15,14.15c-0.15,1.48-1.45,2.55-2.86,2.42c-0.4-0.04-0.79-0.15-1.04-0.29
					c0.01,0.81,0.01,1.52,0.03,1.91c0.01,0.17,0.2,0.26,0.62,0.3c0.19,0.02,0.19,0.26-0.01,0.25c-0.61-0.01-1.36-0.01-1.88,0
					c-0.22,0.01-0.23-0.24-0.01-0.26c0.47-0.03,0.63-0.11,0.63-0.3c0.02-0.67,0-4.88-0.03-6.32c0-0.18-0.29-0.17-0.86-0.13
					c-0.21,0.01-0.24-0.27-0.02-0.29c0.48-0.04,0.97-0.17,1.43-0.29c0.16-0.04,0.22,0.05,0.18,0.23c0.4-0.18,0.84-0.26,1.4-0.21
					C124.41,11.34,125.32,12.44,125.15,14.15z M122.59,11.48c-0.45-0.05-0.91,0.1-1.31,0.33c-0.02,0.64-0.03,2.6-0.03,4.23
					c0.31,0.12,0.72,0.24,1.09,0.25c0.92,0.04,1.99-0.72,2.13-2.06C124.62,12.77,123.81,11.6,122.59,11.48z"/>
			</g>
		</g>
		<g>
			<g>
				<rect x="63.87" y="26.41" class="st0" width="27.14" height="8.43"/>
				<path class="st0" d="M90.61,26.81v7.63H64.27v-7.63H90.61 M91.41,26.01H63.46v9.24h27.95V26.01L91.41,26.01z"/>
			</g>
			<g>
				<rect x="94.4" y="26.41" class="st0" width="27.14" height="8.43"/>
				<path class="st0" d="M121.14,26.81v7.63H94.81v-7.63H121.14 M121.95,26.01H94v9.24h27.95V26.01L121.95,26.01z"/>
			</g>
			<g>
				<rect x="124.94" y="26.41" class="st0" width="27.14" height="8.43"/>
				<path class="st0" d="M151.68,26.81v7.63h-26.34v-7.63H151.68 M152.48,26.01h-27.95v9.24h27.95V26.01L152.48,26.01z"/>
			</g>
			<g>
				<path class="st0" d="M212.55,27.01v7.24H64.46v-7.24H212.55 M213.55,26.01H63.46v9.24h150.09V26.01L213.55,26.01z"/>
			</g>
		</g>
	</g>
</g>
<g>
</g>
<g>
</g>
<g>
</g>
<g>
</g>
<g>
</g>
<g>
</g>
</svg>
