<?xml version="1.0" encoding="utf-8"?>
<!-- Generator: Adobe Illustrator 30.0.0, SVG Export Plug-In . SVG Version: 9.03 Build 0)  -->
<svg version="1.1" id="レイヤー_1" xmlns="http://www.w3.org/2000/svg" xmlns:xlink="http://www.w3.org/1999/xlink" x="0px"
	 y="0px" viewBox="0 0 501 355.44" style="enable-background:new 0 0 501 355.44;" xml:space="preserve">
<style type="text/css">
	.st0{clip-path:url(#SVGID_00000092429524589717439670000009106513450389379980_);}
	.st1{fill:#DBD4CE;}
	.st2{fill:#B6AA9E;}
	.st3{fill:#988475;}
</style>
<g>
	<defs>
		<rect id="SVGID_1_" width="501" height="355.44"/>
	</defs>
	<clipPath id="SVGID_00000114779568429086414000000000915210867345178243_">
		<use xlink:href="#SVGID_1_"  style="overflow:visible;"/>
	</clipPath>
	<g style="clip-path:url(#SVGID_00000114779568429086414000000000915210867345178243_);">
		<g>
			<g>
				<path class="st1" d="M103.84,15.54c0.13,0.59-0.39,0.99-0.98,1.12c-0.8,0.01-1.44-0.63-1.36-0.94c0.05-0.73,0.73-1.32,1.16-1.28
					C103.15,14.54,103.75,14.86,103.84,15.54z"/>
			</g>
			<g>
				<path class="st1" d="M43.86,30.89c0.04,0.65-0.36,1.21-0.86,1.12c-1.01-0.14-1.43-0.47-1.25-1.19c0.15-0.65,0.62-0.91,0.98-0.9
					C43.31,29.92,44.12,30.31,43.86,30.89z"/>
			</g>
			<g>
				<path class="st1" d="M8.17,33.47c0.14,0.63-0.32,1.39-1.26,1.08c-0.44,0.12-0.81-0.26-0.88-0.82c-0.19-0.62,0.59-1.44,0.88-1.4
					C7.5,32.61,8.31,32.92,8.17,33.47z"/>
			</g>
			<g>
				<path class="st1" d="M2.38,57.73c-0.19,0.77-0.57,1.13-1.16,1.12c-0.74-0.09-1.45-0.39-1.11-1.26
					c-0.34-0.57,0.17-1.01,1.11-0.86C1.61,56.84,2.16,57.09,2.38,57.73z"/>
			</g>
			<g>
				<path class="st1" d="M69.86,25.1c0.29,0.72-0.19,1.26-0.82,1.27c-0.98-0.09-1.21-0.64-1.43-1.17c0.21-0.59,0.78-1.03,1.28-0.93
					C69.52,24.19,69.91,24.59,69.86,25.1z"/>
			</g>
			<g>
				<path class="st1" d="M122.37,27.73c0,0.53-0.22,1.03-1.07,0.85c-0.4,0.13-1.03-0.25-1.05-0.8c0.26-0.74,0.82-1.12,1.31-1.4
					C122.22,26.49,122.44,26.97,122.37,27.73z"/>
			</g>
			<g>
				<path class="st1" d="M89.61,31.4c0.01,0.8-0.21,1.02-1.17,1.14c-0.58-0.21-1.06-0.34-0.9-1.06c-0.22-0.48,0.46-1.02,1.15-1.38
					C89.39,30.47,89.52,30.66,89.61,31.4z"/>
			</g>
			<g>
				<path class="st1" d="M140.11,27.32c-0.13,0.64-0.39,1.23-1.11,1.29c-0.66-0.1-1.1-0.55-1.18-1.28c0.03-0.31,0.67-0.73,1.32-0.9
					C139.59,26.19,140.08,27.1,140.11,27.32z"/>
			</g>
			<g>
				<path class="st1" d="M153.59,16.92c-0.03,0.83-0.52,1.34-1.28,1.37c-0.43-0.35-0.69-0.51-1.09-1.37c0.29-0.73,0.6-1.17,1.28-1.2
					C153.33,15.72,153.71,16.15,153.59,16.92z"/>
			</g>
			<g>
				<path class="st1" d="M192.82,23.55c-0.03,0.94-0.73,1.43-1.22,1.36c-0.81-0.18-0.94-0.46-1.3-1.35
					c0.24-0.38,0.53-0.79,1.35-1.06C192.07,22.77,192.82,23.11,192.82,23.55z"/>
			</g>
			<g>
				<path class="st1" d="M210.69,13.44c-0.1,0.33-0.75,0.94-1.06,1.16c-0.8-0.31-1.45-0.52-1.48-1.28c0.14-0.7,0.54-1.02,1.42-1.04
					C209.91,12.27,210.55,12.64,210.69,13.44z"/>
			</g>
			<g>
				<path class="st1" d="M254.46,20.94c-0.13,0.88-0.38,1.13-1.18,1.36c-0.57-0.05-0.88-0.44-0.93-1.26
					c0.14-0.53,0.42-1.15,1.2-1.15C254.15,19.75,254.53,20.65,254.46,20.94z"/>
			</g>
			<g>
				<path class="st1" d="M252.92,4.57c-0.12,0.6-0.87,0.98-1.39,0.96c-0.61,0.04-0.88-0.62-1.03-0.92c0.06-0.82,0.54-1.16,1.11-1.12
					C252.24,3.33,252.63,3.71,252.92,4.57z"/>
			</g>
			<g>
				<path class="st1" d="M282.55,12.68c-0.04,0.32-0.15,0.95-1.07,0.85c-0.46,0.25-0.93-0.5-1.01-1.13c0-0.52,0.44-0.98,1.15-1.12
					C282.06,11.27,282.58,11.83,282.55,12.68z"/>
			</g>
			<g>
				<path class="st1" d="M361.92,15.5c-0.04,0.76-0.78,1.11-1.45,1.07c-0.49,0.3-1.01-0.11-0.81-0.91c0.08-0.41,0.54-1.08,1.02-1.22
					C361.37,14.5,361.87,15.2,361.92,15.5z"/>
			</g>
			<g>
				<path class="st1" d="M329.04,15.57c-0.3,0.48-0.78,0.9-1.28,1.22c-0.56-0.28-0.8-0.6-0.85-1.33c-0.21-0.76,0.32-0.94,1.08-1.15
					C328.44,14.37,329.04,15.04,329.04,15.57z"/>
			</g>
			<g>
				<path class="st1" d="M346.26,24.98c0.08,0.39-0.72,0.79-1.38,0.8c-0.58-0.04-0.99-0.5-0.93-1.07c-0.08-0.31,0.52-0.89,1.21-1.13
					C345.85,23.55,346.3,24.02,346.26,24.98z"/>
			</g>
			<g>
				<path class="st1" d="M293.19,7.91c0.2,0.39-0.71,0.77-1.16,0.9c-0.44-0.11-1.22-0.24-1.25-1.21c0.11-0.55,0.78-1.02,1.33-0.76
					C292.73,6.82,293.21,7,293.19,7.91z"/>
			</g>
			<g>
				<path class="st1" d="M370.06,21.77c-0.3,0.82-0.43,1.06-1.4,1.1c-0.56,0.17-0.95-0.16-0.95-0.83c-0.09-0.71,0.57-1.31,1.12-1.1
					C369.37,20.88,370.07,21.3,370.06,21.77z"/>
			</g>
			<g>
				<path class="st1" d="M396.69,16.17c-0.11,0.4-0.35,1.05-0.81,0.73c-0.97,0.14-1.42-0.18-1.39-1.04c0.03-0.3,0.74-1.15,1.32-0.74
					C396.36,14.9,396.94,15.19,396.69,16.17z"/>
			</g>
			<g>
				<path class="st1" d="M406.16,26.8c0.11,0.85-0.51,1.02-0.81,1.3c-0.97,0.02-1.06-0.69-1.17-1.42c-0.12-0.48,0.61-0.86,1.01-0.91
					C405.64,25.74,406.17,26.28,406.16,26.8z"/>
			</g>
			<g>
				<path class="st1" d="M413.95,11.77c0.21,0.83-0.56,1.08-0.96,1.23c-0.76,0.25-1.31-0.26-1.1-1.05c-0.04-0.6,0.36-1.15,0.95-0.95
					C413.46,10.89,413.87,11.17,413.95,11.77z"/>
			</g>
			<g>
				<path class="st1" d="M441.59,29c0.2,0.52-0.48,0.89-1.09,1.07c-0.57-0.24-1.12-0.82-1.01-1.11c0-0.62,0.43-1.1,1.11-1.35
					C441.31,27.86,441.75,28.2,441.59,29z"/>
			</g>
			<g>
				<path class="st1" d="M460.74,25.22c0.32,0.51-0.3,0.9-1.05,1.03c-0.54-0.25-0.99-0.47-1.13-1.27c-0.06-0.66,0.81-0.88,1.06-1.08
					C460.18,23.81,461.06,24.31,460.74,25.22z"/>
			</g>
			<g>
				<path class="st1" d="M312.12,22.99c0.26,0.61-0.57,1.23-1.06,1.23c-0.46,0-0.85-0.46-1.03-1.11c-0.16-0.64,0.31-1.17,0.93-1.09
					C311.88,22.08,312.31,22.64,312.12,22.99z"/>
			</g>
			<g>
				<path class="st1" d="M489.39,38.45c0.05,0.52-0.62,0.91-1.42,1.16c-0.34-0.12-0.76-0.59-1.07-1.03
					c-0.02-0.91,0.45-1.11,1.07-1.24C488.83,37.21,489.05,37.74,489.39,38.45z"/>
			</g>
			<g>
				<path class="st1" d="M500.95,55.28c0.23,0.41-0.35,0.87-1.26,1.07c-0.4-0.24-0.8-0.44-0.8-1.32c-0.27-0.28,0.31-0.74,1.18-1.04
					C500.29,54.14,500.99,54.54,500.95,55.28z"/>
			</g>
			<g>
				<path class="st1" d="M182.11,7.94c0.2,0.31-0.7,0.87-1.09,0.97c-0.59-0.06-0.94-0.64-1.33-1.18c0.33-0.5,0.67-0.99,1.23-1.02
					C181.4,6.69,182.05,6.93,182.11,7.94z"/>
			</g>
		</g>
		<path class="st1" d="M0,71.78c0,0,1.19-5.66,3.97-6.68c0,0-0.96,2.11,2.24,3.58l2.88-1.54c1.1-4.43-0.06-6.88-0.06-6.88
			s1.76,0.28,3.94,4.46c0,0-1.02-3.8,0.84-6.28c0,0,0.52,2.29,3.8,4.27c0,0,1.92-5.89,0.62-8.35c0,0,2.39,1.11,4.76,6.52
			c0,0-0.36-3.54,0.68-4.78c0,0-0.64,1.87,2.92,3.44l2.72-0.89c0,0,2.09-4.65,0.94-5.95c0,0,1.84,0.44,2.34,3.25
			c0,0,0.58-2.89-0.73-6.14c0,0,3.74,1.21,3.53,6.91c0,0,2.49-5.17,2.24-8.48c0,0,4.24,2.16,2.89,7.6c0,0,0.87-7.59,1.98-7.95
			c0,0-0.22,3.96,4.6,6.69l5.31-0.94c0,0-1.24-5.12,1.35-8.28c0,0-0.55,1.84,1.24,4.45c0,0-0.41-1.95,0.63-3.3
			c0,0-0.43,2.22,4.26,5.17c0,0,2.51-4.36-0.26-6.25c0,0,4.83,1.32,4.64,5.42l1.34-0.21c0,0-0.45-1.2,0.1-3.86
			c0.46-2.25,0.03-3.3,0.03-3.3s1.5,2.42,0.7,7l2.5-0.29c0,0-1.06-2.86,2.09-5.35c0,0-0.81,2.35,1.23,4.62c0,0,1.2-3.97,2.61-4.47
			c0,0-0.8,1.9,1.2,3.98l5.9-0.88c-0.78-2.81,1.53-5.35,1.53-5.35s-0.34,2.7,3.09,4.69l3.23-0.58c0,0,1.71-1.91,1.13-3.02
			c0,0,0.61,0.52,0.78,1.48c0,0,0.91-1.97-0.29-3.09c0,0,2.28,1.12,1.84,4.3l4.4-0.54c0,0-2.36-4.5-2.59-6.27
			c-0.23-1.78,0.21-3.51,0.21-3.51s-0.51,2.44,2.38,6.24c0,0-1.46-3.11-0.74-5.63c0,0-0.72,3.85,4.77,8.71l4.43-0.46
			c0,0,1.69-2.61,1.27-4.76c0,0,0.83,0.94,0.17,4.6l2.53-0.25c0,0,0.59-6.27,2.26-7.6c0,0-1.33,2.57,2.12,7.18l3.99-0.5
			c0,0,2.15-2.39,1.95-4.71c0,0,1.23,0.83,0.12,4.6l4.14-0.41c1.54-4.57,0.08-6.55,0.08-6.55s2.64,1.82,2.42,5.12
			c0,0,0.44-5.48,2.45-7.79c0,0-1.98,2.09,0.8,9.14c0,0,7.24-1.87,6.3-7.73c0,0,1.79,1.18,1.73,6.83c0,0,1.9-3.61,0.55-5.26
			c0,0,1.82,1.57,1.24,5.06l1.84-0.13c0,0,0.12-4.13,2.7-5.6c0,0-1.04,0.93-0.97,5.43c0,0,1.78-1.29,1.88-4.28
			c0,0,0.8,1.07,0.39,4.21l10.24-0.8c0,0-0.28-3.99,1.4-7.42c0,0-0.33,3.79,2.67,5.86c0,0,0.85-1.79-0.43-3.93c0,0,3,2.39,1.86,5.25
			l10.24-0.58c-0.5-6.28,1.83-8.73,1.83-8.73s-0.78,2.64,0.34,5.27c0,0-0.16-2.07,1.59-3.38c0,0-1.75,1.3,0.59,6.5l2.52-0.18
			c0,0,1.16-2.97,0.87-5.6c0,0,1.42,0.98,1.93,4.46c0,0,1.24-5.53,2.94-6.72c0,0-1.68,2.64,1.27,7.55l11.01-0.34
			c0,0-1.08-3.81-0.22-5.48c0,0,0.51,2.11,1.54,2.26c0,0,0.05-3.41,2.67-4.35c0,0-1.95,1,0.63,6.54c0,0,4.03-1.43,3.91-4.45
			c0,0,2.53,1.51,2.67,6.01c0,0,2.94-5.63,5.52-6.14c0,0-1.01,3.65,2.4,5.33c0,0-0.08-1.94,1.29-3.94c1.75-1.96,1.22-3.75,1.22-3.75
			s1.51,0.92-0.53,7.47l8.28-0.22c0,0-2.42-5.56,1.59-8.59c0,0-0.8,1.73,0,3.11c0,0,1.86-2.18,4.27-2.28c0,0-2.31,1.35,1.07,7.69
			h5.34c0,0-1.28-5.7,1.65-7.72c0,0-0.72,2.34,1.57,7.73l1.79,0.03c0,0,0.25-5.25,2.15-6.23c0,0-1.26,1.62,1.82,5.85
			c0,0,0.46-3.32,2.56-4.13c0,0-1.32,2.06,0.08,4.34l9.39-0.01c0,0,2.17-3.55,1.88-5.73c0,0,2.15,2.17,0.6,5.8l6.69-0.02
			c0,0,0.04-3.19,0.79-4.97c0.75-1.78,0.69-3.29,0.69-3.29s1.15,0.8,0.03,5.77c-0.42,1.87,2.5,2.52,2.5,2.52s1.82-2.3,1.55-4.35
			c0,0,1.37,1.13,1.08,4.41l4.07,0.1c3.1-5.76,3.26-8.28,3.26-8.28s0.87,3.88-1.57,8.39l3.42,0.03c0,0-0.59-2.65,1.34-4.7
			c0,0-0.74,2.09,0.46,4.72l3.28,0.09c0,0-0.17-5.82,2.17-8.24c0,0-1.72,3.67,1.05,8.33l3.5,0.1c0,0,1.37-1.82,0.69-5.09
			c0,0,1.93,1.24,2.18,5.17c0,0,0.3-5.37,2.2-6.88c0,0-1.32,1.65-0.06,6.94l2.78,0.08c0,0,4.73-0.52,5.81-3.68
			c0,0,0.39,1.29-0.08,2.03c0,0,1.96-2.6,1.62-4.32c0,0,1.43,0.94,2.01,6.41l1.68,0.07c0,0,2.42-2.93,1.91-5.33
			c0,0,1.89,1.93,1.42,5.59c0,0,5.97-1.6,5.89-6c0,0,1.52,2.09,1.29,6.28l6.17,0.19c0,0,0.11-4.6,1.57-6.03c0,0-0.2,0.69,0.54,2.65
			c0,0-0.12-3.56,2.16-4.79c0,0-1.61,1.7,0.77,8.45l5.39,0.33c0,0,2.89-2.39,2.06-5.23c0,0,1.73,0.91,2.23,5.59
			c0,0,1.9-5.26,4.29-6.83c0,0-1.1,1.43-0.08,4.29c0,0,0.52-1.62,1.65-1.95c0,0-1.17,0.76,0.19,4.82l7.71,0.44
			c0,0,1.65-2.89,1.21-4.27c0,0,1.73,1.4,1.29,4.71l5.61,0.39c0,0,1.56-4.52,2.71-6.24s0.69-2.29,0.69-2.29s1.49,0.84-0.4,5.01
			c-1.89,4.17,8.32,4.79,8.32,4.79s1.9-2.12,2.05-3.61c0,0,0.24-0.03,0.44,1.04c0,0,0.9-1.69,0.63-2.94c0,0,1.9,2.29,0.93,5.56
			l1.8,0.25c0,0-0.36-4.07,1.62-5.81c0,0-0.62,2.59,1.65,5.81c0,0,5.04-6.41,4.02-9.52c0,0,2.37,2.06-0.5,10.16l3.88,0.47
			c0,0,6.19-3.19,7.51-7.35c0,0,1.78,2.59-0.88,8.09l3.77,0.39c0,0-0.5-1.82,2.53-4.46c1.86-1.54,1.69-3.17,1.69-3.17
			s1.89,2.46-1.06,8.17l4.49,0.47c0,0,2.58-0.98,2.8-4.56c0,0,1.43,2.78,0.03,5.01l2.86,0.36c0,0,2.78-5.39,1.83-8.43
			c0,0,2.18,2.07,0.56,8.76l8.37,1.38c0.28-5.78,3.13-7.75,3.13-7.75s-0.71,2.69-0.01,4.89c1,3.16,2.01,3.55,2.01,3.55
			s2.21-4.11,1.35-6.13c0,0,2.84,2.28,1.41,6.65l4.49,0.88c0,0,3.29-4.24,2.26-7.49c0,0,2.2,2.17,0.19,7.9l7.93,1.51
			c0,0-0.11-2.97,2.28-4.82c-0.41,2.5,1.46,5.2,1.46,5.2s-1.05-1.46,0.83-3.44c-1.02,2.48,4.16,5.2,4.16,5.2s1.49-3.52,0.66-6.14
			c0,0,1.98,1.71,2.67,7.21c0,0,0.14-6.03,2.61-8.72c0,0-0.76,2.14,0.66,9.45l2.66,0.69c0,0-0.79-2.8,1.03-4.39
			c0,0-0.62,1.74,1.27,5.04l2.06,0.69c1.62-2.72,0.85-4.6,0.85-4.6c2.26,2.15,1.51,5.3,1.51,5.3l3.03,0.98c0,0,2.2-2.13,1.87-4.11
			c1.46,1.05,1.29,3.11,1.29,3.11s-0.11-2.59,2.2-3.52c0,0-1.76,1.18,0.33,6.8c0,0,1.38-2.75,3.63-4.21c0,0-0.8,1.9,1.79,7.13
			l2.37,1.6c1.84-1.76,0.63-5.7,0.63-5.7c3.14,3.39,1.62,7.57,1.62,7.57s0.8-5.26,3-6.61c0,0-0.96,1.91,0.9,9.75
			C499.97,73.9,0,71.78,0,71.78z"/>
		<g>
			<g>
				<path class="st2" d="M15.69,67.21c0,0,1.96-4.29-2.31-8.37c-4.27-4.09-6.07-5.64-6.21-9.42c0,0-2.73-2.75-0.2-6.28
					c0,0,1.81,0.35,0.4,6.28c0,0-0.46,3.22,4.01,7.2s5.66,6.17,4.53,10.59H15.69z"/>
				<path class="st2" d="M8.84,53.21c-0.06-0.01-0.95-2.62,3.59-5.28C12.43,47.93,12.61,53.6,8.84,53.21z"/>
				<path class="st2" d="M7.66,52.65c0,0-0.73-2.55-4.95-2.25C2.72,50.4,4.53,53.84,7.66,52.65z"/>
				<path class="st2" d="M11.37,57.49c0,0-0.11-1.69-3.7-1.24c-0.75,0.09-1.44,0.2-1.44,0.2S7.08,58.52,11.37,57.49z"/>
			</g>
			<g>
				<path class="st2" d="M74.94,54.78c0,0-1.69-3.03-5.96-7.11c-4.27-4.09-2.81-9.92-2.56-10.68c0,0-2.24-1.03,0.22-4.37
					c0,0,1.77,1.84-0.02,4.37c0,0-1.94,6.48,2.53,10.46c4.47,3.97,5.24,5.8,6,7.33L74.94,54.78L74.94,54.78z"/>
				<path class="st2" d="M65.64,40.01c-0.01,0.03-1.73,0.31-2.9-2.8C62.73,37.22,66.28,37.7,65.64,40.01z"/>
				<path class="st2" d="M69.09,40.38c0,0-2.33-1.32-2.09,3.74C67,44.12,69.38,41.63,69.09,40.38z"/>
			</g>
			<g>
				<path class="st2" d="M288.5,49.51c0,0,0.96-3.15-2.1-11.95c-2.72-7.8,1.53-17.08,1.98-18.1c0,0-2.18-2.07,0.94-6.05
					c0,0,1.13,6.61-0.66,6.08c0,0-5.04,11.42-1.58,19.04c2.51,5.51,1.73,11.01,1.73,11.01L288.5,49.51z"/>
				<path class="st2" d="M286.61,23.71c-0.02,0.05-3.95-4.06-2.8-6.1C283.81,17.62,287.7,20.26,286.61,23.71z"/>
				<path class="st2" d="M285.5,28.56c0,0.06-2.77-0.48-5.97-4.34C279.53,24.22,285.27,24.95,285.5,28.56z"/>
				<path class="st2" d="M288.49,28.85c0,0-3.13,1.78-2.13,5.27C286.36,34.12,289,30.72,288.49,28.85z"/>
				<path class="st2" d="M290.78,23.4c0,0-2.06-1.92-4.14,4.08C286.64,27.48,288.9,28.02,290.78,23.4z"/>
			</g>
			<g>
				<path class="st2" d="M158.15,44.45c0,0,3.1-4.89,1.72-9.65c-1.29-4.45-1.15-6.43-0.86-8.64c0,0-2.06-2.41-0.2-6.28
					c0,0,2.48,5.43,0.4,6.28c0,0-0.68,3.48,0.7,7.7c1.86,5.68-0.92,9.69-1.54,10.59L158.15,44.45L158.15,44.45z"/>
				<path class="st2" d="M159.39,33.85c0,0-2.39-0.01-3.09-2.69c-0.24-0.94-0.22-0.89-0.22-0.89S159.25,31.73,159.39,33.85z"/>
				<path class="st2" d="M162.01,26.1c0,0-1.72,1.1-2.13,2.99c-0.34,1.59-0.44,2.23-0.44,2.23S162.02,30.05,162.01,26.1z"/>
			</g>
			<g>
				<path class="st2" d="M481.72,67.45c0,0,3.1-4.89,1.72-9.65c-1.29-4.45-1.15-6.43-0.86-8.64c0,0-2.06-2.41-0.2-6.28
					c0,0,2.29,3.53,0.4,6.28c0,0-0.68,3.48,0.7,7.7c1.86,5.68-0.92,9.69-1.54,10.59L481.72,67.45L481.72,67.45L481.72,67.45z"/>
				<path class="st2" d="M482.97,56.85c0,0-2.39-0.01-3.09-2.69c-0.24-0.94-0.22-0.89-0.22-0.89S482.82,54.73,482.97,56.85z"/>
				<path class="st2" d="M485.58,49.1c0,0-1.94,1.22-2.34,3.12c-0.34,1.59-0.22,2.11-0.22,2.11S485.59,53.06,485.58,49.1z"/>
			</g>
			<g>
				<path class="st2" d="M107.17,49.61c0,0-1.19-6.15-1.56-12.04c-0.37-5.9-0.4-8.27-3.2-10.82c0,0-0.03-2.88-4.67-4.21
					c0,0,2.33,5.13,4.54,4.36c0,0,2.76,1.73,2.92,7.71c0.16,5.98,0.45,9.03,1.83,15.17L107.17,49.61z"/>
				<path class="st2" d="M104.91,34.87c0.06,0,0.45-2.75-4.51-4.52C100.4,30.36,101.6,34.75,104.91,34.87z"/>
				<path class="st2" d="M104.57,29.2c0,0-0.36-2.39,1.47-5.23C106.03,23.97,107.49,27.57,104.57,29.2z"/>
				<path class="st2" d="M106.04,38.86c0,0,0.1-0.54,1.57-3.46c0.52-1.03,1.25-1.81,1.25-1.81S111.09,35.68,106.04,38.86z"/>
			</g>
			<g>
				<path class="st2" d="M221.73,39.4c0,0,2.47-4.01-1.26-8.59c-3.73-4.58-5.32-6.35-5-10.11c0,0-2.27-2.48,0.58-6.26
					c0,0,2.35,5.94-0.37,6.28c0,0-0.85,3.14,3.1,7.64s4.86,6.82,3.19,11.07L221.73,39.4z"/>
				<path class="st2" d="M217.55,26.35c-0.03,0.05-1.52-4.41,3.32-6.48C220.86,19.87,220.93,22.05,217.55,26.35z"/>
				<path class="st2" d="M215.67,24.62c0,0-0.34-3.19-4.56-3.42C211.11,21.19,211.42,23.28,215.67,24.62z"/>
				<path class="st2" d="M218.64,28.99c0,0-1.09-2.14-4.76-2.67C213.88,26.32,215.19,29.72,218.64,28.99z"/>
			</g>
			<g>
				<path class="st2" d="M325.88,44.78c0,0,4.33-2.7,2.93-8.94s-2.1-8.72,0.03-12.22c0,0-0.9-2.29,2.47-3.28c0,0-0.5,2.65-2.29,3.4
					c0,0-2.35,2.64-0.69,8.9s1.42,8.95-2.25,12.27L325.88,44.78z"/>
				<path class="st2" d="M327.11,27.18c0,0,0.91-1.22-0.36-3.05c-0.67-0.96-0.44-1.49-0.44-1.49S324.27,24.68,327.11,27.18z"/>
				<path class="st2" d="M327.95,29.12c0,0,1.53,0.66,2.57-2.54C330.52,26.58,328.12,26.79,327.95,29.12z"/>
			</g>
			<g>
				<path class="st2" d="M395.26,44.03c0,0-0.88-7.15-3.65-10.18c-3.35-3.67-2.34-7.16-2.24-9.22c0,0-2.34-2.85-0.2-6.28
					c0,0,1.81,0.35,0.4,6.28c0,0-1.12,5.63,1.91,8.77c2.7,2.8,4.19,9.57,4,10.64H395.26z"/>
				<path class="st2" d="M389.9,30.06c-0.05,0-0.74-2.04,2.8-4.1C392.7,25.95,392.84,30.36,389.9,30.06z"/>
				<path class="st2" d="M388.97,28.01c0,0,0.23-2.64-3.8-3.88C385.17,24.13,385.62,28,388.97,28.01z"/>
				<path class="st2" d="M386.5,31.5c0,0,1.92-0.25,3.53,0.98c0.74,0.56,0.88,0.77,0.88,0.77S387.1,34.47,386.5,31.5z"/>
				<path class="st2" d="M394.45,31.07c0,0-1.13-0.28-1.58,1.86c-0.33,1.59-0.08,1.99-0.08,1.99S394.91,33.96,394.45,31.07z"/>
			</g>
			<g>
				<path class="st2" d="M447.6,52.22c0,0-3.02-3.62,0.01-8.69s4.36-7.05,3.5-10.72c0,0,2.48-4.54-1.47-6.11
					c0,0-1.66,0.81,1.27,6.17c0,0,1.29,2.99-1.97,8.01c-3.26,5.01-3.83,7.44-1.57,11.41L447.6,52.22z"/>
				<path class="st2" d="M450.52,36.91c0.05-0.02,0.23-2.78-4.86-4.14C445.66,32.77,446.98,38.28,450.52,36.91z"/>
				<path class="st2" d="M451.5,36.06c0,0,0.03-2.65,4.18-3.48C455.68,32.58,454.84,36.38,451.5,36.06z"/>
				<path class="st2" d="M447.4,42.88c0,0,0.97-2.23-1.19-4.05c-0.75-0.64-0.79-1.03-0.79-1.03S444.58,42.08,447.4,42.88z"/>
				<path class="st2" d="M449.7,40.67c0,0-0.28-1.35,2.66-1.79c1.32-0.2,1.7-0.46,1.7-0.46S454.6,40.88,449.7,40.67z"/>
				<path class="st2" d="M446.83,46.24c0,0-0.5-1.82,3.25-2.49C450.08,43.76,449.47,46.42,446.83,46.24z"/>
			</g>
			<g>
				<path class="st2" d="M488.25,68.8c0,0-2.18-7.26,1.27-12.72c3.04-4.81,3.37-6.97,4.15-10.54c0,0,3.43-2.3,2.48-7.82
					c0,0-3.66,0.66-2.74,7.75c0,0-0.52,4.79-3.63,9.68c-4.2,6.6-1.69,12.67-1.8,13.58L488.25,68.8z"/>
				<path class="st2" d="M490.45,55.05c0,0,3,0.83,4.84-2.29c0.64-1.09,0.59-1.04,0.59-1.04S491.37,52.44,490.45,55.05z"/>
				<path class="st2" d="M489.92,44.39c0,0,1.41,2,1.61,4.52c0.17,2.27-0.24,2.96-0.24,2.96S487.84,47.95,489.92,44.39z"/>
				<path class="st2" d="M488.39,56.86c0,0,0.05-1.51-1.19-4.05c-0.32-0.65-0.79-1.03-0.79-1.03S485.57,56.06,488.39,56.86z"/>
				<path class="st2" d="M488.17,60.39c0,0-0.5-1.82,3.25-2.49C491.41,57.9,490.81,60.57,488.17,60.39z"/>
			</g>
		</g>
		<g>
			<g>
				<path class="st3" d="M235.72,36.15c0,0-3.9-21.4,3.01-26.74c0,0-3.77-2.19-1.91-5.92s3.74-0.91,3.74-0.91s1.11,0.09,1.26,1.05
					c0,0,0.49-1.27,2-0.85c1.51,0.42,2.64,6.89-4.22,6.73c0,0-7.28,2.47-3.17,26.66L235.72,36.15L235.72,36.15z"/>
				<path class="st3" d="M235.94,24.45c0,0-0.97-5.67,4.33-9.63c5.3-3.96,5.3-3.96,5.3-3.96S245.46,21.22,235.94,24.45z"/>
				<path class="st3" d="M232.57,28.87c0,0-2.83-8.4-9.05-5.93C223.52,22.94,225.02,25.45,232.57,28.87z"/>
				<path class="st3" d="M235.72,36.15c0,0-2.75-17.56-10.54-25.94c0,0,2.92-3.75-1.44-6.07c-3.87-2.06-3.12,1.24-3.12,1.24
					s-0.64,0.15-0.41,1.03c0,0-1.62,0.25-1.37,1.74c0.23,1.4,1.28,4.04,5.98,2.61c0,0,6.8,5.75,10.12,25.38L235.72,36.15
					L235.72,36.15z"/>
			</g>
			<path class="st3" d="M263.42,39.49c0,0,2.15-12.19,0-15.82c0,0-3.85,0-3.83-2.77c0.03-2.65,2.87-2.33,3.21-1.94
				c0,0-0.32-1.42,1.19-0.95c0,0-0.12-0.9,0.94-1c3.91-0.36,3.27,6.21-1.08,6.66c0,0,2.31,2.63,0,15.82H263.42z"/>
			<path class="st3" d="M378.26,39.97c0,0-1.17-12.25,0-15.82c0,0-4.05-0.01-3.83-2.77c0.23-2.84,4.07-2.42,3.46-1.36
				c0,0,0.83-0.76,1.25,0.19c0,0,0.59-0.96,1.53-0.46c1.87,1,0.44,4.86-1.98,4.4c0,0-1.13,1.93,0,15.82L378.26,39.97L378.26,39.97z"
				/>
			<path class="st3" d="M357.23,42.11c0,0,2.51-11.98-2.48-15.82c0,0-3.85,0-3.83-2.77c0.03-2.65,2.07-1.69,2.02-1.34
				c0,0-0.09-1.14,1.42-0.67c0,0,0.2-1.55,2.15-0.83c2.82,1.04,3.16,5.15-1.18,5.59c0,0,4.64,2.65,2.33,15.83H357.23z"/>
			<path class="st3" d="M129.56,51.73c0,0,2.13-12.61,0.08-24.44c0,0-3.84-0.41-3.83-2.77c0.02-2.65,1.47-2.74,1.9-2.35
				c0,0-0.09-1.14,1.42-0.67c0,0,0.44-1.26,2.02-0.87c3.81,0.93,2.8,5.85-1.08,6.66c0,0,2.23,11.25-0.08,24.44L129.56,51.73
				L129.56,51.73L129.56,51.73z"/>
			<g>
				<path class="st3" d="M416.3,52.29c0,0,2.57-15.9,10.1-22.71c0,0-4.08-2.62-1.07-5.5c2.67-2.56,2.99,1.07,2.99,1.07
					s1.34-0.47,1.49,0.49c0,0,1.22-1.28,2.33,0.17c0.82,1.07,1.91,7.35-5.31,4.35c0,0-5.86,2.7-9.81,22.12L416.3,52.29L416.3,52.29z
					"/>
				<path class="st3" d="M415.08,47.93c0,0,7.3-15.54,5.52-26.85c0,0,5.87-0.48,3.95-4.42s-3.41-1.43-3.41-1.43
					s-0.62-0.23-0.92,0.63c0,0-1.89-1.76-3.15,0.09c-0.85,1.25-1.79,3.88,2.95,4.9c0,0,2.02,9.14-5.6,26.63L415.08,47.93z"/>
				<path class="st3" d="M417.27,37.45c0,0,3.29-4.78-1.73-12.91C415.54,24.54,411.75,26.02,417.27,37.45z"/>
			</g>
			<g>
				<path class="st3" d="M475.62,62.38c0,0-1.25-20.43,6.7-29.12c0,0-4.71-2.75-1.98-5.9c3.01-3.47,3.73-0.96,3.73-0.96
					s1.27-0.24,1.43,0.72c0,0,0.81-1.13,2.35-0.09c1.75,1.17,1.79,7.67-4.67,6.31c0,0-7.63,5.56-6.86,29.04L475.62,62.38
					L475.62,62.38L475.62,62.38z"/>
				<path class="st3" d="M485.34,46.43c0,0-8.89,0.22-8.37,6.91C476.97,53.34,479.83,52.65,485.34,46.43z"/>
				<path class="st3" d="M480.78,64.39c-7.86-12.36-8.07-26.26-8.07-26.26c2.88-0.52,5.22-4.65,0.94-6.34
					c-3.75-1.48-3.63,0.86-3.63,0.86s-1.31-0.14-1.26,1.15c0,0-1.77-0.3-1.35,1.96c0.28,1.49,0.71,2.96,4.73,2.48
					c0,0,0.61,15.45,7.85,26.06L480.78,64.39z"/>
				<path class="st3" d="M473.4,48.86c0,0-1.04-3.3-3.75-4.54c-3.1-1.42-3.14-2.06-3.14-2.06S466.23,46.71,473.4,48.86z"/>
			</g>
			<g>
				<path class="st3" d="M303.98,40.88c0,0,1.1-13.98-0.08-22.87c0,0,4.62-0.51,4.02-3.26c-0.69-3.18-3.02-2.32-3.24-2.06
					c0,0,0.1-0.69-1.42-0.22c0,0-0.24-0.84-1.39-0.42c-3.69,1.34-2.76,5.52,1.59,5.96c0,0,0.99,5.01,0.08,22.87L303.98,40.88
					L303.98,40.88z"/>
				<path class="st3" d="M303.42,27.82c0,0,0.51-4.06-4.81-7.14C298.61,20.68,301.09,29.61,303.42,27.82z"/>
			</g>
			<g>
				<path class="st3" d="M165.25,42.23c0,0-4.14-21.36,2.71-26.78c0,0-5.5-3.15-2.02-6.74c2.14-2.21,2.41,0.31,2.41,0.31
					s1.09-1.15,1.82,0.91c0,0,1.41-1.89,2.8-1.18c2.84,1.45,1.99,7.96-4.14,6.78c0,0-7.25,2.55-2.87,26.7L165.25,42.23L165.25,42.23
					z"/>
				<path class="st3" d="M180.13,38.47c0,0,2.15-12.19,0-15.82c0,0-6.03,0.12-3.83-4.07c1.23-2.35,2.79-1.14,2.96-0.55
					c0,0,0.37-1.34,1.42-0.67c0,0,0.73-1.28,2.23-0.21c1.43,1.02,0.36,5.62-2.35,5.49c0,0,2.31,2.63,0,15.82H180.13z"/>
				<path class="st3" d="M164.9,25.96c0,0,4.26,0,5.1-2.47c0.37-1.09,1.27-2.31,1.27-2.31S167.53,20.06,164.9,25.96z"/>
			</g>
			<g>
				<path class="st3" d="M84.49,51.2c0,0,0.08-12.84-5.02-18.98c0,0,3.98-3.22,0.69-6.12c-3.3-2.9-3.59,0.99-3.59,0.99
					s-1.29-0.48-1.23,0.42c0,0-1.6-0.08-1.69,1.43c-0.14,2.38,0.49,3.44,5.21,3.87c0,0,4.76,4.48,4.86,18.21L84.49,51.2L84.49,51.2z
					"/>
				<path class="st3" d="M82.26,42.57c0,0-0.54-3.3-4.84-6.23C77.43,36.33,77.61,41.14,82.26,42.57z"/>
			</g>
			<g>
				<path class="st3" d="M43.22,63.19c0,0-17.31-24.08-12.17-31.15c0,0-4.23-1.04-3.5-5.14s3.57-1.4,3.57-1.4s0.79-1.22,1.21-0.34
					c0,0,0.2-1.18,1.74-0.92c1.58,0.26,4.32,6.16-2.16,7.64c0,0-6.74,3.85,12,31.11L43.22,63.19L43.22,63.19z"/>
				<path class="st3" d="M39.67,66.92c0,0-3.74-18.94-21.41-30.29c0,0,1.74-4.29-3.09-5.42c-4.27-1-2.19,1.59-2.19,1.59
					s-0.57,0.33-0.1,1.1c0,0-2.43,0.81-1.23,3.08c0.37,0.7,1.71,2.65,6.36,0.46c0,0,15.98,9.16,20.91,29.69L39.67,66.92L39.67,66.92
					z"/>
				<path class="st3" d="M16,45.62c0,0,4.64,5.03,12.83,3.23C28.83,48.85,29.76,45.11,16,45.62z"/>
				<path class="st3" d="M36.43,49.82c0,0-3.89-9.43,3.45-12.94c0,0-1.15,1.34-0.77,3.56C39.61,43.44,39.56,48.94,36.43,49.82z"/>
			</g>
		</g>
		<path class="st3" d="M93.45,46.38c0,0,1.24-6.55-5.06-8.49c0,0,7.7,0.1,9.06,6.8c0,0-2.16-7.89,4.03-11.83
			c0,0-3.24,3.51,0.54,9.52c0,0-0.19-4.64,3.12-5.87c0,0-2.31,3.09,2.27,8.28c0,0,2.04-4.32,0.62-5.85c0,0,1.85,0.45,3.37,4.17
			c0,0,0.53-9.7,8.83-10.71c0,0-6.41,3.11-1.44,11.16c0,0,3.21-2.08,2.45-5.47c0,0,3.39,0.39,4.68,4.79c0,0,2.38-6.47-1.47-8.2
			c0,0,3.43-0.1,5.19,3.68c0,0-0.62-5.32,2.62-6.52c0,0-2.53,1.29-0.78,9.67c0,0-0.18-6.92,4.16-9.91c0,0-3.12,6.51,3.87,8.77
			c0,0,1.97-5.4-1.22-8.18c0,0,6.33,3.69,4.51,9.28c0,0,6.24-3.08,6.36-8.4c0,0,3.24,1.68,4,5.82c0,0-0.78-4.58,2.52-6.55
			c0,0-1.76,5.32,7.05,6.8c0,0,1.13-3.01-1.26-4.53c0,0,2.73,0.6,4.29,1.93c0,0-2.72-3,0.25-6.96c0,0-2.52,3.62,3.53,8.05
			c0,0,1.53-1.83,0-4.28c0,0,5.25,2.44,4.25,6.25c0,0,1.47-6.97,5.72-8.83c0,0-2.81,2.94-0.17,8.61c0,0,2.56-4.58,2.06-6.34
			c0,0,1.63,0.69,2.1,4.27c0,0,3.94-3.99,1.05-8.04c0,0,3.79,1.94,4.98,9.59c0,0-2.34-7.95,3.07-10.09c0,0-2.9,2.77,0,5.04
			c0,0,0.5-2.26,1.89-2.26c0,0-1.49,1.76,2.81,5.12c0,0,1.47-2.6,0.09-4.36c0,0,2.77,0.75,2.77,4.91c0,0,0.88-4.16,2.89-4.28
			c0,0-1.19,4.58,3.47,5.49c0,0,1.1-0.08,1.35-4.71c0.25-4.54,2.9-6.26,3.91-6.14c0,0-2.81,0.57,0.72,10.14c0,0,3.03-2.07,2.39-6.23
			c0,0,2.48,0.85,2.64,6.1c0,0,1-7.01,6.89-10.86c0,0-0.94,4.95,3.17,7.32c0,0,1.97-4.41,0.4-6.22c0,0,3.73,2.86,2.14,9.31
			c0,0,2.86-9.87,8.27-10.63c0,0-2.82,1.51-1.51,6.08c0,0,1.51-0.28,1.51-3.18c0,0,1.55,2,0.79,5.15c0,0,2.45-1.92,2.08-3.18
			c0,0,0.81,0.82,0.18,1.79c0,0,2.05-4.04,5.54-5.34c0,0-3.57,3.03-2.89,9.19c0,0,2.89-3.14,2.89-6.17c0,0,1.76,2.64,1.01,7.05
			c0,0,3.02-1.66,2.77-4.73c0,0,1.38,2.34,1.26,4.6c0,0,0.86-9.04,6.14-11.05c0,0-2.08,3.56,2.77,8.87c0,0,2.39-1.69,1.89-4.21
			c0,0,2.72,1.15,2.97,6.44c0,0,0.33-10.03,4.49-11.92c0,0-3.47,2.46-0.39,10.73c0,0,1.26-2.79,3.9-3.47c0,0-1.89,2.24,0.88,3.6
			c0,0,1.26-4.28,0-6.42c0,0,2.53,0.79,2.9,6.43c0,0,1.45-1.6,1.32-6.63c-0.13-5.04,6.04-6.8,6.04-6.8s-5.73,4.4-4.35,14.85
			c0,0,3.26-1.19,2.26-6.17c0,0,2.01,0.95,2.81,5.36c0,0,2.06-2.67,1.59-4.84c0,0,4.16,3.93,4.28,5.69c0,0-0.46-10.72,5.96-12.86
			c0,0-4.41,3.27-0.63,11.71c0,0,2.22-2.12,0.63-6.55c0,0,1.79,0.9,3.11,6.88c0,0,0.67-6.64,7.21-7.64c0,0-3.66,3-2.28,7.78
			c0,0,0.45-2.47,2.28-4.13c0,0-1.05,2.64,2.22,4.41c0,0,3.34-3.44,2.64-7.55c0,0,2.65,1.19,2.26,8.43c0,0,0.62-1.58-0.06-3.47
			c-0.69-1.89-0.67-7.35,5.38-10.85c0,0-4.78,3.53-4.53,9.44c0,0,0.54-2.12,2.01-3.65c0,0-0.65,0.05-1.16,8.65
			c0,0,2.26-4.05,1.01-6.55c0,0,2.04,1.41,2.07,5.27c0,0-0.19-4.43,3.85-10.43c0,0-1.86,3.69,0.92,12.41c0.4-0.1,2.3-7.74,0.97-9.9
			c0,0,3.02,2.29,2.14,6.32c0,0,0.88-7.95,6.17-8.58c0,0-5.39,3.85,1.02,11.78c0,0,2.47-12.64,7.38-13.01c0,0-4.53,2.17-3.14,10.23
			c0,0,0.89-4.78,4.91-6.32c0,0-4.16,2.01,0,9.06c0,0,5.2-5.95,4.82-9.47c0,0,2.48,4.45-0.54,11.26c0,0,5.86-2.06,5.12-6.33
			c0,0,2.52,2.26,2.77,6.29c0,0,0.13-8.68,4.66-10.32c0,0-2.89,4.62,1.82,11.13c0,0,5-1.32,3.87-6.48c0,0,4.35,2.92,3.55,6.48
			c0,0,1.08-4.53,5.69-6.76c0,0-2.28,0.96-0.3,8.08c0,0,2.05-6.59,7.59-8.18c0,0-4.71,5.66,1.11,8.27c0,0,1.51-1.38-0.88-6.29
			c0,0,4.53,2.89,4.16,6.8c0,0,1.81-6.19,0.02-10.46c0,0,3.21,3.25,3.44,8.22c0,0-0.29,1.15,2.47-2.37
			c2.77-3.53,0.44-8.53,0.44-8.53s4.13,4.36,0.8,12.09c0,0,1.79-5.77,5.31-7.82c0,0-1.43,5.36,0,10.64c0,0,0.98-5.11,0.6-7.25
			c0,0,2.77,1.71,2.14,7.43c0,0,2.77-9.46,9.06-9.58c0,0-5.16,1.77-3.53,9.83c0,0,2.24-4.44,8.05-5.16c0,0-3.5,2.7,1.04,6.99
			c0,0,2.61-3.85,0.22-10.27c0,0,3.33,1.19,4.45,7.54c0,0,5.24-5.04,1.28-8.83c0,0,6.77,2.15,5.7,11.85c0,0-0.62-8.42,3.42-10.68
			c0,0-3.65,3.9,1.26,9.94c0,0,0.75-6.04,3.02-6.29c0,0-2.52,2.86,1.63,7.53c0,0,3.82-0.99,4.74-5.24c0,0,1.58,4.34,1.84,6.98
			c0,0,4.18-4.74,1.66-8.52c0,0,5.19,5.68,1.46,11.43c0,0,2.77-7.17,6.17-6.55c0,0-2.28,3.53,5.19,8.65c0,0-0.65-4.44,1.23-6.8
			c0,0-0.53,2.42,3.52,6.39c0,0,0.26-9-1.38-11.01c0,0,5.91,5.43,5.03,12.98c0,0,0.63-7.8,5.04-6.55c0,0-3.1,3.04,0.05,8.45
			c0,0,2.09-0.52,1.59-2.66c0,0,2.81,2.73,2.68,3.99c0,0,1.48-3.51-0.04-6.65c0,0,5.6,3.47,5.59,8.68c0,0,2.87-4.14,7.04-4.49
			c0,0-2.52,1.23,2.64,6.21c0,0,0.5-1.77,0-3.32c0,0,4.54,2.87,4.81,9.22c0,0,1.55-5.14-1.2-8.99c0,0,4.28,3.78,4.28,7.3
			c0,0-0.34-3.58,4.53-7.68l-3.68,295.19h-501c0,0-19.91-283.21,1.62-290.63c0,0-1.69,3.84,1.98,5.31c0,0,1.14-1.81,0-3.04
			c0,0,1.14-0.25,2.33,1.18c0,0-0.82-6.47,2.58-7.32c0,0-1.7,1.27,1.17,3.92c0,0,0.38-4.8,1.49-6.09c0,0,0.06,2.09,2.83,5.06
			c0,0,2.72-3.37,0.99-8.94c-0.74-2.37,1.07-3.87,1.07-3.87s-1.18,3.44,4.21,8.49c0,0,0.8-8.42,0.09-8.84c0,0,1.23,0.1,1.23,5.95
			c0,0,0.47-1.61,2.64-1.51c0,0-2.4,0.48-0.37,4.97c0,0-0.05-6.2,5.59-6.64c0,0-2.03,2.35,1.89,4.43c0,0,5.03-5.85,2.7-9.43
			c0,0,3.02,2.89,3.21,7.41c0,0,1.07-7.61,4.18-9.88c0,0-1.23,3.21,0.38,6.04c0,0,2.45-0.66,2.26-3.49c0,0,1.05,1.18,0.01,5.15
			c0,0,0.65-4.54,7.18-9.91c0,0-2.28,3.72,4.03,8.49c0,0,3.49-4.86-0.91-11.61c0,0,7.09,7.37,6.9,10.67c0,0,3.53-5.46,2-9.29
			c0,0,1.75,1.39,2.89,6.61c0,0,0.52-3.03,3.44-2.94c0,0-2.4,1.47,0.98,3.37c0,0,2.42-3.87,2.24-5.76c0,0,1.49,1.66-0.16,5.98
			c0,0,5.11-6.22,5.11-8.01c0,0,0.99,0.58,1.14,3.15c0,0,1.21-3.48,4.84-5.32c0,0-2.17,6.52-0.33,8.04c0,0,2.23-2.75,1.65-5.06
			c0,0,1.9,0.99,2.8,4.52c0,0-0.19-1.98,1.23-2.93C88.96,43.7,88.14,45.97,93.45,46.38z"/>
	</g>
</g>
<g>
</g>
<g>
</g>
<g>
</g>
<g>
</g>
<g>
</g>
<g>
</g>
</svg>
