<?xml version="1.0" encoding="utf-8"?>
<!-- Generator: Adobe Illustrator 30.0.0, SVG Export Plug-In . SVG Version: 9.03 Build 0)  -->
<svg version="1.1" id="レイヤー_1" xmlns="http://www.w3.org/2000/svg" xmlns:xlink="http://www.w3.org/1999/xlink" x="0px"
	 y="0px" viewBox="0 0 31.6 52.46" style="enable-background:new 0 0 31.6 52.46;" xml:space="preserve">
<style type="text/css">
	.st0{fill:none;stroke:#978474;stroke-miterlimit:10;}
</style>
<g>
	<path class="st0" d="M30.77,51.47c0,0-0.91-12.31-2.07-14.83c-1.73-3.74-7.74-10.32-9.17-10.51c-11.2-1.52-7.85,1.91-8.78,3.35
		c-1.23,1.93-7.2-0.71-4.88,2.51s7.1,6.19,15.85,2.9c4.58-1.72,4.66,2.03,5.66,5.98C30.77,54.25,30.77,51.47,30.77,51.47z"/>
	<path class="st0" d="M22.73,24.46c-0.54,0.16-1.04-3.16,0.39-5.48s3.01-0.06,2.32,1.48S23.62,24.2,22.73,24.46z"/>
	<path class="st0" d="M18.05,23.68c0,0-5.26-0.77-2.57-13.86c1.06-5.19,4.44-6.95,4.54-8.37c0.1-1.42,3.65-0.98,4.19,3.92
		s0.67,6.95-4.19,14.19C18.53,21.77,18.05,23.68,18.05,23.68z"/>
	<path class="st0" d="M12.97,21.22c-0.59,0.99-2.07,5.04-7.35-1.6s1.77-7.29,4.09-5.61S14.55,18.57,12.97,21.22z"/>
	<path class="st0" d="M7.3,10.08c-0.11,0.89-1.06,0.06-1.96,0c-0.9-0.06-2.58,0.97-3.76-2.97S0.6,2.4,2.27,1.44S7.84,5.56,7.3,10.08
		z"/>
</g>
<g>
</g>
<g>
</g>
<g>
</g>
<g>
</g>
<g>
</g>
<g>
</g>
</svg>
