<?xml version="1.0" encoding="utf-8"?>
<!-- Generator: Adobe Illustrator 30.0.0, SVG Export Plug-In . SVG Version: 9.03 Build 0)  -->
<svg version="1.1" id="レイヤー_1" xmlns="http://www.w3.org/2000/svg" xmlns:xlink="http://www.w3.org/1999/xlink" x="0px"
	 y="0px" viewBox="0 0 501 236.76" style="enable-background:new 0 0 501 236.76;" xml:space="preserve">
<style type="text/css">
	.st0{clip-path:url(#SVGID_00000107586920367016371390000009641060092813925551_);}
	.st1{fill:#D9D3CD;}
	.st2{fill:#B5A89C;}
	.st3{fill:#968374;}
	.st4{clip-path:url(#SVGID_00000107586920367016371390000009641060092813925551_);fill:#968374;}
	.st5{clip-path:url(#SVGID_00000024695481432081390210000015777153598420302777_);}
	.st6{clip-path:url(#SVGID_00000024695481432081390210000015777153598420302777_);fill:#968374;}
</style>
<g>
	<g>
		<defs>
			<rect id="SVGID_1_" x="285.3" width="215.7" height="236.53"/>
		</defs>
		<clipPath id="SVGID_00000091003513547562534700000018319404043169283490_">
			<use xlink:href="#SVGID_1_"  style="overflow:visible;"/>
		</clipPath>
		<g style="clip-path:url(#SVGID_00000091003513547562534700000018319404043169283490_);">
			<path class="st1" d="M431.82,81.28c0,0,4.99,10.23,11.17,5.35C443,86.62,436.77,79.53,431.82,81.28z"/>
			<path class="st1" d="M484.74,187.17c0,0,9.21,7.96,18.87-4.29C503.61,182.88,497.99,171.45,484.74,187.17z"/>
			<path class="st1" d="M485.9,175.72c0,0,19.65,6.69,21.44-4.13C507.34,171.59,499.15,160.01,485.9,175.72z"/>
			<path class="st1" d="M483.87,220.97c3.67-6.57,9.41-7.06,9.41-7.06C492.83,218.52,483.87,220.97,483.87,220.97z"/>
			<path class="st1" d="M442.56,98.69c0,0,7.4-3.88,5.01-14.07C447.57,84.62,441.89,83.44,442.56,98.69z"/>
			<path class="st1" d="M495.03,207.81c-6.05-3.25-10.31,6.48-10.31,6.48C494.78,215.54,495.03,207.81,495.03,207.81z"/>
			<path class="st1" d="M493.73,210.97c-1.36,7.21,7.55,8.6,7.55,8.6C500.5,207.26,493.73,210.97,493.73,210.97z"/>
			<path class="st1" d="M496.39,201.69c7.63,2.56,9.15,12.34,9.15,12.34C491.34,209.98,496.39,201.69,496.39,201.69z"/>
			<path class="st1" d="M475.63,91.23c0,0,11.28-17.47-0.97-22.16C474.66,69.07,461.17,82.2,475.63,91.23z"/>
			<path class="st1" d="M498.56,190.9c-10.73-1.51-14.06,6.99-14.06,6.99C499.61,199.8,498.56,190.9,498.56,190.9z"/>
			<path class="st1" d="M454.29,80.76c0,0-7.75,5.31-3.2,15.92C451.09,96.68,461.23,90.84,454.29,80.76z"/>
			<path class="st1" d="M489.86,138.45c0,0,17.37,7.01,19.49-8.35C509.34,130.1,497.74,125.86,489.86,138.45z"/>
			<path class="st1" d="M435.74,76.63c0,0,8.09-0.15,13.92,7.16C449.66,83.79,441.31,89.09,435.74,76.63z"/>
			<path class="st1" d="M462.52,96.85c0,0,9.55-12.21,0.22-20.37C462.74,76.48,453.51,85.22,462.52,96.85z"/>
			<path class="st1" d="M442.16,72.97c0,0,7.06,12.9,15.93,6.64C458.1,79.61,453.72,68.84,442.16,72.97z"/>
			<path class="st1" d="M488.27,229.83c-2.87,2.61,0.12,7.38,0.12,7.38C491.97,232.63,488.27,229.83,488.27,229.83z"/>
			<path class="st1" d="M488.85,226.67c-6.42-0.88-5.56,5.08-5.56,5.08C489.15,230.61,488.85,226.67,488.85,226.67z"/>
			<path class="st1" d="M496.94,200.67c-10.89-6.1-12.4,6.5-12.4,6.5C495.24,204.55,496.93,200.67,496.94,200.67z"/>
			<path class="st1" d="M497.97,193.94c-4.28,9.21,9.74,11.53,9.74,11.53C509.12,196.86,497.97,193.94,497.97,193.94z"/>
			<path class="st1" d="M483.01,225.4c2.69-6.29,8.17-4.56,8.17-4.56C490.01,226.86,483.01,225.4,483.01,225.4z"/>
			<path class="st1" d="M492.38,216.55c-2.65,7.25,2.94,10.72,2.94,10.72C498.79,217.97,492.38,216.56,492.38,216.55z"/>
			<path class="st1" d="M490.07,223.67c-3.76,5.73,2.62,8.21,2.62,8.21C494.29,225.52,490.07,223.67,490.07,223.67z"/>
			<path class="st1" d="M471.85,99.57c0,0,5.03,7.63,0.09,11.05C471.93,110.61,466.27,99.1,471.85,99.57z"/>
			<path class="st1" d="M327.48,16.16c0,0,5.42,5.59,9.4-0.14C336.88,16.02,333.58,12.13,327.48,16.16z"/>
			<path class="st1" d="M467.76,117.75c0,0,15.56,11.22,20.38,5.49C488.14,123.24,482.32,110,467.76,117.75z"/>
			<path class="st1" d="M452.87,135.62c0,0,8.39,5.14,10.84-0.39C463.71,135.23,458.7,131.16,452.87,135.62z"/>
			<path class="st1" d="M324.36,21.86c0,0,5.37,3.82,7.92-1.81C332.29,20.05,328.27,17.12,324.36,21.86z"/>
			<path class="st1" d="M488.57,143.24c0,0,16.33-12.12,7.74-22.71C496.3,120.53,482.02,124.01,488.57,143.24z"/>
			<path class="st1" d="M332.06,0c0,0,1.79,12.44,10.12,8.59C342.18,8.59,343.09,1.7,332.06,0z"/>
			<path class="st1" d="M321.23,34.48c0,0,3.12-2.07,1.83-3.89C323.06,30.59,319.53,32,321.23,34.48z"/>
			<path class="st1" d="M478.33,107.37c0,0,9.76,18.91,21.15,12.39C499.48,119.76,500.32,103.08,478.33,107.37z"/>
			<path class="st1" d="M327.21,3.2c0,0,7.73,1.73,8.3,7.69C335.51,10.9,327.67,14.27,327.21,3.2z"/>
			<path class="st1" d="M326.15,32.65c0,0,1.59-4.21-0.95-4.64C325.2,28,323.03,31.4,326.15,32.65z"/>
			<path class="st1" d="M334.01,25.45c0,0,6.41-6.87,1.46-8.62C335.48,16.83,331.33,20.85,334.01,25.45z"/>
			<path class="st1" d="M469.45,132.15c0,0-7.28,2.04-3.8,11.3C465.65,143.44,472.69,139.47,469.45,132.15z"/>
			<path class="st1" d="M328.59,24.05c0,0-5.29-1.98-6.08,1.6C322.51,25.65,328.16,28.42,328.59,24.05z"/>
			<path class="st1" d="M331.62,28.14c0,0,2.69-3.16-0.11-7.28C331.51,20.86,327.77,22.29,331.62,28.14z"/>
			<path class="st1" d="M341.56,49.49c0,0,3.6,0.77,5.2-2.88C346.77,46.62,343.59,45.18,341.56,49.49z"/>
			<path class="st1" d="M327.87,24.77c0,0-2,4.23,1.12,6.74C328.99,31.51,331.76,26.38,327.87,24.77z"/>
			<path class="st1" d="M337.17,21.5c0,0,8.28-6.3,1.51-11.98C338.69,9.53,333.37,13.87,337.17,21.5z"/>
			<path class="st1" d="M345.7,52.7c0,0,2.29-2.92,0.16-4.04C345.85,48.66,343.16,50.2,345.7,52.7z"/>
			<path class="st1" d="M457.24,138.67c0,0-7.95,2.07-2.63,7.62C454.62,146.29,458.02,141.48,457.24,138.67z"/>
			<path class="st1" d="M458.08,144.88c0,0,6.76-3.71,4.3-8.62C462.38,136.26,456.87,137.02,458.08,144.88z"/>
			<path class="st1" d="M320.27,29.84c0,0,5.42,1.89,5.18-2.45C325.44,27.39,322.17,26.55,320.27,29.84z"/>
			<path class="st1" d="M341.85,12.3c0,0-3.84-6.53-11.32-0.45C330.53,11.85,334.52,16.6,341.85,12.3z"/>
			<path class="st1" d="M476.7,127.79c0,0,4.83,8.07-4.16,14.73C472.55,142.53,467.56,131.94,476.7,127.79z"/>
			<path class="st1" d="M339.49,22.64c0,0,4.5-4.05,0.91-10.2C340.4,12.45,334.82,14.77,339.49,22.64z"/>
			<path class="st1" d="M373.55,47.95c0,0,5.52-1.48,3.27-6.09C376.82,41.86,373.14,42.59,373.55,47.95z"/>
			<path class="st1" d="M376.76,51.14c0,0,4.49-1.82,2.01-5.62C378.78,45.52,375.38,46.85,376.76,51.14z"/>
			<path class="st1" d="M361.78,59.13c0,0,7.35-0.66,5.36-5.67C367.15,53.46,363.13,52.71,361.78,59.13z"/>
			<path class="st1" d="M387.11,55.89c0,0-0.67-2.67-2.25-2.21C384.86,53.67,384.98,56.46,387.11,55.89z"/>
			<path class="st1" d="M363.64,63.93c0,0,0.63-4.62,4.09-5.24C367.73,58.68,370.09,63.11,363.64,63.93z"/>
			<path class="st1" d="M387.39,52.15c0,0-2.95-1.49-3.47,0.33C383.92,52.48,386.23,54.33,387.39,52.15z"/>
			<path class="st1" d="M383.6,45.18c0,0-4.77-4.99-6.26-1.43C377.34,43.75,380.11,46.96,383.6,45.18z"/>
			<path class="st1" d="M380.29,48.2c0,0-2.49,3.32-0.14,4.61C380.16,52.82,383.28,49.41,380.29,48.2z"/>
			<path class="st1" d="M384.31,47.93c0,0-1.53-2.64-5.07-1.7C379.24,46.22,379.32,49.17,384.31,47.93z"/>
			<path class="st1" d="M381.48,49.82c0,0,2.44,2.42,4.94,0.87C386.42,50.69,383.54,47.52,381.48,49.82z"/>
			<path class="st1" d="M374.14,66.56c0,0-1.07-5.62-5.45-3.66C368.69,62.91,369.52,66.59,374.14,66.56z"/>
			<path class="st1" d="M382.79,55.14c0,0,2.63-3.29-0.43-4.18C382.36,50.95,380.97,53.02,382.79,55.14z"/>
			<path class="st1" d="M323.97-2.4c-3.2,3.22,0.83,5.91,0.83,5.91C327.02-0.4,323.96-2.4,323.97-2.4z"/>
			<path class="st1" d="M316.35,4.34c-1.45-0.76-2.65,1.71-2.65,1.71C315.67,7.05,316.35,4.34,316.35,4.34z"/>
			<path class="st1" d="M317.51,3.37c-0.13-1.89-3.33-1.03-3.33-1.03C314.87,4.71,317.51,3.37,317.51,3.37z"/>
			<path class="st1" d="M321.13,4.47c2.57-0.79,0.81-4.54,0.81-4.54C318.76,0.5,321.13,4.47,321.13,4.47z"/>
			<path class="st1" d="M315.43,1.11c2.14,2.03,5.02,0.15,5.02,0.15C318.89-1.41,315.43,1.11,315.43,1.11z"/>
			<path class="st1" d="M319.35,2.19c-3.18,0.25-1.27,4.01-1.27,4.01C320.29,4.5,319.35,2.2,319.35,2.19z"/>
			<path class="st1" d="M373.03,63.23c0,0,1.19-6.77-5.42-5.31C367.61,57.92,367.89,60.2,373.03,63.23z"/>
			<path class="st1" d="M366.01,69.82c0,0,4.4-0.7,2.68-6.09C368.69,63.73,365.23,64.88,366.01,69.82z"/>
			<path class="st1" d="M373.59,54.37c0,0-6.88-2.68-6.56-8.24C367.03,46.13,374.72,44.12,373.59,54.37z"/>
			<path class="st1" d="M360.2,53.6c0,0,8.14,0.59,7.04-6.17C367.23,47.43,361.86,47.23,360.2,53.6z"/>
			<path class="st1" d="M367.29,52.08c0,0-1.75,4.89,4.73,6.14C372.02,58.22,372.77,54.04,367.29,52.08z"/>
			<path class="st1" d="M373.92,71.29c0,0-0.24-3.55-4.38-4.13C369.55,67.16,368.59,70.58,373.92,71.29z"/>
			<path class="st1" d="M457.36,128.63c0,0,5.43,9.8,13.89,2.44C471.25,131.06,467.33,124.63,457.36,128.63z"/>
			<path class="st1" d="M486.14,233.94c-4.48,0.16-4.32,4.2-4.32,4.2C485.69,237.43,486.14,233.94,486.14,233.94z"/>
			<path class="st1" d="M491.86,101.25c0,0,24.29-3.46,23.52,16.6C515.38,117.85,504.08,122.94,491.86,101.25z"/>
			<path class="st1" d="M465.71,75.13c0,0-2.23-14.52-17.25-10.88C448.46,64.25,452.42,78.48,465.71,75.13z"/>
			<path class="st1" d="M422.17,92.88c0,0-2.34-5.08-7.2-2.44C414.97,90.44,418.65,95.03,422.17,92.88z"/>
			<path class="st1" d="M498.18,178.45c0,0,3.68-6.32-3.65-9.25C494.53,169.2,490.95,175.39,498.18,178.45z"/>
			<path class="st1" d="M483.86,175.96c0,0,7.03,2.99,8.31-3.2C492.17,172.76,487.69,170.52,483.86,175.96z"/>
			<path class="st1" d="M491.76,183.47c0,0,2.98-7.66-0.67-9.04C491.09,174.43,485.5,178.28,491.76,183.47z"/>
			<path class="st1" d="M477.49,183.13c0,0,5.37,3.08,6.81-0.44C484.31,182.68,481.08,180.21,477.49,183.13z"/>
			<path class="st1" d="M480.14,179.96c0,0,7.79,3.35,7.9-1.86C488.05,178.1,483.38,175.78,480.14,179.96z"/>
			<path class="st1" d="M485.36,186.81c0,0,4.5-1.56,1.96-7.24C487.31,179.57,483.04,182.33,485.36,186.81z"/>
			<path class="st1" d="M503.32,175.19c0,0,3.7-10.23-5.37-11.26C497.95,163.93,495.74,170.76,503.32,175.19z"/>
			<path class="st1" d="M485.45,169.32c0,0,6.53,5.12,10.9-1.7C496.35,167.62,491.89,164.41,485.45,169.32z"/>
			<path class="st1" d="M490.73,148.29c0,0,11.93,5.84,16.52-6.29C507.25,142,499.2,138.45,490.73,148.29z"/>
			<path class="st1" d="M474.11,187.35c0,0,3.67,3.64,4.97-1.03C479.08,186.32,475.38,186.02,474.11,187.35z"/>
			<path class="st1" d="M480.69,189.77c0,0,4.08-2.62,2.33-5.6C483.02,184.17,479.59,184.89,480.69,189.77z"/>
			<path class="st1" d="M490.12,156.59c0,0,9.17,5.31,15.18-5.41C505.3,151.18,496.66,147.18,490.12,156.59z"/>
			<path class="st1" d="M488.08,163.91c0,0,5.13,6.09,12.31-2.79C500.4,161.12,497.3,154.61,488.08,163.91z"/>
			<path class="st1" d="M420.97,99.4c0,0-1.32-6.27,5.08-7.51C426.04,91.89,426.1,96.24,420.97,99.4z"/>
			<path class="st1" d="M414.98,99.16c0,0,5.77-2.1,4.41-5.98C419.39,93.18,413.69,92.68,414.98,99.16z"/>
			<path class="st1" d="M408.63,93.83c0,0,2.24,4.18,6.32,0.08C414.95,93.91,413.3,90.59,408.63,93.83z"/>
			<path class="st1" d="M463.47,122.72c0,0,6.91,10.89,15.56,3.99C479.03,126.71,473.51,118.39,463.47,122.72z"/>
			<path class="st1" d="M437.63,98.28c0,0,4.28-6.49,2.2-10.75c0,0-5.27,0.92-3.08,6.23C437.43,95.42,437.63,98.28,437.63,98.28z"/>
			<path class="st1" d="M478.34,142.03c0,0,12.3-7.96,7.8-18C486.14,124.03,477.57,124.28,478.34,142.03z"/>
			<path class="st1" d="M468.61,114.67c0,0,2.82-9.54-0.68-10.56C467.93,104.12,462.58,109.6,468.61,114.67z"/>
			<path class="st1" d="M454.25,116.59c0,0-2.75-2.62-5.85,1.26C448.4,117.85,451.92,119.86,454.25,116.59z"/>
			<path class="st1" d="M461.96,110.79c0,0-3.55,3.11-7.65-0.73C454.3,110.05,459.08,106.64,461.96,110.79z"/>
			<path class="st1" d="M457.49,119.19c0,0,5.18-2.19,1.96-6.81C459.45,112.39,456.02,114,457.49,119.19z"/>
			<path class="st1" d="M455.66,106.88c0,0,5.47-5.6,10.79-0.23C466.46,106.65,462.12,109.69,455.66,106.88z"/>
			<path class="st1" d="M450.47,113.45c0,0,4.77,4.2,7.24,0.25C457.72,113.71,453.97,110.53,450.47,113.45z"/>
			<path class="st1" d="M462.44,117.93c0,0,5.14-5.27,1.82-9.68C464.26,108.25,460.09,109.32,462.44,117.93z"/>
			<path class="st1" d="M465.88,83.73c0,0,6.94-13.36,18.86-5.05C484.75,78.69,478.57,86.53,465.88,83.73z"/>
			<path class="st1" d="M490.62,98.17c0,0,3.11-15.54-7.26-17.16C483.36,81.01,477.42,88.85,490.62,98.17z"/>
			<path class="st1" d="M426.5,83.97c0,0,2.06,8.41,8.73,5.62C435.23,89.59,435.23,85.53,426.5,83.97z"/>
			<path class="st1" d="M462.59,43.47c0,0,12.86,26.36,28.8,13.78C491.39,57.25,475.34,38.96,462.59,43.47z"/>
			<path class="st1" d="M488.65,89.31c0,0,13.84-13.84-1.49-29.53C487.15,59.78,472.58,63.07,488.65,89.31z"/>
			<path class="st1" d="M501.44,87.75c0,0-12.14-14.78-5.33-36.17C496.11,51.57,519.44,59.37,501.44,87.75z"/>
			<path class="st1" d="M454.49,53.53c0,0,5.3,21.68,22.5,14.49C476.99,68.02,476.98,57.55,454.49,53.53z"/>
			<path class="st1" d="M428.73,91.47c0,0-1.72-5.87-7.72-3.44C421,88.04,423.41,93.67,428.73,91.47z"/>
			<path class="st1" d="M432,90.31c0,0-3.47,4.26-3.18,7.82C428.81,98.13,438.29,96.6,432,90.31z"/>
			<path class="st1" d="M322.03,22.01c0,0,8.61-4.29,4.44-9.48C326.47,12.53,320.52,17.84,322.03,22.01z"/>
			<path class="st1" d="M458.09,101.53c0,0,6.65,4.36,12.25-0.02C470.34,101.52,468.04,97.09,458.09,101.53z"/>
			<path class="st1" d="M323.42,13.72c0,0-1.14-5.84-7.54-5.36C315.88,8.36,316.8,15.76,323.42,13.72z"/>
			<path class="st1" d="M341.97,44.13c0,0,2.23-3.43,6.73-3.15C348.7,40.98,348.42,46.43,341.97,44.13z"/>
			<path class="st1" d="M351.72,48.04c0,0,3.65-5.88-2.26-8.24C349.46,39.79,345.91,44.06,351.72,48.04z"/>
			<path class="st1" d="M475.48,94.95c0,0-4.48,6.7,3.05,13.12C478.54,108.07,482.01,101.62,475.48,94.95z"/>
			<path class="st1" d="M349.29,51.05c0,0,3.34-1.88-1.84-6.16C347.46,44.89,343.84,45.76,349.29,51.05z"/>
			<path class="st1" d="M348.16,28.43c0,0,5.49,3.67,10.57-1.33C358.73,27.11,354.4,22.61,348.16,28.43z"/>
			<path class="st1" d="M358.97,39.17c0,0,1.93-8.38-3.52-8.86C355.44,30.31,351.36,36.09,358.97,39.17z"/>
			<path class="st1" d="M350.84,20.68c0,0,6.68-3,13.2,1.8C364.04,22.48,358.31,30.41,350.84,20.68z"/>
			<path class="st1" d="M363.55,36.72c0,0,5.98-3.37-3.29-11.04C360.26,25.69,353.78,27.24,363.55,36.72z"/>
			<path class="st1" d="M343.22,40.41c0,0,5.47,1.58,8.33-3.85C351.56,36.56,346.82,34,343.22,40.41z"/>
			<path class="st1" d="M345.77,34.08c0,0,5.29,2.57,9.17-2.46C354.94,31.62,350.57,28.18,345.77,34.08z"/>
			<path class="st1" d="M355.34,42.83c0,0,1.89-7.43-3.08-7.77C352.25,35.06,348.45,40.23,355.34,42.83z"/>
			<path class="st1" d="M375.68,47.93c0,0-6.22-1.09-8.54-7.67C367.14,40.26,375.06,37.38,375.68,47.93z"/>
			<path class="st1" d="M358.08,39.73c0,0,9.14,3.35,10.72-5.45C368.8,34.28,361.91,30.59,358.08,39.73z"/>
			<path class="st1" d="M359.03,46.58c0,0,3.81,4.53,8.82-4.55C367.85,42.03,365.49,36.79,359.03,46.58z"/>
			<path class="st1" d="M306.76,15.25c0,0-0.44-4.71-5.05-3.97C301.71,11.28,303.36,15.97,306.76,15.25z"/>
			<path class="st1" d="M463.47,95.47c0,0,4.43,7.38,11.84,0.25C475.31,95.72,471.36,90.23,463.47,95.47z"/>
			<path class="st1" d="M304.86,20.05c0,0,0.32-5.41,5.81-5C310.66,15.06,309.75,18.61,304.86,20.05z"/>
			<path class="st1" d="M300.08,18.92c0,0,5.17-0.46,4.9-3.92C304.98,14.99,300.43,13.34,300.08,18.92z"/>
			<path class="st1" d="M296.16,14.74c0,0,2.14,3.38,5.33-0.32C301.49,14.42,299.9,11.72,296.16,14.74z"/>
			<path class="st1" d="M316.22,20.74c0,0,5.87-2.94,6.15-6.94c0,0-4.98-0.33-5.62,4.49C316.54,19.8,316.22,20.74,316.22,20.74z"/>
			<path class="st1" d="M310.66,8.76c0,0,0.5,7.3,6.47,5.93C317.14,14.69,317.71,11.31,310.66,8.76z"/>
			<path class="st1" d="M312.37,14.92c0,0-0.75-5.11-6.06-3.78C306.31,11.13,307.66,16.14,312.37,14.92z"/>
			<path class="st1" d="M328.25,22.01c0,0,9.6-3.38,5.56-10.87C333.81,11.13,329.06,11.62,328.25,22.01z"/>
			<path class="st1" d="M329.18,12.67c0,0-0.57-7.17-8.07-5.8C321.12,6.86,322.54,13.93,329.18,12.67z"/>
			<path class="st1" d="M333.15,5.6c0,0,8.09,9.61,13.13,1.96C346.28,7.56,343.41,1.22,333.15,5.6z"/>
			<path class="st1" d="M485.52,104.91c0,0,4.39-13.41-7.41-14.39C478.11,90.52,475.52,99.46,485.52,104.91z"/>
			<path class="st1" d="M488.95,71.49c0,0,14.86,9.11,9.1,19.03C498.04,90.51,478.93,75.2,488.95,71.49z"/>
			<path class="st1" d="M489.42,60.69c0,0-0.96,15.36,17.62,18.73C507.04,79.42,506.59,65.44,489.42,60.69z"/>
			<path class="st1" d="M468.25,71.24c0,0,9.39,10.88,20.27-3.75C488.52,67.49,480.42,59.63,468.25,71.24z"/>
			<path class="st1" d="M465.43,60.54c0,0,17.99,12.58,24.77-4.55C490.19,56,478.06,48.1,465.43,60.54z"/>
			<path class="st1" d="M341.92,20.56c0,0,13.3-5.52,4.1-14.29C346.03,6.28,342.23,9.19,341.92,20.56z"/>
			<path class="st1" d="M343.81,21.42c0,0,7.48-6.9,0.81-12.18C344.62,9.23,340.45,11.55,343.81,21.42z"/>
			<path class="st1" d="M479.81,89.41c0,0-6.83-7.87-14.41,0.17C465.41,89.58,473.15,96.6,479.81,89.41z"/>
			<path class="st1" d="M314.99,14.47c0,0-3.85,2.59-4.51,5.54C310.48,20,318.52,21.1,314.99,14.47z"/>
		</g>
		<g style="clip-path:url(#SVGID_00000091003513547562534700000018319404043169283490_);">
			<path class="st2" d="M490.36,184.24c0,0,6.42-15.23,15.88-15.87C506.24,168.37,512.62,186.02,490.36,184.24z"/>
			<path class="st2" d="M402.61,68.69c0,0,9.6,2.34,12.09-7.34C414.69,61.36,406.35,58.07,402.61,68.69z"/>
			<path class="st2" d="M413.64,71.67c0,0,13.75-0.03,10.65-10.84C424.29,60.83,414.18,61.07,413.64,71.67z"/>
			<path class="st2" d="M439.66,88.85c-2.2-7.31-8.52-4.8-8.52-4.8C436.34,94.11,439.66,88.85,439.66,88.85z"/>
			<path class="st2" d="M503.02,185.82c0,0,1.09,7.93-13.87,14.86C489.15,200.68,488.87,185.48,503.02,185.82z"/>
			<path class="st2" d="M460.04,83.05c-10.25,1.99-7.11,14.35-7.11,14.35C465.47,93.9,460.04,83.05,460.04,83.05z"/>
			<path class="st2" d="M426.85,61.42c0,0-10.54-0.35-9.6-14.66C417.26,46.76,432.81,51.24,426.85,61.42z"/>
			<path class="st2" d="M395.58,53.57c0,0,6.23,8.79,12.14,6.74C407.71,60.32,403.19,52.27,395.58,53.57z"/>
			<path class="st2" d="M449.76,83.74c2.97,1.86,7.08,0.88,7.08,0.88c-1.65-13.23-12.73-7.02-12.73-7.02
				C445.83,77.95,446.79,81.88,449.76,83.74z"/>
			<path class="st2" d="M442.29,88.4c-10.82,3.17-6.67,10.74-6.67,10.74C443.01,91.26,442.29,88.4,442.29,88.4z"/>
			<path class="st2" d="M488.41,209.75c0,0,9.68,1.31,11.58-10.71C499.99,199.05,490.97,195.62,488.41,209.75z"/>
			<path class="st2" d="M433.61,89.4c-2.48-2.24-7.26-1.63-7.26-1.63C432.35,94.3,433.61,89.4,433.61,89.4z"/>
			<path class="st2" d="M435.82,70.41c3.12-3.76,3.46-9.62,3.46-9.62c-15.42-0.12-12.33,16.3-12.33,16.3
				C427.96,74.78,432.7,74.17,435.82,70.41z"/>
			<path class="st2" d="M439.31,41.05c0,0-1.6,17.79,18.01,17.53C457.32,58.58,461.16,42.53,439.31,41.05z"/>
			<path class="st2" d="M455.63,33.82c0,0-3.26,24.52,16.74,21.61C472.37,55.43,474.4,37.34,455.63,33.82z"/>
			<path class="st2" d="M487.97,68.12c2.09-8.54-1.97-18.29-1.97-18.29c-25.04,11.95-7.11,36.07-7.11,36.07
				C478.7,81.39,485.88,76.67,487.97,68.12z"/>
			<path class="st2" d="M394.77,66.86c0,0,10.82-2.73,8.2-6.87C402.97,59.99,394.26,58.83,394.77,66.86z"/>
			<path class="st2" d="M472.77,92.98c0,0,2.98,13.1,14.62,11.9C487.38,104.87,486.12,92.93,472.77,92.98z"/>
			<path class="st2" d="M476.28,111.26c0,0,14.66,8.93,18.41-4.59C494.69,106.67,483.77,100.33,476.28,111.26z"/>
			<path class="st2" d="M468.7,108.87c0,0,7.64,3.7,11.05-5.19C479.74,103.67,476.09,96.82,468.7,108.87z"/>
			<path class="st2" d="M492.1,89.04c0,0-5.25,16.32,8.12,19.85C500.22,108.89,508.37,94.8,492.1,89.04z"/>
			<path class="st2" d="M487.67,116.03c0,0,13.58-10.38,22.07-3.72C509.74,112.31,511.55,129.62,487.67,116.03z"/>
			<path class="st2" d="M454.51,59.29c0,0,6.02,11.6-12.59,17.28C441.92,76.57,438.02,57.6,454.51,59.29z"/>
			<path class="st2" d="M387.44,57.57c0,0,5.86,6.07,9.47,1.38C396.91,58.94,394.41,53.71,387.44,57.57z"/>
			<path class="st2" d="M329.97,54.29c0,0,4.44-3.75,1.2-6.39C331.17,47.9,326.08,48.43,329.97,54.29z"/>
			<path class="st2" d="M506.78,145.89c-12.95-13-22.71-3.04-22.71-3.04C495.79,155.6,506.78,145.89,506.78,145.89z"/>
			<path class="st2" d="M480.84,92.82c0,0,13.84-16.02-1.59-24.62C479.24,68.19,469.21,79.16,480.84,92.82z"/>
			<path class="st2" d="M464.04,98.55c0,0,17.03-10.27,4.73-20.76C468.77,77.79,459.87,84.83,464.04,98.55z"/>
			<path class="st2" d="M509.28,205.05c0,0,5.54-7.68-7.07-13.93C502.22,191.12,495.46,200.67,509.28,205.05z"/>
			<path class="st2" d="M473.85,163.06c6.28,5.44,16.57,1.44,16.57,1.44C487.72,152.42,473.85,163.06,473.85,163.06z"/>
			<path class="st2" d="M447.28,87.36c2.47-7.42-10.26-7.45-10.26-7.45C438.86,87.5,447.29,87.36,447.28,87.36z"/>
			<path class="st2" d="M478.54,68.39c-8.05-16-21.64-7.64-21.64-7.64C473,81.9,478.54,68.39,478.54,68.39z"/>
			<path class="st2" d="M498.31,62.48c-2.65-6.58-10.04-8.82-10.04-8.82C477,80.94,500.63,80.05,500.63,80.05
				C498.35,77.62,500.97,69.06,498.31,62.48z"/>
			<path class="st2" d="M486.44,58.08c-1.41-15.94-26.43-6.93-26.43-6.93C470.02,64.36,486.45,58.07,486.44,58.08z"/>
			<path class="st2" d="M480.47,171.87c-5.79,5.3-0.11,11.53-0.11,11.53C487.85,174.14,480.46,171.87,480.47,171.87z"/>
			<path class="st2" d="M483.3,169.84c-2.32-7.2-14.04,0.13-14.04,0.13C477.51,176.81,483.3,169.84,483.3,169.84z"/>
			<path class="st2" d="M466.15,178.15c4.31,4.6,9.21-2.33,9.21-2.33C471.2,171.18,466.15,178.15,466.15,178.15z"/>
			<path class="st2" d="M499.37,201.23c0,0-5.94,7.44,6.05,10.22C505.41,211.45,506.89,204.24,499.37,201.23z"/>
			<path class="st2" d="M469.64,56.03c-17.61,6.77-8.52,26.89-8.52,26.89C480.35,71.33,469.64,56.03,469.64,56.03z"/>
			<path class="st2" d="M497.9,156.35c0,0-5.18-12.7-18.59-3.82C479.31,152.52,486.32,163.41,497.9,156.35z"/>
			<path class="st2" d="M489.82,180.83c0.57-2.62,2.97-4.66,3.54-7.28c0.92-4.21-3.96-8.58-3.96-8.58
				C480.63,174.87,489.54,182.1,489.82,180.83z"/>
			<path class="st2" d="M462.2,105.8c0,0,5.64-2.39,10.03-2.44C472.23,103.35,467.29,96.42,462.2,105.8z"/>
			<path class="st2" d="M366.55,63.68c0,0,3.16-6.38-4.66-9.13C361.88,54.55,359.18,59.89,366.55,63.68z"/>
			<path class="st2" d="M354.67,63.67c0,0,8.05,0.03,6.54-6.85C361.21,56.83,355.28,56.94,354.67,63.67z"/>
			<path class="st2" d="M467.71,79.07c-1.97-14.05-16.54-9.38-16.54-9.38C456.89,82.25,467.71,79.07,467.71,79.07z"/>
			<path class="st2" d="M355.32,46.36c0,0,12.37,1.09,12.72-8.93C368.03,37.43,356.76,33.94,355.32,46.36z"/>
			<path class="st2" d="M357.41,35.35c0,0,14.23,3.31,16.56-7.83C373.96,27.53,361.48,21.72,357.41,35.35z"/>
			<path class="st2" d="M378.1,50.64c0,0,2.02-9.05-9.29-14.31C368.81,36.33,363.96,48.19,378.1,50.64z"/>
			<path class="st2" d="M355.32,56.63c0,0,7.6-3.05,8.65-8.16C363.97,48.47,356.63,42.76,355.32,56.63z"/>
			<path class="st2" d="M364.41,46.4c0,0-2.93,7.58,6.41,13.19C370.82,59.59,376.21,47.36,364.41,46.4z"/>
			<path class="st2" d="M362.97,71.65c0,0-2.05-4.46-2.2-7.97C360.77,63.68,355.34,67.8,362.97,71.65z"/>
			<path class="st2" d="M500.8,174.93c0,0-4.26-2.68-6.1-7.29c-1.84-4.61,2.02-10.74,2.02-10.74
				C507.94,166.42,501.44,171.87,500.8,174.93z"/>
			<path class="st2" d="M440.8,60.76c2.08-17.28-14.63-14.49-14.63-14.49C429.91,60.07,440.8,60.76,440.8,60.76z"/>
			<path class="st2" d="M407.17,50.66c0.23,7.72,8.6,10.98,8.6,10.98C421.7,51.24,407.17,50.65,407.17,50.66z"/>
			<path class="st2" d="M496.41,210.62c0,0-3.98,4.22-5.7,10.57C490.72,221.19,500.89,216,496.41,210.62z"/>
			<path class="st2" d="M353.66,24.31c0,0-9.48,7.07,2.54,15.72C356.21,40.03,365.95,34.56,353.66,24.31z"/>
			<path class="st2" d="M450.47,86.86c0,0-6.74,0.24-7.55,10.51C442.92,97.36,454.03,97.54,450.47,86.86z"/>
			<path class="st2" d="M326.17,32.06c0,0,11.23,9.95,18.39-0.27c0,0-4.68-2.6-9.06-2.36C331.13,29.68,328.42,32.51,326.17,32.06z"
				/>
			<path class="st2" d="M333.54,43.68c0,0-6.77-1.71-7.01,3.47C326.53,47.15,333.42,48.8,333.54,43.68z"/>
			<path class="st2" d="M360.57,19.7c0,0-2.65-9.34-19.12-3.53C341.44,16.17,352.77,29.96,360.57,19.7z"/>
			<path class="st2" d="M335.94,22.87c0,0,3.09,4.44,7.22,6.88c2.84,1.67,8.06-0.32,8.57-4.63
				C351.73,25.11,348.6,20.68,335.94,22.87z"/>
			<path class="st2" d="M347.06,43.48c7.19-6.28-1.83-12.43-1.83-12.43C338.32,39.59,347.06,43.48,347.06,43.48z"/>
			<path class="st2" d="M334.77,51.57c4.31-5.42-0.32-8.56-0.32-8.56C330.97,47.72,334.77,51.57,334.77,51.57z"/>
			<path class="st2" d="M337.87,39c0,0-4.43-3-7.25-2.14c-1.76,0.54-2.62,2.26-4.38,2.8C325.38,39.92,332.93,45.46,337.87,39z"/>
			<path class="st2" d="M338.58,37.79c0,0,4.34,2.88,4.41,5.94c0.07,3.06-2.04,5.44-2.04,5.44
				C339.65,47.49,333.74,45.51,338.58,37.79z"/>
		</g>
		<g style="clip-path:url(#SVGID_00000091003513547562534700000018319404043169283490_);">
			<path class="st3" d="M301.26,26.74c-0.13,0.12,8.01,5.83,14.31-1.77C315.57,24.98,307.87,20.73,301.26,26.74z"/>
			<path class="st3" d="M314.91,10.12c-0.18,0.1,8.65,9.48,17.62,2.4C332.53,12.51,323.97,5.02,314.91,10.12z"/>
			<path class="st3" d="M501.15,196.15c0,0,4.67-7.18-6.09-17.11C495.06,179.04,486.45,187.69,501.15,196.15z"/>
			<path class="st3" d="M471.93,142.89c0,0,8.33,0.82,8.72-16.09C480.64,126.8,469.08,126.53,471.93,142.89z"/>
			<path class="st3" d="M321.3,20.24c0,0-6.25,4.83-16.42,0.24C304.88,20.48,315.12,10.07,321.3,20.24z"/>
			<path class="st3" d="M339.21,7.63c0,0-8.66,4.87-20.49-2.69C318.72,4.94,333.35-6.16,339.21,7.63z"/>
			<path class="st3" d="M304.71,41.07c0,0,4.45-3.55,3.77-10.22C308.49,30.86,300.58,32.13,304.71,41.07z"/>
			<path class="st3" d="M291.91,4.79c0,0,4.13,3.13,7.57,0.81C299.48,5.61,298.23,1.86,291.91,4.79z"/>
			<path class="st3" d="M347.26,51.85c0,0,5.93,3.73,8.53-4.53C355.79,47.32,350.46,43.99,347.26,51.85z"/>
			<path class="st3" d="M462.78,117.37c0,0,14.19-9.64,21.1,7.01C483.88,124.38,480.71,135.05,462.78,117.37z"/>
			<path class="st3" d="M301.61,10.17c0,0-1.39-5.38,1.29-6.68C302.9,3.5,306.87,6.02,301.61,10.17z"/>
			<path class="st3" d="M509.35,186.31c0,0,1.26-15.73-6.98-20.17C502.36,166.14,491.29,176.66,509.35,186.31z"/>
			<path class="st3" d="M407.68,73.75c0,0,1.2-8.03-13.3-6.13C394.38,67.62,393.96,75.65,407.68,73.75z"/>
			<path class="st3" d="M404.47,65.13c0,0,7.35,9.97,15.68,4.84C420.14,69.97,417.24,60.89,404.47,65.13z"/>
			<path class="st3" d="M445.1,139.67c0,0,2.27-10.33,15.14-9.37C460.25,130.3,456.88,140.93,445.1,139.67z"/>
			<path class="st3" d="M485.8,141.01c0,0,11.13-5.51,8.46-22.15c0,0-9.61,2.26-10.17,9.48
				C483.54,135.56,486.05,137.14,485.8,141.01z"/>
			<path class="st3" d="M497.06,175.88c0,0-3.26,9.79-16.83,5.44C480.23,181.31,487.24,168.71,497.06,175.88z"/>
			<path class="st3" d="M312.68,39.59c0,0,5.46-6.92,0.13-12.25c0,0-4.22,2.23-2.35,7.67C311.38,37.66,312.68,39.59,312.68,39.59z"
				/>
			<path class="st3" d="M413.63,59.68c6.74,10.59,17.29,7.18,17.29,7.18C425.7,55.96,413.63,59.68,413.63,59.68z"/>
			<path class="st3" d="M454.33,122.06c0,0,13.62-1.89,16.29,7.27C470.63,129.32,458.59,134.06,454.33,122.06z"/>
			<path class="st3" d="M485.07,95.94c0,0,14.29-6.53,21.7,12.42C506.77,108.35,495.62,120.63,485.07,95.94z"/>
			<path class="st3" d="M453.74,85.78c-3.03,4.75,1.43,11.65,1.43,11.65C461.31,90.28,453.74,85.78,453.74,85.78z"/>
			<path class="st3" d="M384.7,73.37c0,0,5.26-4.99,11.67,1.6C396.36,74.98,391,82.11,384.7,73.37z"/>
			<path class="st3" d="M351.25,61.9c0,0,2.77-4.57,0.61-7.87C351.85,54.03,346.51,56.95,351.25,61.9z"/>
			<path class="st3" d="M358.14,43.95c0,0,7.25,3.91,2.78,11.41c0,0-0.15-1.26-2.76-3.86C356.18,49.53,356.35,45.15,358.14,43.95z"
				/>
			<path class="st3" d="M320.25,20.65c0,0-8.15,6.03-1.81,16.03C318.86,33.23,324.96,28.04,320.25,20.65z"/>
			<path class="st3" d="M474.26,109.19c0,0,9.97,16.19,21.55,8.89C495.81,118.07,498.16,101.64,474.26,109.19z"/>
			<path class="st3" d="M404.96,74.2c0,0-8.2-2.09-9.33,9.09C395.62,83.29,403.54,84.08,404.96,74.2z"/>
			<path class="st3" d="M418.99,51.65c0,0,16.56-3.26,23.84,9.34C442.84,60.99,430.93,66.87,418.99,51.65z"/>
			<path class="st3" d="M470.17,78.46c-1.18,3.46-0.44,4.38-0.44,4.38c-13.3-6.25-7.54-15.18-7.54-15.18
				C468.3,69.47,471.36,75.01,470.17,78.46z"/>
			<path class="st3" d="M458.79,142.65c0,0,0.51-10.33,9.13-12.62C467.92,130.04,472.75,140.33,458.79,142.65z"/>
			<path class="st3" d="M436,63.71c0,0,9.13,5.36-1.26,17.41C434.75,81.12,425.11,71.77,436,63.71z"/>
			<path class="st3" d="M293.54,8.16c0,0-3.16-2.65-5.84,1.18C287.7,9.33,292.4,11.64,293.54,8.16z"/>
			<path class="st3" d="M304.68,2.85c-0.53-5.01-7.63-1.12-7.63-1.12C299.35,4.89,304.68,2.85,304.68,2.85z"/>
			<path class="st3" d="M294.16,12.36c6.46-2.32,3.15-5.91,3.15-5.91C293.5,7.75,294.16,12.36,294.16,12.36z"/>
			<path class="st3" d="M311.35-1.85c0,0-3.13-4.71-8.15-0.71C303.2-2.55,308.5,2.29,311.35-1.85z"/>
			<path class="st3" d="M500.08,83.55c0,0,4.82-6.4,0.53-12C500.61,71.56,494.42,73.34,500.08,83.55z"/>
			<path class="st3" d="M491.91,79.9c-0.65-6.6-9.89-1.43-9.89-1.43C484.97,82.62,491.91,79.9,491.91,79.9z"/>
			<path class="st3" d="M498.1,74.03c0,0-4.6-6.36-11.53-1.25C486.57,72.78,494.23,79.4,498.1,74.03z"/>
			<path class="st3" d="M313.54,4.03c7.47-5.74,1.63-9.04,1.63-9.04C310.75-1.72,313.54,4.03,313.54,4.03z"/>
			<path class="st3" d="M492.55,87.48c7.67-6.4,1.57-10.22,1.57-10.22C489.57,80.92,492.55,87.48,492.55,87.48z"/>
			<path class="st3" d="M481.5,88.9c7.87-1.2,7.13-7.18,7.13-7.18C484.04,82.33,481.5,88.9,481.5,88.9z"/>
			<path class="st3" d="M372.36,47.28c9.28-15.32-3.23-15.3-3.23-15.3C363.57,40.88,372.36,47.28,372.36,47.28z"/>
			<path class="st3" d="M335.86,26.83c12.87-15-0.65-18.49-0.65-18.49C327.54,17,335.86,26.83,335.86,26.83z"/>
			<path class="st3" d="M307.55,6.9c6.5-6.15,0.41-6.83,0.41-6.83C304.1,3.63,307.55,6.9,307.55,6.9z"/>
			<path class="st3" d="M492.12,66.28c8.83,8.43,11.73,1.23,11.73,1.23C498.77,62.51,492.12,66.28,492.12,66.28z"/>
			<path class="st3" d="M421.02,81.25c0,0-5.6-9.79,6.42-13.42C427.44,67.82,434.93,73.28,421.02,81.25z"/>
			<path class="st3" d="M442.95,98.57c11.71-1.62,7.34-8.72,7.34-8.72C446.29,90.17,442.95,98.57,442.95,98.57z"/>
			<path class="st3" d="M417.3,71.43c0,0-10.67,0.72-8.72,12.43C408.58,83.86,421.71,77.07,417.3,71.43z"/>
			<path class="st3" d="M442.67,79.05c0,0,13.12,0.51,7.51-22.46C450.18,56.6,437.2,57.33,442.67,79.05z"/>
			<path class="st3" d="M428.65,45.26c0,0,11.88,16.12,25.35,7.83C454,53.09,449.31,38.42,428.65,45.26z"/>
			<path class="st3" d="M457.83,49.02c0,0-14.12,11.38,4.41,27.18C462.24,76.2,471.67,53.29,457.83,49.02z"/>
			<path class="st3" d="M444.64,88.15c8.75,1.01,11.66-6.02,11.66-6.02C446.84,76.61,444.64,88.15,444.64,88.15z"/>
			<path class="st3" d="M486.52,156.76c0,0,19.36,7.65,21.68-11.57C508.2,145.19,490.31,140.53,486.52,156.76z"/>
			<path class="st3" d="M490.7,185.75c0,0-9.43,8.02-7.13,16.18C483.57,201.93,496.46,198.72,490.7,185.75z"/>
			<path class="st3" d="M329.31,14.1c0,0-12.61,2.81-2.02,16.72C327.29,30.82,333.2,18.6,329.31,14.1z"/>
			<path class="st3" d="M504.21,161.43c0,0-11.23-4.24-22.53,7.06C481.68,168.49,496.49,178.48,504.21,161.43z"/>
			<path class="st3" d="M446.59,75.88c14.83,8.37,14.47-3.14,14.47-3.14C452.3,69.39,446.59,75.88,446.59,75.88z"/>
			<path class="st3" d="M461.19,91.92c7.65-9.17-2.86-13.22-2.86-13.22C452.87,84.5,461.19,91.92,461.19,91.92z"/>
			<path class="st3" d="M349.56,23.57C356.3,16.7,346.9,1.6,346.9,1.6C333.33,11.04,349.56,23.58,349.56,23.57z"/>
			<path class="st3" d="M480.04,55.44c0.35,5.65,1.79,6.66,1.79,6.66c-20.27-3.06-17.75-18.91-17.75-18.91
				C472.82,43.03,479.69,49.8,480.04,55.44z"/>
			<path class="st3" d="M355.79,25.19c14.16,14.54,18.2,1.35,18.2,1.35C369.44,21.32,355.79,25.19,355.79,25.19z"/>
			<path class="st3" d="M447.6,69.23c11.37,3.67,17.22-6.48,17.22-6.48C453.77,51.92,447.6,69.23,447.6,69.23z"/>
			<path class="st3" d="M445.33,57.42c20.07,13.14,19.59-4.94,19.59-4.94C453.07,47.23,445.33,57.42,445.33,57.42z"/>
			<path class="st3" d="M477.91,73.75c1.7-17.66-13.78-15.99-13.78-15.99C462.32,69.35,477.91,73.75,477.91,73.75z"/>
			<path class="st3" d="M354.45,49.38c0,0-4.06,4.11,1.29,9.1C355.75,58.49,360.39,54.5,354.45,49.38z"/>
			<path class="st3" d="M363.68,37.5c0,0-6.94,5.33,1.59,11.95C365.28,49.46,371.49,44.66,363.68,37.5z"/>
			<path class="st3" d="M352.76,37.65c0,0,9.26,3.11,13.75-3.23C366.51,34.42,358.71,25.04,352.76,37.65z"/>
			<path class="st3" d="M349.85,43.88c0,0,5.8,4.28,11.02-3.21C360.88,40.66,355.13,35.64,349.85,43.88z"/>
			<path class="st3" d="M498.53,139.77c0,0,24.58-25.82,4.01-28.97C502.54,110.8,495.99,121.69,498.53,139.77z"/>
		</g>
		<g style="clip-path:url(#SVGID_00000091003513547562534700000018319404043169283490_);">
			<path class="st3" d="M331.55,2.65c0,0,15.15-4.39,4.64-17.55C336.19-14.9,326.06-8.6,331.55,2.65z"/>
			<path class="st3" d="M328.1,0.8c0,0,8.28,0.62,12.34-13.85C340.44-13.05,328.38-9.39,328.1,0.8z"/>
			<path class="st3" d="M338.14-9.3c0,0,12.42,4.52,1.81,20.52C339.95,11.22,326.72,4.94,338.14-9.3z"/>
			<path class="st3" d="M447.08,53.22c0,0-9.15-14.3-0.77-26.23C446.32,27,484.46,30.94,447.08,53.22z"/>
			<path class="st3" d="M443.69,56.09c0,0,14.45-24.25-13.09-42.33C430.6,13.76,408.29,41.71,443.69,56.09z"/>
			<path class="st3" d="M430.11,54.18c0,0,15.55-2.37,9.55-16.66"/>
			<path class="st3" d="M342.88,9.29c0,0-4.13-13.52,10.66-14.9C353.53-5.62,361.16-0.53,342.88,9.29z"/>
			<path class="st3" d="M375.92,50.05c0,0,10.63-22.08-1.71-26.4c0,0-13.44,5.3-4.15,16.24C374.31,44.88,375.92,50.05,375.92,50.05z
				"/>
			<path class="st3" d="M353.66,23.89c0,0-7.41-13.39,2.27-20.21C355.93,3.68,366.05,14.17,353.66,23.89z"/>
			<path class="st3" d="M383.92,46.42c0,0,1.81-16.26-8.24-22.99C375.67,23.43,364.73,38.12,383.92,46.42z"/>
			<path class="st3" d="M366.22,7.79c0,0-10.87,12.22-6.56,23.53C359.66,31.32,377.08,25.65,366.22,7.79z"/>
			<path class="st3" d="M346.93,20.85c0,0,11.4-11.73,7.59-23.22C354.52-2.37,336.87,2.53,346.93,20.85z"/>
			<path class="st3" d="M403.02,52.32c0,0-11.8-23.32,11.17-35.16c0,0-0.77,3.46,2.9,12.99C420.3,38.44,409.36,52.33,403.02,52.32z"
				/>
			<path class="st3" d="M443.23,32.13c0,0-32.05-1.78-20.04,21.97c0,0,4.37-2.99,12.57-2.23C443.95,52.63,450.22,40.68,443.23,32.13
				z"/>
			<path class="st3" d="M427.83,30.11c0,0-32.05-1.78-20.04,21.97c0,0,4.37-2.99,12.57-2.23C428.55,50.62,434.83,38.66,427.83,30.11
				z"/>
			<path class="st3" d="M363.91,33.37c0,0,18.32-6.04,7.92-24.42C371.83,8.95,353.33,13.17,363.91,33.37z"/>
			<path class="st3" d="M421.37,55.89c0,0-2.39-1.53-9.03-4.14c-9.22-3.62-4.06-17.44-4.06-17.44S426.14,38.04,421.37,55.89z"/>
			<path class="st3" d="M395.32,54.98c0,0-12.04-14.69,2.69-25.21C398.01,29.78,420.93,39.86,395.32,54.98z"/>
			<path class="st3" d="M371.19,8.28c0,0-15.36-1.28-15.18,15.9C356.01,24.19,372.2,26.72,371.19,8.28z"/>
			<path class="st3" d="M375.01,23.43c0,0-14.85,4.12-8.73,20.18C366.28,43.61,382.34,40.38,375.01,23.43z"/>
			<path class="st3" d="M449.14,53.39c0,0,29.77,3.72,24.85-26.15c0,0-14.46,4.91-20.44,19.79
				C452.49,49.66,449.14,53.39,449.14,53.39z"/>
			<path class="st3" d="M499.4,71.69c0,0-1.47-2.43-6.29-7.68c-6.7-7.3,4-17.45,4-17.45S511.53,57.74,499.4,71.69z"/>
			<path class="st3" d="M477.08,59.91c0,0,7.16-14.71-0.06-24.43C477.02,35.48,461.79,45.65,477.08,59.91z"/>
			<path class="st3" d="M482.69,68.07c0,0-3.3-25.93,22.31-29.38c0,0-1.89,3-1.62,13.21C503.62,60.79,496.17,64.74,482.69,68.07z"/>
			<path class="st3" d="M389.2,50.9c0,0,14.19-13.07-2.89-25.51C386.31,25.39,371.21,36.87,389.2,50.9z"/>
			<path class="st3" d="M467.51,54.93c0,0,14.49-5.97,10.07-16.36C477.58,38.58,464.52,34.5,467.51,54.93z"/>
			<path class="st3" d="M479.57,59.12c0,0-6.42-17.87,10.98-22.85C490.56,36.28,508.77,53.45,479.57,59.12z"/>
			<path class="st3" d="M457.9,38.14c0,0-8.68,12.73,6.36,21.05C464.26,59.19,474.44,46.35,457.9,38.14z"/>
		</g>
		<path style="clip-path:url(#SVGID_00000091003513547562534700000018319404043169283490_);fill:#968374;" d="M500.98,0v69.48
			c0,0-19.97-18.35-44.43-19.46c-24.46-1.11-73.87,10.52-96.05-23.47C345.99,4.34,329.66,0,329.66,0S503.19,0,500.98,0z"/>
	</g>
	<g>
		<defs>
			
				<rect id="SVGID_00000061464328696701461670000009943999307865454996_" x="0" y="0" transform="matrix(-1 4.489730e-11 -4.489730e-11 -1 215.6991 236.5258)" width="215.7" height="236.53"/>
		</defs>
		<clipPath id="SVGID_00000104708459278727399850000011673598946116482187_">
			<use xlink:href="#SVGID_00000061464328696701461670000009943999307865454996_"  style="overflow:visible;"/>
		</clipPath>
		<g style="clip-path:url(#SVGID_00000104708459278727399850000011673598946116482187_);">
			<path class="st1" d="M58,86.62c6.19,4.88,11.17-5.35,11.17-5.35C64.23,79.53,58,86.62,58,86.62z"/>
			<path class="st1" d="M-2.61,182.88c9.65,12.24,18.87,4.29,18.87,4.29C3.01,171.45-2.61,182.88-2.61,182.88z"/>
			<path class="st1" d="M-6.34,171.59c1.78,10.82,21.44,4.13,21.44,4.13C1.85,160.01-6.34,171.59-6.34,171.59z"/>
			<path class="st1" d="M7.72,213.9c0,0,5.74,0.49,9.41,7.06C17.13,220.97,8.17,218.52,7.72,213.9z"/>
			<path class="st1" d="M53.43,84.62c-2.38,10.19,5.01,14.07,5.01,14.07C59.11,83.44,53.43,84.62,53.43,84.62z"/>
			<path class="st1" d="M16.29,214.3c0,0-4.26-9.74-10.31-6.48C5.97,207.81,6.22,215.54,16.29,214.3z"/>
			<path class="st1" d="M-0.29,219.57c0,0,8.91-1.38,7.55-8.6C7.27,210.97,0.5,207.26-0.29,219.57z"/>
			<path class="st1" d="M-4.54,214.04c0,0,1.52-9.78,9.15-12.34C4.61,201.69,9.66,209.98-4.54,214.04z"/>
			<path class="st1" d="M26.34,69.07c-12.25,4.69-0.97,22.16-0.97,22.16C39.83,82.2,26.34,69.07,26.34,69.07z"/>
			<path class="st1" d="M16.49,197.9c0,0-3.33-8.51-14.06-6.99C2.44,190.9,1.39,199.8,16.49,197.9z"/>
			<path class="st1" d="M49.91,96.68c4.55-10.61-3.2-15.92-3.2-15.92C39.77,90.84,49.91,96.68,49.91,96.68z"/>
			<path class="st1" d="M-8.34,130.1c2.12,15.36,19.49,8.35,19.49,8.35C3.26,125.86-8.34,130.1-8.34,130.1z"/>
			<path class="st1" d="M51.34,83.79c5.83-7.31,13.92-7.16,13.92-7.16C59.69,89.09,51.34,83.79,51.34,83.79z"/>
			<path class="st1" d="M38.26,76.48c-9.33,8.16,0.22,20.37,0.22,20.37C47.49,85.22,38.26,76.48,38.26,76.48z"/>
			<path class="st1" d="M42.9,79.61c8.88,6.26,15.93-6.64,15.93-6.64C47.28,68.84,42.9,79.61,42.9,79.61z"/>
			<path class="st1" d="M12.61,237.21c0,0,2.99-4.77,0.12-7.38C12.73,229.83,9.03,232.63,12.61,237.21z"/>
			<path class="st1" d="M17.71,231.75c0,0,0.85-5.96-5.56-5.08C12.15,226.67,11.85,230.61,17.71,231.75z"/>
			<path class="st1" d="M16.46,207.17c0,0-1.51-12.61-12.4-6.5C4.07,200.67,5.76,204.55,16.46,207.17z"/>
			<path class="st1" d="M-6.71,205.47c0,0,14.02-2.32,9.74-11.53C3.03,193.94-8.12,196.86-6.71,205.47z"/>
			<path class="st1" d="M9.83,220.84c0,0,5.48-1.72,8.17,4.56C17.99,225.4,10.99,226.86,9.83,220.84z"/>
			<path class="st1" d="M5.68,227.27c0,0,5.59-3.46,2.94-10.72C8.62,216.56,2.21,217.97,5.68,227.27z"/>
			<path class="st1" d="M8.31,231.89c0,0,6.38-2.48,2.62-8.21C10.93,223.67,6.71,225.52,8.31,231.89z"/>
			<path class="st1" d="M29.06,110.62c-4.94-3.43,0.09-11.05,0.09-11.05C34.73,99.1,29.07,110.61,29.06,110.62z"/>
			<path class="st1" d="M164.12,16.02c3.98,5.73,9.4,0.14,9.4,0.14C167.42,12.13,164.12,16.02,164.12,16.02z"/>
			<path class="st1" d="M12.86,123.24c4.82,5.74,20.38-5.49,20.38-5.49C18.68,110,12.86,123.24,12.86,123.24z"/>
			<path class="st1" d="M37.29,135.23c2.45,5.53,10.84,0.39,10.84,0.39C42.3,131.16,37.29,135.23,37.29,135.23z"/>
			<path class="st1" d="M168.72,20.05c2.55,5.63,7.92,1.81,7.92,1.81C172.73,17.12,168.71,20.05,168.72,20.05z"/>
			<path class="st1" d="M4.7,120.54c-8.6,10.59,7.74,22.71,7.74,22.71C18.98,124.01,4.7,120.53,4.7,120.54z"/>
			<path class="st1" d="M158.82,8.59C167.15,12.44,168.94,0,168.94,0C157.91,1.7,158.82,8.59,158.82,8.59z"/>
			<path class="st1" d="M177.94,30.59c-1.29,1.81,1.83,3.89,1.83,3.89C181.47,32,177.94,30.59,177.94,30.59z"/>
			<path class="st1" d="M1.52,119.76c11.39,6.52,21.15-12.39,21.15-12.39C0.68,103.08,1.52,119.76,1.52,119.76z"/>
			<path class="st1" d="M165.49,10.9c0.56-5.96,8.3-7.69,8.3-7.69C173.33,14.27,165.49,10.9,165.49,10.9z"/>
			<path class="st1" d="M175.8,28c-2.54,0.43-0.95,4.64-0.95,4.64C177.97,31.4,175.8,28,175.8,28z"/>
			<path class="st1" d="M165.53,16.83c-4.95,1.75,1.46,8.62,1.46,8.62C169.67,20.85,165.52,16.83,165.53,16.83z"/>
			<path class="st1" d="M35.35,143.44c3.49-9.26-3.8-11.3-3.8-11.3C28.31,139.47,35.35,143.44,35.35,143.44z"/>
			<path class="st1" d="M178.49,25.65c-0.79-3.57-6.08-1.6-6.08-1.6C172.84,28.42,178.49,25.65,178.49,25.65z"/>
			<path class="st1" d="M169.49,20.86c-2.8,4.12-0.11,7.28-0.11,7.28C173.23,22.29,169.49,20.86,169.49,20.86z"/>
			<path class="st1" d="M154.23,46.62c1.6,3.64,5.2,2.88,5.2,2.88C157.41,45.18,154.23,46.62,154.23,46.62z"/>
			<path class="st1" d="M172.01,31.51c3.13-2.51,1.12-6.74,1.12-6.74C169.24,26.38,172.01,31.51,172.01,31.51z"/>
			<path class="st1" d="M162.31,9.53c-6.77,5.67,1.51,11.98,1.51,11.98C167.63,13.87,162.31,9.53,162.31,9.53z"/>
			<path class="st1" d="M155.14,48.66c-2.13,1.12,0.16,4.04,0.16,4.04C157.84,50.2,155.15,48.66,155.14,48.66z"/>
			<path class="st1" d="M46.38,146.29c5.32-5.55-2.63-7.62-2.63-7.62C42.98,141.48,46.38,146.29,46.38,146.29z"/>
			<path class="st1" d="M38.62,136.26c-2.45,4.91,4.3,8.62,4.3,8.62C44.13,137.02,38.62,136.26,38.62,136.26z"/>
			<path class="st1" d="M175.56,27.39c-0.24,4.34,5.18,2.45,5.18,2.45C178.83,26.55,175.56,27.39,175.56,27.39z"/>
			<path class="st1" d="M170.47,11.85c-7.47-6.08-11.32,0.45-11.32,0.45C166.48,16.6,170.47,11.85,170.47,11.85z"/>
			<path class="st1" d="M28.46,142.53c-8.99-6.67-4.16-14.73-4.16-14.73C33.44,131.94,28.45,142.53,28.46,142.53z"/>
			<path class="st1" d="M160.59,12.44c-3.59,6.15,0.91,10.2,0.91,10.2C166.18,14.77,160.6,12.45,160.59,12.44z"/>
			<path class="st1" d="M124.18,41.86c-2.26,4.6,3.27,6.09,3.27,6.09C127.86,42.59,124.18,41.86,124.18,41.86z"/>
			<path class="st1" d="M122.22,45.52c-2.48,3.8,2.01,5.62,2.01,5.62C125.62,46.85,122.22,45.52,122.22,45.52z"/>
			<path class="st1" d="M133.85,53.46c-1.99,5.01,5.36,5.67,5.36,5.67C137.87,52.71,133.85,53.46,133.85,53.46z"/>
			<path class="st1" d="M116.14,53.67c-1.57-0.45-2.25,2.21-2.25,2.21C116.02,56.46,116.14,53.67,116.14,53.67z"/>
			<path class="st1" d="M133.27,58.68c3.46,0.63,4.09,5.24,4.09,5.24C130.91,63.11,133.27,58.68,133.27,58.68z"/>
			<path class="st1" d="M117.08,52.48c-0.51-1.82-3.47-0.33-3.47-0.33C114.77,54.33,117.08,52.48,117.08,52.48z"/>
			<path class="st1" d="M123.66,43.75c-1.49-3.56-6.26,1.43-6.26,1.43C120.89,46.96,123.66,43.75,123.66,43.75z"/>
			<path class="st1" d="M120.84,52.82c2.36-1.3-0.14-4.61-0.14-4.61C117.72,49.41,120.84,52.82,120.84,52.82z"/>
			<path class="st1" d="M121.76,46.22c-3.54-0.93-5.07,1.7-5.07,1.7C121.68,49.17,121.76,46.22,121.76,46.22z"/>
			<path class="st1" d="M114.58,50.69c2.5,1.55,4.94-0.87,4.94-0.87C117.46,47.52,114.58,50.69,114.58,50.69z"/>
			<path class="st1" d="M132.31,62.91c-4.38-1.96-5.45,3.66-5.45,3.66C131.48,66.59,132.31,62.91,132.31,62.91z"/>
			<path class="st1" d="M118.64,50.95c-3.06,0.89-0.43,4.18-0.43,4.18C120.03,53.02,118.64,50.95,118.64,50.95z"/>
			<path class="st1" d="M176.21,3.51c0,0,4.03-2.69,0.83-5.91C177.04-2.4,173.98-0.4,176.21,3.51z"/>
			<path class="st1" d="M187.3,6.06c0,0-1.2-2.48-2.65-1.71C184.65,4.34,185.33,7.05,187.3,6.06z"/>
			<path class="st1" d="M186.81,2.34c0,0-3.19-0.85-3.33,1.03C183.49,3.37,186.13,4.71,186.81,2.34z"/>
			<path class="st1" d="M179.07-0.08c0,0-1.76,3.76,0.81,4.54C179.87,4.47,182.24,0.5,179.07-0.08z"/>
			<path class="st1" d="M180.55,1.27c0,0,2.88,1.88,5.02-0.15C185.57,1.11,182.11-1.41,180.55,1.27z"/>
			<path class="st1" d="M182.92,6.2c0,0,1.91-3.76-1.27-4.01C181.65,2.2,180.71,4.5,182.92,6.2z"/>
			<path class="st1" d="M133.39,57.92c-6.6-1.47-5.42,5.31-5.42,5.31C133.11,60.2,133.39,57.92,133.39,57.92z"/>
			<path class="st1" d="M132.31,63.72c-1.72,5.4,2.68,6.09,2.68,6.09C135.77,64.88,132.31,63.73,132.31,63.72z"/>
			<path class="st1" d="M133.97,46.13c0.32,5.57-6.56,8.24-6.56,8.24C126.28,44.12,133.97,46.13,133.97,46.13z"/>
			<path class="st1" d="M133.77,47.43c-1.1,6.76,7.04,6.17,7.04,6.17C139.14,47.23,133.77,47.43,133.77,47.43z"/>
			<path class="st1" d="M128.98,58.22c6.48-1.26,4.73-6.14,4.73-6.14C128.23,54.04,128.98,58.22,128.98,58.22z"/>
			<path class="st1" d="M131.45,67.16c-4.14,0.58-4.38,4.13-4.38,4.13C132.41,70.58,131.45,67.16,131.45,67.16z"/>
			<path class="st1" d="M29.75,131.06c8.46,7.36,13.89-2.44,13.89-2.44C33.67,124.63,29.75,131.06,29.75,131.06z"/>
			<path class="st1" d="M19.18,238.14c0,0,0.16-4.04-4.32-4.2C14.86,233.94,15.31,237.43,19.18,238.14z"/>
			<path class="st1" d="M-14.38,117.85c-0.77-20.07,23.52-16.6,23.52-16.6C-3.08,122.94-14.38,117.85-14.38,117.85z"/>
			<path class="st1" d="M52.54,64.25C37.52,60.6,35.29,75.13,35.29,75.13C48.58,78.48,52.54,64.25,52.54,64.25z"/>
			<path class="st1" d="M86.03,90.44c-4.86-2.64-7.2,2.44-7.2,2.44C82.35,95.03,86.03,90.44,86.03,90.44z"/>
			<path class="st1" d="M6.47,169.2c-7.33,2.94-3.65,9.25-3.65,9.25C10.05,175.39,6.47,169.2,6.47,169.2z"/>
			<path class="st1" d="M8.83,172.76c1.27,6.19,8.31,3.2,8.31,3.2C13.31,170.52,8.83,172.76,8.83,172.76z"/>
			<path class="st1" d="M9.91,174.43c-3.64,1.38-0.67,9.04-0.67,9.04C15.5,178.28,9.91,174.43,9.91,174.43z"/>
			<path class="st1" d="M16.7,182.68c1.44,3.52,6.81,0.44,6.81,0.44C19.92,180.21,16.69,182.68,16.7,182.68z"/>
			<path class="st1" d="M12.96,178.1c0.12,5.21,7.9,1.86,7.9,1.86C17.62,175.78,12.95,178.1,12.96,178.1z"/>
			<path class="st1" d="M13.69,179.57c-2.54,5.68,1.96,7.24,1.96,7.24C17.96,182.33,13.69,179.57,13.69,179.57z"/>
			<path class="st1" d="M3.05,163.93c-9.07,1.03-5.37,11.26-5.37,11.26C5.26,170.76,3.05,163.93,3.05,163.93z"/>
			<path class="st1" d="M4.65,167.62c4.38,6.81,10.9,1.7,10.9,1.7C9.11,164.41,4.65,167.62,4.65,167.62z"/>
			<path class="st1" d="M-6.25,142c4.59,12.13,16.52,6.29,16.52,6.29C1.8,138.45-6.25,142-6.25,142z"/>
			<path class="st1" d="M21.92,186.32c1.3,4.67,4.97,1.03,4.97,1.03C25.62,186.02,21.92,186.32,21.92,186.32z"/>
			<path class="st1" d="M17.98,184.17c-1.75,2.98,2.33,5.6,2.33,5.6C21.41,184.89,17.98,184.17,17.98,184.17z"/>
			<path class="st1" d="M-4.3,151.18c6.01,10.72,15.18,5.41,15.18,5.41C4.34,147.18-4.3,151.18-4.3,151.18z"/>
			<path class="st1" d="M0.6,161.12c7.19,8.88,12.31,2.79,12.31,2.79C3.7,154.61,0.6,161.12,0.6,161.12z"/>
			<path class="st1" d="M74.95,91.9c6.39,1.23,5.08,7.51,5.08,7.51C74.9,96.24,74.96,91.89,74.95,91.9z"/>
			<path class="st1" d="M81.61,93.18c-1.36,3.88,4.41,5.98,4.41,5.98C87.31,92.68,81.61,93.18,81.61,93.18z"/>
			<path class="st1" d="M86.05,93.91c4.08,4.09,6.32-0.08,6.32-0.08C87.7,90.59,86.05,93.91,86.05,93.91z"/>
			<path class="st1" d="M21.97,126.71c8.65,6.9,15.56-3.99,15.56-3.99C27.49,118.39,21.97,126.71,21.97,126.71z"/>
			<path class="st1" d="M64.26,93.76c2.19-5.32-3.08-6.23-3.08-6.23c-2.08,4.26,2.2,10.75,2.2,10.75S63.57,95.42,64.26,93.76z"/>
			<path class="st1" d="M14.86,124.03c-4.5,10.04,7.8,18,7.8,18C23.43,124.28,14.86,124.03,14.86,124.03z"/>
			<path class="st1" d="M33.07,104.11c-3.5,1.01-0.68,10.56-0.68,10.56C38.42,109.6,33.07,104.12,33.07,104.11z"/>
			<path class="st1" d="M52.6,117.85c-3.1-3.88-5.85-1.26-5.85-1.26C49.08,119.86,52.6,117.85,52.6,117.85z"/>
			<path class="st1" d="M46.7,110.05c-4.1,3.84-7.65,0.73-7.65,0.73C41.92,106.64,46.7,110.05,46.7,110.05z"/>
			<path class="st1" d="M41.55,112.39c-3.22,4.62,1.96,6.81,1.96,6.81C44.98,114,41.55,112.39,41.55,112.39z"/>
			<path class="st1" d="M34.55,106.65c5.32-5.37,10.79,0.23,10.79,0.23C38.88,109.69,34.54,106.65,34.55,106.65z"/>
			<path class="st1" d="M43.29,113.71c2.47,3.95,7.24-0.25,7.24-0.25C47.03,110.53,43.28,113.71,43.29,113.71z"/>
			<path class="st1" d="M36.74,108.25c-3.32,4.42,1.82,9.68,1.82,9.68C40.91,109.32,36.74,108.25,36.74,108.25z"/>
			<path class="st1" d="M16.26,78.69c11.92-8.32,18.86,5.05,18.86,5.05C22.43,86.53,16.25,78.69,16.26,78.69z"/>
			<path class="st1" d="M17.64,81.01c-10.37,1.62-7.26,17.16-7.26,17.16C23.58,88.85,17.64,81.01,17.64,81.01z"/>
			<path class="st1" d="M65.77,89.59c6.67,2.79,8.73-5.62,8.73-5.62C65.77,85.53,65.77,89.59,65.77,89.59z"/>
			<path class="st1" d="M9.61,57.25c15.94,12.58,28.8-13.78,28.8-13.78C25.66,38.96,9.61,57.25,9.61,57.25z"/>
			<path class="st1" d="M13.85,59.78c-15.33,15.69-1.49,29.53-1.49,29.53C28.42,63.07,13.85,59.78,13.85,59.78z"/>
			<path class="st1" d="M4.89,51.58c6.81,21.39-5.33,36.17-5.33,36.17C-18.44,59.37,4.89,51.57,4.89,51.58z"/>
			<path class="st1" d="M24.01,68.02c17.2,7.19,22.5-14.49,22.5-14.49C24.02,57.55,24.01,68.02,24.01,68.02z"/>
			<path class="st1" d="M80,88.03c-6.01-2.43-7.72,3.44-7.72,3.44C77.59,93.67,80,88.04,80,88.03z"/>
			<path class="st1" d="M72.19,98.13c0.28-3.56-3.18-7.82-3.18-7.82C62.71,96.6,72.19,98.13,72.19,98.13z"/>
			<path class="st1" d="M174.53,12.53c-4.17,5.19,4.44,9.48,4.44,9.48C180.48,17.84,174.53,12.53,174.53,12.53z"/>
			<path class="st1" d="M30.66,101.52c5.6,4.38,12.25,0.02,12.25,0.02C32.96,97.09,30.66,101.52,30.66,101.52z"/>
			<path class="st1" d="M185.12,8.36c-6.4-0.48-7.54,5.36-7.54,5.36C184.2,15.76,185.12,8.36,185.12,8.36z"/>
			<path class="st1" d="M152.3,40.98c4.5-0.28,6.73,3.15,6.73,3.15C152.58,46.43,152.3,40.98,152.3,40.98z"/>
			<path class="st1" d="M151.54,39.79c-5.9,2.36-2.26,8.24-2.26,8.24C155.09,44.06,151.54,39.79,151.54,39.79z"/>
			<path class="st1" d="M22.47,108.07c7.53-6.42,3.05-13.12,3.05-13.12C18.99,101.62,22.46,108.07,22.47,108.07z"/>
			<path class="st1" d="M153.54,44.89c-5.17,4.28-1.84,6.16-1.84,6.16C157.16,45.76,153.54,44.89,153.54,44.89z"/>
			<path class="st1" d="M142.27,27.11c5.08,5,10.57,1.33,10.57,1.33C146.6,22.61,142.27,27.11,142.27,27.11z"/>
			<path class="st1" d="M145.55,30.31c-5.45,0.48-3.52,8.86-3.52,8.86C149.64,36.09,145.56,30.31,145.55,30.31z"/>
			<path class="st1" d="M136.96,22.48c6.51-4.8,13.2-1.8,13.2-1.8C142.69,30.41,136.96,22.48,136.96,22.48z"/>
			<path class="st1" d="M140.73,25.68c-9.27,7.67-3.29,11.04-3.29,11.04C147.22,27.24,140.74,25.69,140.73,25.68z"/>
			<path class="st1" d="M149.44,36.56c2.87,5.43,8.33,3.85,8.33,3.85C154.18,34,149.44,36.56,149.44,36.56z"/>
			<path class="st1" d="M146.06,31.62c3.88,5.03,9.17,2.46,9.17,2.46C150.43,28.18,146.06,31.62,146.06,31.62z"/>
			<path class="st1" d="M148.74,35.06c-4.96,0.34-3.08,7.77-3.08,7.77C152.55,40.23,148.75,35.06,148.74,35.06z"/>
			<path class="st1" d="M133.86,40.26c-2.32,6.57-8.54,7.67-8.54,7.67C125.94,37.38,133.86,40.26,133.86,40.26z"/>
			<path class="st1" d="M132.2,34.28c1.58,8.81,10.72,5.45,10.72,5.45C139.09,30.59,132.2,34.28,132.2,34.28z"/>
			<path class="st1" d="M133.15,42.03c5.01,9.08,8.82,4.55,8.82,4.55C135.51,36.79,133.15,42.03,133.15,42.03z"/>
			<path class="st1" d="M199.29,11.28c-4.61-0.74-5.05,3.97-5.05,3.97C197.64,15.97,199.29,11.28,199.29,11.28z"/>
			<path class="st1" d="M25.69,95.72c7.41,7.12,11.84-0.25,11.84-0.25C29.64,90.23,25.69,95.72,25.69,95.72z"/>
			<path class="st1" d="M190.34,15.06c5.49-0.41,5.81,5,5.81,5C191.25,18.61,190.34,15.06,190.34,15.06z"/>
			<path class="st1" d="M196.02,15c-0.27,3.47,4.9,3.92,4.9,3.92C200.57,13.34,196.02,14.99,196.02,15z"/>
			<path class="st1" d="M199.51,14.42c3.19,3.7,5.33,0.32,5.33,0.32C201.1,11.72,199.51,14.42,199.51,14.42z"/>
			<path class="st1" d="M184.25,18.29c-0.64-4.82-5.62-4.49-5.62-4.49c0.28,4,6.15,6.94,6.15,6.94S184.46,19.8,184.25,18.29z"/>
			<path class="st1" d="M183.87,14.69c5.96,1.37,6.47-5.93,6.47-5.93C183.29,11.31,183.86,14.69,183.87,14.69z"/>
			<path class="st1" d="M194.7,11.14c-5.31-1.33-6.06,3.78-6.06,3.78C193.34,16.14,194.69,11.13,194.7,11.14z"/>
			<path class="st1" d="M167.2,11.14c-4.05,7.49,5.56,10.87,5.56,10.87C171.94,11.62,167.19,11.13,167.2,11.14z"/>
			<path class="st1" d="M179.88,6.87c-7.5-1.36-8.07,5.8-8.07,5.8C178.46,13.93,179.88,6.86,179.88,6.87z"/>
			<path class="st1" d="M154.72,7.56c5.04,7.66,13.13-1.96,13.13-1.96C157.59,1.22,154.72,7.56,154.72,7.56z"/>
			<path class="st1" d="M22.89,90.52c-11.8,0.98-7.41,14.39-7.41,14.39C25.48,99.46,22.89,90.52,22.89,90.52z"/>
			<path class="st1" d="M2.95,90.52c-5.76-9.92,9.1-19.03,9.1-19.03C22.07,75.2,2.96,90.51,2.95,90.52z"/>
			<path class="st1" d="M-6.03,79.42c18.58-3.37,17.62-18.73,17.62-18.73C-5.59,65.44-6.04,79.42-6.03,79.42z"/>
			<path class="st1" d="M12.48,67.49c10.89,14.63,20.27,3.75,20.27,3.75C20.58,59.63,12.48,67.49,12.48,67.49z"/>
			<path class="st1" d="M10.81,55.99c6.78,17.13,24.77,4.55,24.77,4.55C22.94,48.1,10.81,56,10.81,55.99z"/>
			<path class="st1" d="M154.97,6.28c-9.2,8.77,4.1,14.29,4.1,14.29C158.77,9.19,154.97,6.28,154.97,6.28z"/>
			<path class="st1" d="M156.38,9.23c-6.68,5.28,0.81,12.18,0.81,12.18C160.55,11.55,156.38,9.23,156.38,9.23z"/>
			<path class="st1" d="M35.6,89.58c-7.58-8.04-14.41-0.17-14.41-0.17C27.85,96.6,35.59,89.58,35.6,89.58z"/>
			<path class="st1" d="M190.52,20c-0.65-2.94-4.51-5.54-4.51-5.54C182.48,21.1,190.52,20,190.52,20z"/>
		</g>
		<g style="clip-path:url(#SVGID_00000104708459278727399850000011673598946116482187_);">
			<path class="st2" d="M-5.24,168.37c9.46,0.64,15.88,15.87,15.88,15.87C-11.62,186.02-5.24,168.37-5.24,168.37z"/>
			<path class="st2" d="M86.3,61.36c2.49,9.67,12.09,7.34,12.09,7.34C94.65,58.07,86.31,61.36,86.3,61.36z"/>
			<path class="st2" d="M76.7,60.83c-3.1,10.8,10.65,10.84,10.65,10.84C86.82,61.07,76.71,60.83,76.7,60.83z"/>
			<path class="st2" d="M69.86,84.05c0,0-6.32-2.51-8.52,4.8C61.34,88.85,64.66,94.11,69.86,84.05z"/>
			<path class="st2" d="M11.85,200.68c-14.96-6.93-13.87-14.86-13.87-14.86C12.13,185.48,11.85,200.68,11.85,200.68z"/>
			<path class="st2" d="M48.07,97.4c0,0,3.14-12.36-7.11-14.35C40.96,83.05,35.53,93.9,48.07,97.4z"/>
			<path class="st2" d="M83.74,46.76c0.95,14.31-9.6,14.66-9.6,14.66C68.19,51.24,83.74,46.76,83.74,46.76z"/>
			<path class="st2" d="M93.29,60.32c5.91,2.05,12.14-6.74,12.14-6.74C97.81,52.27,93.29,60.32,93.29,60.32z"/>
			<path class="st2" d="M56.89,77.59c0,0-11.08-6.21-12.73,7.02c0,0,4.11,0.98,7.08-0.88C54.21,81.88,55.17,77.95,56.89,77.59z"/>
			<path class="st2" d="M65.38,99.14c0,0,4.16-7.57-6.67-10.74C58.71,88.4,57.99,91.26,65.38,99.14z"/>
			<path class="st2" d="M1.01,199.05c1.9,12.02,11.58,10.71,11.58,10.71C10.03,195.62,1.01,199.05,1.01,199.05z"/>
			<path class="st2" d="M74.65,87.77c0,0-4.78-0.61-7.26,1.63C67.39,89.4,68.65,94.3,74.65,87.77z"/>
			<path class="st2" d="M74.05,77.09c0,0,3.09-16.42-12.33-16.3c0,0,0.34,5.86,3.46,9.62C68.3,74.17,73.04,74.78,74.05,77.09z"/>
			<path class="st2" d="M43.68,58.58c19.61,0.25,18.01-17.53,18.01-17.53C39.84,42.53,43.68,58.58,43.68,58.58z"/>
			<path class="st2" d="M28.62,55.43c20.01,2.91,16.74-21.61,16.74-21.61C26.6,37.34,28.63,55.43,28.62,55.43z"/>
			<path class="st2" d="M22.12,85.91c0,0,17.92-24.13-7.11-36.07c0,0-4.06,9.74-1.97,18.29C15.12,76.67,22.3,81.39,22.12,85.91z"/>
			<path class="st2" d="M98.03,59.99c-2.63,4.14,8.2,6.87,8.2,6.87C106.74,58.83,98.03,59.99,98.03,59.99z"/>
			<path class="st2" d="M13.61,104.88c11.64,1.2,14.62-11.9,14.62-11.9C14.88,92.93,13.62,104.87,13.61,104.88z"/>
			<path class="st2" d="M6.31,106.67c3.75,13.52,18.41,4.59,18.41,4.59C17.23,100.33,6.31,106.67,6.31,106.67z"/>
			<path class="st2" d="M21.25,103.68c3.41,8.89,11.05,5.19,11.05,5.19C24.91,96.82,21.26,103.67,21.25,103.68z"/>
			<path class="st2" d="M0.77,108.89c13.38-3.53,8.12-19.85,8.12-19.85C-7.37,94.8,0.78,108.89,0.77,108.89z"/>
			<path class="st2" d="M-8.74,112.31c8.49-6.66,22.07,3.72,22.07,3.72C-10.55,129.62-8.74,112.31-8.74,112.31z"/>
			<path class="st2" d="M59.08,76.57c-18.61-5.68-12.59-17.28-12.59-17.28C62.98,57.6,59.08,76.57,59.08,76.57z"/>
			<path class="st2" d="M104.09,58.94c3.61,4.7,9.47-1.38,9.47-1.38C106.59,53.71,104.09,58.94,104.09,58.94z"/>
			<path class="st2" d="M169.83,47.9c-3.24,2.64,1.2,6.39,1.2,6.39C174.92,48.43,169.83,47.9,169.83,47.9z"/>
			<path class="st2" d="M16.93,142.86c0,0-9.77-9.96-22.71,3.04C-5.78,145.89,5.21,155.6,16.93,142.86z"/>
			<path class="st2" d="M21.76,68.19c-15.43,8.6-1.59,24.62-1.59,24.62C31.79,79.16,21.76,68.19,21.76,68.19z"/>
			<path class="st2" d="M32.23,77.79c-12.29,10.48,4.73,20.76,4.73,20.76C41.13,84.83,32.23,77.79,32.23,77.79z"/>
			<path class="st2" d="M-1.22,191.12c-12.6,6.25-7.07,13.93-7.07,13.93C5.54,200.67-1.22,191.12-1.22,191.12z"/>
			<path class="st2" d="M10.58,164.5c0,0,10.29,4,16.57-1.44C27.15,163.06,13.28,152.42,10.58,164.5z"/>
			<path class="st2" d="M63.98,79.91c0,0-12.73,0.02-10.26,7.45C53.71,87.36,62.14,87.5,63.98,79.91z"/>
			<path class="st2" d="M44.1,60.76c0,0-13.59-8.36-21.64,7.64C22.46,68.39,28,81.9,44.1,60.76z"/>
			<path class="st2" d="M0.37,80.05c0,0,23.63,0.89,12.36-26.39c0,0-7.39,2.24-10.04,8.82C0.03,69.06,2.65,77.62,0.37,80.05z"/>
			<path class="st2" d="M40.99,51.16c0,0-25.02-9.02-26.43,6.93C14.55,58.07,30.98,64.36,40.99,51.16z"/>
			<path class="st2" d="M20.64,183.39c0,0,5.68-6.23-0.11-11.53C20.54,171.87,13.15,174.14,20.64,183.39z"/>
			<path class="st2" d="M31.74,169.97c0,0-11.72-7.34-14.04-0.13C17.7,169.84,23.49,176.81,31.74,169.97z"/>
			<path class="st2" d="M25.64,175.81c0,0,4.89,6.93,9.21,2.33C34.85,178.15,29.8,171.18,25.64,175.81z"/>
			<path class="st2" d="M-4.41,211.45c11.99-2.78,6.05-10.22,6.05-10.22C-5.89,204.24-4.41,211.45-4.41,211.45z"/>
			<path class="st2" d="M39.89,82.92c0,0,9.09-20.13-8.52-26.89C31.36,56.03,20.65,71.33,39.89,82.92z"/>
			<path class="st2" d="M21.69,152.52c-13.41-8.87-18.59,3.82-18.59,3.82C14.68,163.41,21.69,152.52,21.69,152.52z"/>
			<path class="st2" d="M11.59,164.98c0,0-4.87,4.37-3.96,8.58c0.57,2.62,2.97,4.66,3.54,7.28
				C11.46,182.1,20.37,174.87,11.59,164.98z"/>
			<path class="st2" d="M28.77,103.35c4.39,0.05,10.03,2.44,10.03,2.44C33.71,96.42,28.77,103.35,28.77,103.35z"/>
			<path class="st2" d="M139.12,54.55c-7.82,2.75-4.66,9.13-4.66,9.13C141.82,59.89,139.12,54.55,139.12,54.55z"/>
			<path class="st2" d="M139.79,56.83c-1.51,6.88,6.54,6.85,6.54,6.85C145.72,56.94,139.79,56.83,139.79,56.83z"/>
			<path class="st2" d="M49.83,69.69c0,0-14.57-4.67-16.54,9.38C33.29,79.07,44.11,82.25,49.83,69.69z"/>
			<path class="st2" d="M132.96,37.43c0.35,10.02,12.72,8.93,12.72,8.93C144.24,33.94,132.97,37.43,132.96,37.43z"/>
			<path class="st2" d="M127.04,27.52c2.33,11.14,16.56,7.83,16.56,7.83C139.52,21.72,127.04,27.53,127.04,27.52z"/>
			<path class="st2" d="M132.19,36.33c-11.31,5.25-9.29,14.31-9.29,14.31C137.04,48.19,132.19,36.33,132.19,36.33z"/>
			<path class="st2" d="M137.03,48.47c1.06,5.11,8.65,8.16,8.65,8.16C144.37,42.76,137.03,48.47,137.03,48.47z"/>
			<path class="st2" d="M130.18,59.59c9.35-5.61,6.41-13.19,6.41-13.19C124.79,47.36,130.18,59.59,130.18,59.59z"/>
			<path class="st2" d="M140.23,63.67c-0.15,3.51-2.2,7.97-2.2,7.97C145.66,67.8,140.23,63.68,140.23,63.67z"/>
			<path class="st2" d="M4.28,156.9c0,0,3.86,6.13,2.02,10.74c-1.84,4.61-6.1,7.29-6.1,7.29C-0.44,171.87-6.94,166.42,4.28,156.9z"
				/>
			<path class="st2" d="M74.83,46.26c0,0-16.71-2.79-14.63,14.49C60.2,60.76,71.09,60.07,74.83,46.26z"/>
			<path class="st2" d="M85.23,61.64c0,0,8.37-3.26,8.6-10.98C93.83,50.65,79.3,51.24,85.23,61.64z"/>
			<path class="st2" d="M10.29,221.19c-1.72-6.36-5.7-10.57-5.7-10.57C0.11,216,10.28,221.19,10.29,221.19z"/>
			<path class="st2" d="M144.79,40.03c12.03-8.64,2.54-15.72,2.54-15.72C135.05,34.56,144.79,40.03,144.79,40.03z"/>
			<path class="st2" d="M58.08,97.36c-0.81-10.26-7.55-10.51-7.55-10.51C46.97,97.54,58.08,97.36,58.08,97.36z"/>
			<path class="st2" d="M165.5,29.44c-4.37-0.24-9.06,2.36-9.06,2.36c7.16,10.22,18.39,0.27,18.39,0.27
				C172.58,32.51,169.87,29.68,165.5,29.44z"/>
			<path class="st2" d="M174.46,47.15c-0.23-5.18-7.01-3.47-7.01-3.47C167.58,48.8,174.47,47.15,174.46,47.15z"/>
			<path class="st2" d="M159.55,16.17c-16.47-5.81-19.12,3.53-19.12,3.53C148.23,29.96,159.56,16.17,159.55,16.17z"/>
			<path class="st2" d="M149.27,25.11c0.5,4.31,5.73,6.3,8.57,4.63c4.13-2.43,7.22-6.88,7.22-6.88
				C152.4,20.68,149.27,25.11,149.27,25.11z"/>
			<path class="st2" d="M155.77,31.05c0,0-9.02,6.15-1.83,12.43C153.94,43.48,162.68,39.59,155.77,31.05z"/>
			<path class="st2" d="M166.54,43.01c0,0-4.62,3.15-0.32,8.56C166.23,51.57,170.03,47.72,166.54,43.01z"/>
			<path class="st2" d="M174.76,39.66c-1.76-0.54-2.62-2.26-4.38-2.8C167.56,36,163.13,39,163.13,39
				C168.07,45.46,175.62,39.92,174.76,39.66z"/>
			<path class="st2" d="M160.04,49.18c0,0-2.11-2.38-2.04-5.44c0.07-3.06,4.41-5.94,4.41-5.94
				C167.26,45.51,161.35,47.49,160.04,49.18z"/>
		</g>
		<g style="clip-path:url(#SVGID_00000104708459278727399850000011673598946116482187_);">
			<path class="st3" d="M185.43,24.98c6.3,7.59,14.45,1.89,14.31,1.77C193.13,20.73,185.43,24.98,185.43,24.98z"/>
			<path class="st3" d="M168.47,12.51c8.97,7.08,17.8-2.29,17.62-2.4C177.03,5.02,168.47,12.51,168.47,12.51z"/>
			<path class="st3" d="M5.94,179.04c-10.76,9.93-6.09,17.11-6.09,17.11C14.55,187.69,5.94,179.04,5.94,179.04z"/>
			<path class="st3" d="M20.35,126.8c0.39,16.9,8.72,16.09,8.72,16.09C31.92,126.53,20.36,126.8,20.35,126.8z"/>
			<path class="st3" d="M196.12,20.48c-10.17,4.58-16.42-0.24-16.42-0.24C185.88,10.07,196.12,20.48,196.12,20.48z"/>
			<path class="st3" d="M182.28,4.94c-11.83,7.56-20.49,2.69-20.49,2.69C167.65-6.16,182.28,4.94,182.28,4.94z"/>
			<path class="st3" d="M192.51,30.86c-0.68,6.67,3.77,10.22,3.77,10.22C200.42,32.13,192.51,30.86,192.51,30.86z"/>
			<path class="st3" d="M201.52,5.61c3.44,2.31,7.57-0.81,7.57-0.81C202.77,1.86,201.52,5.61,201.52,5.61z"/>
			<path class="st3" d="M145.21,47.32c2.6,8.25,8.53,4.53,8.53,4.53C150.54,43.99,145.21,47.32,145.21,47.32z"/>
			<path class="st3" d="M17.12,124.38c6.91-16.65,21.1-7.01,21.1-7.01C20.29,135.05,17.12,124.38,17.12,124.38z"/>
			<path class="st3" d="M198.1,3.5c2.68,1.29,1.29,6.68,1.29,6.68C194.13,6.02,198.1,3.5,198.1,3.5z"/>
			<path class="st3" d="M-1.36,166.14c-8.25,4.44-6.98,20.17-6.98,20.17C9.71,176.66-1.36,166.14-1.36,166.14z"/>
			<path class="st3" d="M106.62,67.62c-14.5-1.9-13.3,6.13-13.3,6.13C107.04,75.65,106.62,67.62,106.62,67.62z"/>
			<path class="st3" d="M80.86,69.97c8.33,5.13,15.68-4.84,15.68-4.84C83.76,60.89,80.86,69.97,80.86,69.97z"/>
			<path class="st3" d="M40.76,130.3c12.87-0.97,15.14,9.37,15.14,9.37C44.12,140.93,40.75,130.3,40.76,130.3z"/>
			<path class="st3" d="M16.9,128.34c-0.56-7.22-10.17-9.48-10.17-9.48c-2.67,16.64,8.46,22.15,8.46,22.15
				C14.95,137.14,17.46,135.56,16.9,128.34z"/>
			<path class="st3" d="M20.77,181.31c-13.56,4.35-16.83-5.44-16.83-5.44C13.76,168.71,20.77,181.31,20.77,181.31z"/>
			<path class="st3" d="M190.53,35.01c1.87-5.44-2.35-7.67-2.35-7.67c-5.33,5.33,0.13,12.25,0.13,12.25S189.62,37.66,190.53,35.01z"
				/>
			<path class="st3" d="M70.09,66.86c0,0,10.55,3.41,17.29-7.18C87.37,59.68,75.3,55.96,70.09,66.86z"/>
			<path class="st3" d="M30.38,129.33c2.67-9.16,16.29-7.27,16.29-7.27C42.41,134.06,30.37,129.32,30.38,129.33z"/>
			<path class="st3" d="M-5.77,108.36c7.41-18.95,21.7-12.42,21.7-12.42C5.38,120.63-5.77,108.35-5.77,108.36z"/>
			<path class="st3" d="M45.83,97.43c0,0,4.46-6.9,1.43-11.65C47.26,85.78,39.69,90.28,45.83,97.43z"/>
			<path class="st3" d="M104.64,74.97c6.41-6.59,11.67-1.6,11.67-1.6C110,82.11,104.64,74.98,104.64,74.97z"/>
			<path class="st3" d="M149.15,54.03c-2.16,3.3,0.61,7.87,0.61,7.87C154.49,56.95,149.15,54.03,149.15,54.03z"/>
			<path class="st3" d="M142.85,51.49c-2.61,2.6-2.76,3.86-2.76,3.86c-4.48-7.49,2.78-11.41,2.78-11.41
				C144.65,45.15,144.82,49.53,142.85,51.49z"/>
			<path class="st3" d="M182.56,36.68c6.35-10.01-1.81-16.03-1.81-16.03C176.04,28.04,182.14,33.23,182.56,36.68z"/>
			<path class="st3" d="M5.19,118.08c11.58,7.31,21.55-8.89,21.55-8.89C2.84,101.64,5.19,118.07,5.19,118.08z"/>
			<path class="st3" d="M105.38,83.29c-1.13-11.18-9.33-9.09-9.33-9.09C97.46,84.08,105.38,83.29,105.38,83.29z"/>
			<path class="st3" d="M58.16,60.99c7.28-12.6,23.84-9.34,23.84-9.34C70.07,66.87,58.16,60.99,58.16,60.99z"/>
			<path class="st3" d="M38.81,67.66c0,0,5.76,8.93-7.54,15.18c0,0,0.74-0.92-0.44-4.38C29.64,75.01,32.7,69.47,38.81,67.66z"/>
			<path class="st3" d="M33.08,130.04c8.62,2.29,9.13,12.62,9.13,12.62C28.25,140.33,33.08,130.04,33.08,130.04z"/>
			<path class="st3" d="M66.26,81.12C55.87,69.07,65,63.71,65,63.71C75.89,71.77,66.25,81.12,66.26,81.12z"/>
			<path class="st3" d="M213.3,9.33c-2.69-3.83-5.84-1.18-5.84-1.18C208.6,11.64,213.3,9.33,213.3,9.33z"/>
			<path class="st3" d="M203.94,1.73c0,0-7.1-3.88-7.63,1.12C196.32,2.85,201.65,4.89,203.94,1.73z"/>
			<path class="st3" d="M203.69,6.45c0,0-3.32,3.59,3.15,5.91C206.84,12.36,207.5,7.75,203.69,6.45z"/>
			<path class="st3" d="M197.8-2.55c-5.02-4-8.15,0.71-8.15,0.71C192.5,2.29,197.8-2.55,197.8-2.55z"/>
			<path class="st3" d="M0.4,71.56c-4.29,5.6,0.53,12,0.53,12C6.58,73.34,0.39,71.56,0.4,71.56z"/>
			<path class="st3" d="M18.98,78.47c0,0-9.24-5.17-9.89,1.43C9.09,79.9,16.03,82.62,18.98,78.47z"/>
			<path class="st3" d="M14.43,72.78C7.5,67.67,2.9,74.03,2.9,74.03C6.77,79.4,14.43,72.78,14.43,72.78z"/>
			<path class="st3" d="M185.83-5.01c0,0-5.84,3.3,1.63,9.04C187.46,4.03,190.25-1.72,185.83-5.01z"/>
			<path class="st3" d="M6.88,77.26c0,0-6.1,3.81,1.57,10.22C8.45,87.48,11.43,80.92,6.88,77.26z"/>
			<path class="st3" d="M12.38,81.72c0,0-0.74,5.99,7.13,7.18C19.5,88.9,16.96,82.33,12.38,81.72z"/>
			<path class="st3" d="M131.87,31.98c0,0-12.5-0.03-3.23,15.3C128.64,47.28,137.44,40.88,131.87,31.98z"/>
			<path class="st3" d="M165.79,8.34c0,0-13.52,3.49-0.65,18.49C165.14,26.83,173.46,17,165.79,8.34z"/>
			<path class="st3" d="M193.04,0.07c0,0-6.09,0.68,0.41,6.83C193.45,6.9,196.9,3.63,193.04,0.07z"/>
			<path class="st3" d="M-2.85,67.51c0,0,2.91,7.2,11.73-1.23C8.88,66.28,2.23,62.51-2.85,67.51z"/>
			<path class="st3" d="M73.56,67.82c12.02,3.63,6.42,13.42,6.42,13.42C66.07,73.28,73.56,67.82,73.56,67.82z"/>
			<path class="st3" d="M50.71,89.86c0,0-4.37,7.09,7.34,8.72C58.05,98.57,54.71,90.17,50.71,89.86z"/>
			<path class="st3" d="M92.42,83.86c1.95-11.71-8.72-12.43-8.72-12.43C79.29,77.07,92.42,83.86,92.42,83.86z"/>
			<path class="st3" d="M50.82,56.6c-5.6,22.97,7.51,22.46,7.51,22.46C63.8,57.33,50.82,56.6,50.82,56.6z"/>
			<path class="st3" d="M47,53.09c13.47,8.29,25.35-7.83,25.35-7.83C51.69,38.42,47,53.09,47,53.09z"/>
			<path class="st3" d="M38.76,76.2c18.53-15.8,4.41-27.18,4.41-27.18C29.33,53.29,38.76,76.2,38.76,76.2z"/>
			<path class="st3" d="M44.7,82.14c0,0,2.91,7.02,11.66,6.02C56.36,88.15,54.16,76.61,44.7,82.14z"/>
			<path class="st3" d="M-7.2,145.19c2.32,19.22,21.68,11.57,21.68,11.57C10.69,140.53-7.2,145.19-7.2,145.19z"/>
			<path class="st3" d="M17.43,201.93c2.31-8.16-7.13-16.18-7.13-16.18C4.54,198.72,17.43,201.93,17.43,201.93z"/>
			<path class="st3" d="M173.71,30.82c10.59-13.91-2.02-16.72-2.02-16.72C167.8,18.6,173.71,30.82,173.71,30.82z"/>
			<path class="st3" d="M19.32,168.49c-11.3-11.3-22.53-7.06-22.53-7.06C4.51,178.48,19.32,168.49,19.32,168.49z"/>
			<path class="st3" d="M39.94,72.74c0,0-0.36,11.51,14.47,3.14C54.41,75.88,48.7,69.39,39.94,72.74z"/>
			<path class="st3" d="M42.66,78.71c0,0-10.51,4.04-2.86,13.22C39.81,91.92,48.13,84.5,42.66,78.71z"/>
			<path class="st3" d="M154.1,1.6c0,0-9.4,15.09-2.66,21.97C151.44,23.58,167.67,11.04,154.1,1.6z"/>
			<path class="st3" d="M36.92,43.19c0,0,2.53,15.85-17.75,18.91c0,0,1.44-1.02,1.79-6.66C21.31,49.8,28.18,43.03,36.92,43.19z"/>
			<path class="st3" d="M127.02,26.54c0,0,4.03,13.19,18.2-1.35C145.21,25.19,131.56,21.32,127.02,26.54z"/>
			<path class="st3" d="M36.18,62.75c0,0,5.85,10.15,17.22,6.48C53.4,69.23,47.23,51.92,36.18,62.75z"/>
			<path class="st3" d="M36.08,52.49c0,0-0.49,18.07,19.59,4.94C55.67,57.42,47.93,47.23,36.08,52.49z"/>
			<path class="st3" d="M36.87,57.76c0,0-15.49-1.67-13.78,15.99C23.09,73.75,38.68,69.35,36.87,57.76z"/>
			<path class="st3" d="M145.25,58.49c5.35-4.99,1.29-9.1,1.29-9.1C140.61,54.5,145.25,58.49,145.25,58.49z"/>
			<path class="st3" d="M135.72,49.46c8.53-6.63,1.59-11.95,1.59-11.95C129.51,44.66,135.72,49.46,135.72,49.46z"/>
			<path class="st3" d="M134.49,34.42c4.49,6.34,13.75,3.23,13.75,3.23C142.29,25.04,134.49,34.42,134.49,34.42z"/>
			<path class="st3" d="M140.12,40.67c5.22,7.5,11.02,3.21,11.02,3.21C145.87,35.64,140.12,40.66,140.12,40.67z"/>
			<path class="st3" d="M-1.54,110.8c-20.57,3.16,4.01,28.97,4.01,28.97C5.01,121.69-1.54,110.8-1.54,110.8z"/>
		</g>
		<g style="clip-path:url(#SVGID_00000104708459278727399850000011673598946116482187_);">
			<path class="st3" d="M164.81-14.9c-10.52,13.16,4.64,17.55,4.64,17.55C174.94-8.6,164.81-14.9,164.81-14.9z"/>
			<path class="st3" d="M160.56-13.05C164.63,1.42,172.9,0.8,172.9,0.8C172.62-9.39,160.56-13.05,160.56-13.05z"/>
			<path class="st3" d="M161.05,11.22c-10.61-16,1.81-20.52,1.81-20.52C174.28,4.94,161.05,11.22,161.05,11.22z"/>
			<path class="st3" d="M54.68,26.99c8.38,11.93-0.77,26.23-0.77,26.23C16.54,30.94,54.68,27,54.68,26.99z"/>
			<path class="st3" d="M70.4,13.76C42.86,31.84,57.31,56.09,57.31,56.09C92.71,41.71,70.4,13.76,70.4,13.76z"/>
			<path class="st3" d="M61.34,37.52c-6,14.29,9.55,16.66,9.55,16.66"/>
			<path class="st3" d="M147.47-5.62c14.79,1.38,10.66,14.9,10.66,14.9C139.84-0.53,147.47-5.62,147.47-5.62z"/>
			<path class="st3" d="M130.93,39.89c9.29-10.94-4.15-16.24-4.15-16.24c-12.34,4.32-1.71,26.4-1.71,26.4S126.69,44.88,130.93,39.89
				z"/>
			<path class="st3" d="M145.07,3.68c9.68,6.82,2.27,20.21,2.27,20.21C134.95,14.17,145.07,3.68,145.07,3.68z"/>
			<path class="st3" d="M125.32,23.43c-10.05,6.74-8.24,22.99-8.24,22.99C136.27,38.12,125.33,23.43,125.32,23.43z"/>
			<path class="st3" d="M141.34,31.32c4.31-11.31-6.56-23.53-6.56-23.53C123.92,25.65,141.34,31.32,141.34,31.32z"/>
			<path class="st3" d="M146.48-2.37c-3.81,11.49,7.59,23.22,7.59,23.22C164.13,2.53,146.48-2.37,146.48-2.37z"/>
			<path class="st3" d="M83.9,30.15c3.67-9.52,2.9-12.99,2.9-12.99C109.78,29,97.98,52.32,97.98,52.32
				C91.64,52.33,80.7,38.44,83.9,30.15z"/>
			<path class="st3" d="M65.25,51.87c8.19-0.75,12.57,2.23,12.57,2.23c12.01-23.75-20.04-21.97-20.04-21.97
				C50.78,40.68,57.05,52.63,65.25,51.87z"/>
			<path class="st3" d="M80.64,49.85c8.19-0.75,12.57,2.23,12.57,2.23c12.01-23.75-20.04-21.97-20.04-21.97
				C66.17,38.66,72.45,50.62,80.64,49.85z"/>
			<path class="st3" d="M129.17,8.95c-10.41,18.39,7.92,24.42,7.92,24.42C147.67,13.17,129.17,8.95,129.17,8.95z"/>
			<path class="st3" d="M92.72,34.31c0,0,5.16,13.82-4.06,17.44c-6.64,2.61-9.03,4.14-9.03,4.14
				C74.86,38.04,92.72,34.31,92.72,34.31z"/>
			<path class="st3" d="M102.99,29.78c14.73,10.52,2.69,25.21,2.69,25.21C80.07,39.86,102.99,29.78,102.99,29.78z"/>
			<path class="st3" d="M145,24.19c0.18-17.18-15.18-15.9-15.18-15.9C128.8,26.72,144.99,24.19,145,24.19z"/>
			<path class="st3" d="M134.72,43.61c6.12-16.06-8.73-20.18-8.73-20.18C118.66,40.38,134.72,43.61,134.72,43.61z"/>
			<path class="st3" d="M47.45,47.03c-5.98-14.88-20.44-19.79-20.44-19.79c-4.92,29.88,24.85,26.15,24.85,26.15
				S48.51,49.66,47.45,47.03z"/>
			<path class="st3" d="M3.88,46.55c0,0,10.7,10.15,4,17.45c-4.82,5.26-6.29,7.68-6.29,7.68C-10.53,57.74,3.88,46.55,3.88,46.55z"/>
			<path class="st3" d="M23.98,35.48c-7.21,9.72-0.06,24.43-0.06,24.43C39.21,45.65,23.98,35.48,23.98,35.48z"/>
			<path class="st3" d="M-2.38,51.9C-2.12,41.7-4,38.7-4,38.7c25.61,3.45,22.31,29.38,22.31,29.38C4.83,64.74-2.62,60.79-2.38,51.9z
				"/>
			<path class="st3" d="M114.69,25.39C97.61,37.83,111.8,50.9,111.8,50.9C129.79,36.87,114.69,25.39,114.69,25.39z"/>
			<path class="st3" d="M23.42,38.58C19,48.96,33.49,54.93,33.49,54.93C36.48,34.5,23.42,38.58,23.42,38.58z"/>
			<path class="st3" d="M10.44,36.27c17.4,4.97,10.98,22.85,10.98,22.85C-7.77,53.45,10.44,36.28,10.44,36.27z"/>
			<path class="st3" d="M36.75,59.19c15.04-8.31,6.36-21.05,6.36-21.05C26.56,46.35,36.74,59.19,36.75,59.19z"/>
		</g>
		<path style="clip-path:url(#SVGID_00000104708459278727399850000011673598946116482187_);fill:#968374;" d="M0.02,0v69.48
			c0,0,19.97-18.35,44.43-19.46c24.46-1.11,73.87,10.52,96.05-23.47C155.01,4.34,171.34,0,171.34,0S-2.19,0,0.02,0z"/>
	</g>
</g>
</svg>
