<?xml version="1.0" encoding="utf-8"?>
<!-- Generator: Adobe Illustrator 30.0.0, SVG Export Plug-In . SVG Version: 9.03 Build 0)  -->
<svg version="1.1" id="レイヤー_1" xmlns="http://www.w3.org/2000/svg" xmlns:xlink="http://www.w3.org/1999/xlink" x="0px"
	 y="0px" viewBox="0 0 62.31 60.94" style="enable-background:new 0 0 62.31 60.94;" xml:space="preserve">
<style type="text/css">
	.st0{fill:none;stroke:#F3F2EE;stroke-miterlimit:10;}
	.st1{fill:#F3F2EE;stroke:#F3F2EE;stroke-miterlimit:10;}
</style>
<g>
	<path class="st0" d="M44.3,40.03c2.96,7.66,0.29,23.14-24.93,19.68c-1.68-0.23-2.02-1.3-0.8-2.47c1.8-1.73,3.46-5.17,2.65-12.01
		c-1.24-10.44,9.14-13.84,16.55-11.21"/>
	<path class="st0" d="M61.68,23.57L44.3,40.03c0,0-5.78-3.32-6.53-6.02l15.7-17.72"/>
	<path class="st1" d="M41.61,11.71C41.77-3.62,1.65-6.31,0.8,26.1c-0.05,1.86,0,3.6,0.13,5.22c1.51,18.93,14.33,21.97,19.77,22.4
		c0.66-1.99,0.97-4.73,0.52-8.5c-1.24-10.44,9.14-13.84,16.56-11.21c0.11-0.13,5.16-5.83,9.5-10.72
		C44.24,22.39,41.53,19.24,41.61,11.71z M15.08,36.1c-2.7,2.08-8.61,1.15-8.94-5.59c-0.34-6.75,7.76-4.22,8.94-3.04
		C16.26,28.65,18.11,33.77,15.08,36.1z M14.78,23.49c-2.46,0.4-7.95-2.02-6.25-6.92c1.7-4.89,7.1-4.89,9.46-2.87
		C20.35,15.73,20.01,22.65,14.78,23.49z M29.06,15.24c-4.05,2.05-8.19,0-7.69-5.06c0.51-5.06,4.57-5.74,7.69-4.89
		C32.17,6.13,34.39,12.54,29.06,15.24z"/>
	<path class="st0" d="M48.14,36.19c0,0-5.78-3.32-6.53-6.02"/>
</g>
</svg>
