<?xml version="1.0" encoding="utf-8"?>
<!-- Generator: Adobe Illustrator 30.0.0, SVG Export Plug-In . SVG Version: 9.03 Build 0)  -->
<svg version="1.1" id="レイヤー_1" xmlns="http://www.w3.org/2000/svg" xmlns:xlink="http://www.w3.org/1999/xlink" x="0px"
	 y="0px" viewBox="0 0 62.31 60.94" style="enable-background:new 0 0 62.31 60.94;" xml:space="preserve">
<style type="text/css">
	.st0{fill:#F3F2EE;}
	.st1{fill:none;stroke:#F3F2EE;stroke-width:0.9938;stroke-miterlimit:10;}
</style>
<g>
	<g>
		<path class="st0" d="M14.22,16.5h10.21c0,0-1.43-6.06,6.67-6.32c8.2-0.26,8.58,5.96,4.89,8.82s-10.16,4.65-9.45,17.04h8.58
			c0,0-1.49-7.43,6.94-11.32c9.63-4.45,8.7-24.33-10.01-24.5S14.22,16.5,14.22,16.5z"/>
	</g>
	<g>
		<g>
			<path class="st1" d="M39.09,41.2l-2.9,2.39c-2.94,2.42-7.17,2.42-10.11,0l-2.9-2.39c-4.23,2.12-7.06,5.87-7.06,10.15v8.87h30.03
				v-8.87C46.15,47.06,43.32,43.32,39.09,41.2z"/>
		</g>
		<circle class="st0" cx="31.14" cy="50.05" r="0.56"/>
		<circle class="st0" cx="31.14" cy="52.78" r="0.56"/>
		<path class="st1" d="M39.09,41.63c2.78,2.7-1.43,11.59-7.96,4.36c-6.53,7.23-10.74-1.66-7.96-4.36"/>
	</g>
</g>
</svg>
