<?xml version="1.0" encoding="utf-8"?>
<!-- Generator: Adobe Illustrator 30.0.0, SVG Export Plug-In . SVG Version: 9.03 Build 0)  -->
<svg version="1.1" id="レイヤー_1" xmlns="http://www.w3.org/2000/svg" xmlns:xlink="http://www.w3.org/1999/xlink" x="0px"
	 y="0px" viewBox="0 0 62.31 60.94" style="enable-background:new 0 0 62.31 60.94;" xml:space="preserve">
<style type="text/css">
	.st0{fill:#F3F2EE;}
	.st1{fill:none;stroke:#F3F2EE;stroke-miterlimit:10;}
</style>
<g>
	<path class="st0" d="M16.04,15.81c-4.61,0-8.34,3.74-8.34,8.34v18.34h16.69V24.15C24.39,19.54,20.65,15.81,16.04,15.81z
		 M19.41,39.81h-6.73c-0.55,0-1-0.45-1-1s0.45-1,1-1h6.73c0.55,0,1,0.45,1,1C20.41,39.35,19.96,39.81,19.41,39.81z"/>
	<path class="st0" d="M45.88,15.03H19.99v0.26c3.8,0.95,6.61,4.38,6.61,8.47v18.73h28.01V23.76C54.61,18.94,50.7,15.03,45.88,15.03z
		"/>
	<rect x="30.39" y="41.96" class="st1" width="5.3" height="18.24"/>
	<line class="st1" x1="30.11" y1="15.03" x2="30.11" y2="0.22"/>
	<rect x="30.11" y="2.02" class="st1" width="9.89" height="5.32"/>
	<line class="st1" x1="24.08" y1="60.22" x2="42.01" y2="60.22"/>
</g>
</svg>
