<?xml version="1.0" encoding="utf-8"?>
<!-- Generator: Adobe Illustrator 30.0.0, SVG Export Plug-In . SVG Version: 9.03 Build 0)  -->
<svg version="1.1" id="レイヤー_1" xmlns="http://www.w3.org/2000/svg" xmlns:xlink="http://www.w3.org/1999/xlink" x="0px"
	 y="0px" viewBox="0 0 159.77 75.57" style="enable-background:new 0 0 159.77 75.57;" xml:space="preserve">
<style type="text/css">
	.st0{fill:#978375;}
	.st1{fill:#EFEEE7;}
</style>
<path class="st0" d="M159.59,41.26c-2.77-2.96-7.21-1.15-11.66-3.47c-8.31-4.34-18.08-11.9-27.17-13.04
	c-16.84-2.1-18.77-11.75-33.51-10.35c-8.46,0.81-10.97,2.25-13.29,3.86c-4.14-0.94-9.55-1.67-14-1.76
	c-12.34-0.26-8.76-4.65-20.82-11.57C33.68,1.8,19.26-1.19,15.13,0.48C5.15,4.5,0.68-0.55,0,3.34c0,0,3.58,3.09,12.54,9.79
	c5.47,4.09,16.15,7.69,19.47,6.82c6.9-1.81,12.21,3.55,17.75,1.81c6.72-2.11,14.96-2.04,21.15-1.53c-1.07,0.58-2.38,1.15-4.19,1.71
	c-9.12,2.81-24.55,10.94-40.79,32.45C15.42,68.34,4.87,73.71,12.63,74.89c8.74,1.33,22-1.59,31.49-1.28
	c31.9,1.04,48.92,6.77,70.9-7.97c13.95-9.35,9.08-9.67,24.61-21.77c5.78-4.5,19.03,0.53,19.03,0.53
	C160.37,43.98,159.59,41.26,159.59,41.26z"/>
<g>
	<g>
		<path class="st1" d="M53.18,51.27c0-0.73,0.31-1.17,0.77-1.17c1.08,0,0.77,4.71,5.02,4.71c2.28,0,4.11-1.75,4.11-3.87
			c0-1.61-1.66-3.07-4.44-3.93c-2.72-0.84-5.3-2.12-5.3-4.38c0-2.43,2.23-4.2,5.41-4.2c2.67,0,5.24,1.79,5.24,3.05
			c0,0.53-0.27,0.91-0.62,0.91c-0.75,0-1.79-3.36-4.62-3.36c-2.47,0-4,1.63-4,3.16c0,1.44,1.37,2.52,4.33,3.45
			c3.69,1.13,5.44,2.83,5.44,5.3c0,2.45-2.28,4.53-5.7,4.53C55.23,55.46,53.18,52.81,53.18,51.27z"/>
		<path class="st1" d="M68.82,49.19c0-3.62,2.52-6.34,5.83-6.34c2.14,0,4.31,1.61,4.33,3.76c0.02,0.73-0.31,1.17-1.04,1.33
			c-1.94,0.4-5.17,0.97-7.14,1.37c-0.33,0.07-0.51-0.4-0.04-0.51c1.88-0.49,4.93-1.24,6.32-1.61c0.51-0.13,0.68-0.4,0.55-0.88
			c-0.29-1.17-1.24-2.74-3-2.74c-2.25,0-4.29,2.52-4.29,5.35c0,3.23,1.75,5.85,4.57,5.85c1.33,0,2.61-0.71,3.38-1.61
			c0.2-0.24,0.51-0.4,0.75-0.13c0.24,0.29,0.13,0.62-0.11,0.84c-1.02,1.02-2.5,1.66-4.11,1.66C71.4,55.51,68.82,52.79,68.82,49.19z"
			/>
		<path class="st1" d="M95.68,55.18c-0.68-0.04-1.68-0.02-2.08,0c-0.44,0.04-0.53-0.24-0.53-0.53c0.02-1.02,0.02-6.39,0.02-7.11
			c-0.04-2.43-1.37-3.89-3.49-3.89c-0.82,0-2.14,0.55-3.05,1.55c-0.04,2.61-0.07,6.36,0.02,8.75c0.02,0.4,0.44,0.6,1.37,0.66
			c0.42,0.04,0.42,0.6-0.02,0.57c-1.35-0.04-3-0.02-4.15,0c-0.49,0.02-0.51-0.55-0.02-0.57c1.04-0.07,1.39-0.24,1.39-0.66
			c0.04-1.48,0.07-7.36-0.07-9.61c-0.02-0.42-0.64-0.35-1.9-0.29c-0.46,0.02-0.53-0.57-0.04-0.62c1.06-0.11,2.14-0.38,3.16-0.66
			c0.35-0.09,0.49,0.11,0.4,0.53c-0.04,0.22-0.11,0.49-0.11,0.73v0.2c0.91-0.75,2.21-1.19,3.27-1.19c3,0,4.68,1.5,4.68,4.24
			c0,1.26-0.04,4.42,0.04,6.81c0.02,0.33,0.31,0.49,1.15,0.55C96.21,54.65,96.21,55.22,95.68,55.18z"/>
		<path class="st1" d="M111.21,55.18c-0.73-0.07-1.61-0.02-2.08,0c-0.38,0.02-0.55-0.18-0.55-0.57c-0.91,0.46-1.92,0.75-3.25,0.71
			c-3.78-0.16-5.97-2.52-5.79-6.41c0.13-3.36,2.87-5.92,6.08-5.79c1.15,0.04,2.21,0.31,2.72,0.71c0.33,0.29,0.15,0.49-0.29,0.33
			c-0.69-0.22-1.68-0.42-2.52-0.42c-2.08,0.02-4.38,1.9-4.51,4.93c-0.13,3.29,1.83,5.83,4.6,5.94c1.04,0.04,2.08-0.35,2.67-0.75
			c0.13-0.09,0.29-0.24,0.29-0.29c0.02-3.34,0-12.37-0.04-14.14c0-0.4-0.66-0.4-1.94-0.31c-0.46,0.02-0.53-0.6-0.04-0.64
			c1.08-0.11,2.17-0.38,3.23-0.68c0.33-0.09,0.46,0.16,0.38,0.55c-0.04,0.22-0.11,0.49-0.11,0.73c-0.04,2.39-0.11,12.26,0,14.94
			c0.02,0.33,0.35,0.51,1.21,0.57C111.78,54.62,111.76,55.22,111.21,55.18z"/>
	</g>
</g>
</svg>
