<?xml version="1.0" encoding="utf-8"?>
<!-- Generator: Adobe Illustrator 30.0.0, SVG Export Plug-In . SVG Version: 9.03 Build 0)  -->
<svg version="1.1" id="レイヤー_1" xmlns="http://www.w3.org/2000/svg" xmlns:xlink="http://www.w3.org/1999/xlink" x="0px"
	 y="0px" viewBox="0 0 143.55 75.18" style="enable-background:new 0 0 143.55 75.18;" xml:space="preserve">
<style type="text/css">
	.st0{fill:#968375;}
	.st1{fill:#EFEEE7;}
</style>
<g>
	<path class="st0" d="M1.01,3.03C6.5,1.99,6.17,4.75,11.59,4.09c5.17,1.65,0.75-2.88,6.03-1.77c10.02,2.1,37.45,0.34,45.32,2.76
		c21.47,6.61-1.94,2.87,26.97,12.44c18.89,14.26,11.08,22.52,15.91,30.83c4.83,8.3,8.04,14.09,12.88,19.16
		c2.68,2.81,0.1-5-1.76-5.72c-6.41-2.48-3-1.85-6.99-7.84c-4.46-6.69-5.53-7.45-6.68-20.56c-0.75-8.57,7.9-12.2,8.69-15.91
		s9.25-5.94,15.69-12.08c1.34-1.28,7.21-1.52,8.84-5.02c1.54-3.3,7.54,20.01,7.05,22.98c-0.72,4.33-2.94,11.88-3.08,16.84
		c-0.22,7.43-11.11,11.06-12,14.53c-1.04,4.05-4.26,9.02-5.67,9.36c-2.97,0.72-0.01,2.7-0.41,5.12c4.71-0.25,12.55-1.54,16.76,0.65
		c0,0,1.57,0.17-0.69,4.18c-0.92,1.62-1.38,1.58-4.59-0.45c-5.76-3.64-9.81,1.41-12.72-0.35s-6.78-2.84-9.36-2.33
		c-10.5,2.08,2.17-7.81-50.36,3.31c-14.89,3.05-36.15-14.17-36.75-15.76s0.99-5.37-4.09-4.96c-4.72-2.33-2.3-0.2-6.8-6.27
		s-2.13-10.59-7.5-17.94C-1.59,18.53-0.36,3.89,1.01,3.03z"/>
	<g>
		<path class="st1" d="M49.12,43.45c-1.37-0.02-1.19,0.95-1.99,0.49c-3.47-2.01-4.84-4.88-5.72-8h-0.07c-1.17,0-2.32-0.27-3.25-0.73
			c0,3.12,0.02,6.23,0.04,7.09c0.02,0.53,0.35,0.69,2.01,0.84c0.46,0.04,0.46,0.51-0.02,0.51c-1.52-0.04-3.78-0.04-5.21,0
			c-0.55,0-0.55-0.49-0.02-0.53c1.37-0.07,1.77-0.22,1.77-0.68c0.07-2.56,0.07-11.33,0-14.05c-0.02-0.42-0.53-0.64-1.7-0.71
			c-0.53-0.02-0.51-0.6,0.02-0.57c1.68,0.07,4.44,0,6.3,0c3.69,0,5.81,1.97,5.81,4.42c0,2.25-2.28,4.18-5.17,4.4
			c1.26,2.81,2.98,5.3,7.29,7.16C49.47,43.18,49.43,43.45,49.12,43.45z M45.54,31.49c0-2.06-1.92-3.73-4.24-3.76
			c-0.75,0-1.7-0.02-2.17,0c-0.91,0.04-1.02,0.13-1.02,0.66c-0.02,1.06-0.02,3.25-0.02,5.66c0.8,0.77,1.94,1.24,3.2,1.24
			C43.55,35.29,45.54,33.73,45.54,31.49z"/>
		<path class="st1" d="M52.25,37.66c0-3.62,2.52-6.34,5.83-6.34c2.14,0,4.31,1.61,4.33,3.76c0.02,0.73-0.31,1.17-1.04,1.33
			c-1.94,0.4-5.17,0.97-7.14,1.37c-0.33,0.07-0.51-0.4-0.04-0.51c1.88-0.49,4.93-1.24,6.32-1.61c0.51-0.13,0.69-0.4,0.55-0.88
			c-0.29-1.17-1.24-2.74-3-2.74c-2.25,0-4.29,2.52-4.29,5.35c0,3.23,1.75,5.85,4.57,5.85c1.33,0,2.61-0.71,3.38-1.61
			c0.2-0.24,0.51-0.4,0.75-0.13c0.24,0.29,0.13,0.62-0.11,0.84c-1.02,1.02-2.5,1.66-4.11,1.66C54.84,43.98,52.25,41.26,52.25,37.66z
			"/>
		<path class="st1" d="M72.8,32.2c-1.52,0.07-2.39,0.29-2.5,0.62v8.29c0,1.61,0.62,2.34,2.17,2.5c0.18,0.02,0.29,0.15,0.29,0.29
			c0,0.16-0.11,0.27-0.29,0.27c-2.34,0-3.62-1.11-3.62-3.18c0.02-1.48,0-5.52,0-8.53c-0.86,0-1.63,0-2.12,0.02
			c-0.49,0.02-0.51-0.55-0.02-0.57c1.46-0.09,1.99-0.22,2.14-0.49c0-1.04-0.02-1.86-0.02-2.25c-0.02-0.6,0.82-0.51,1.08-1.46
			c0.11-0.4,0.44-0.35,0.44,0.09c-0.02,1.06-0.02,2.43-0.02,3.89c0.88,0,1.97,0,2.45-0.02C73.2,31.63,73.2,32.18,72.8,32.2z"/>
		<path class="st1" d="M89.32,43.65c-0.95-0.02-1.75-0.02-2.23,0c-0.44,0.02-0.77-0.18-0.77-0.51V42.7
			c-0.77,0.64-2.19,1.08-3.2,1.08c-3.25,0-4.91-1.46-4.84-4.33c0.04-2.17,0.07-4.49-0.02-6.67c-0.02-0.33-0.4-0.51-1.26-0.55
			c-0.51-0.02-0.51-0.64,0.02-0.6c0.71,0.07,1.72,0.02,2.14,0c0.38-0.02,0.62,0.18,0.6,0.55c-0.04,1.26-0.04,4.66,0,7.03
			c0.04,2.65,1.22,3.96,3.56,3.96c0.73,0,2.06-0.51,3.01-1.35c0.02-2.63,0.02-7.6-0.02-8.9c-0.02-0.4-0.46-0.6-1.41-0.69
			c-0.42-0.04-0.42-0.6,0.02-0.57c1.39,0.04,3.09,0.02,4.29,0c0.49-0.02,0.51,0.55,0.02,0.57c-1.04,0.07-1.44,0.24-1.46,0.69
			c-0.04,1.77-0.04,7.42,0.07,9.72c0.02,0.29,0.91,0.42,1.52,0.44C89.83,43.09,89.81,43.67,89.32,43.65z"/>
		<path class="st1" d="M102.18,32.44c0,0.6-0.62,0.31-1.63,0.31c-0.93,0-2.14,0.22-3.8,1.81c-0.04,2.5-0.07,5.68,0.04,7.87
			c0.02,0.38,0.42,0.57,1.35,0.66c0.42,0.04,0.42,0.57,0,0.55c-1.37-0.04-3-0.04-4.18,0c-0.49,0.02-0.49-0.55-0.02-0.57
			c1.04-0.04,1.37-0.24,1.39-0.66c0.09-1.48,0.09-7.18-0.04-9.43c-0.02-0.4-0.66-0.33-1.92-0.27c-0.44,0.02-0.49-0.6-0.02-0.64
			c1.04-0.09,2.12-0.38,3.16-0.66c0.44-0.11,0.49,0.27,0.4,0.55c-0.07,0.22-0.13,0.49-0.13,0.71c0,0.4-0.02,0.86-0.02,1.35
			c0.86-1.33,1.79-2.14,2.78-2.43C100.79,31.21,102.18,31.65,102.18,32.44z"/>
		<path class="st1" d="M117.78,43.65c-0.68-0.04-1.68-0.02-2.08,0c-0.44,0.04-0.53-0.24-0.53-0.53c0.02-1.02,0.02-6.39,0.02-7.11
			c-0.04-2.43-1.37-3.89-3.49-3.89c-0.82,0-2.14,0.55-3.05,1.55c-0.04,2.61-0.07,6.36,0.02,8.75c0.02,0.4,0.44,0.6,1.37,0.66
			c0.42,0.04,0.42,0.6-0.02,0.57c-1.35-0.04-3-0.02-4.15,0c-0.49,0.02-0.51-0.55-0.02-0.57c1.04-0.07,1.39-0.24,1.39-0.66
			c0.04-1.48,0.07-7.36-0.07-9.61c-0.02-0.42-0.64-0.35-1.9-0.29c-0.46,0.02-0.53-0.57-0.04-0.62c1.06-0.11,2.14-0.38,3.16-0.66
			c0.35-0.09,0.49,0.11,0.4,0.53c-0.04,0.22-0.11,0.49-0.11,0.73v0.2c0.91-0.75,2.21-1.19,3.27-1.19c3,0,4.68,1.5,4.68,4.24
			c0,1.26-0.04,4.42,0.04,6.81c0.02,0.33,0.31,0.49,1.15,0.55C118.31,43.12,118.31,43.69,117.78,43.65z"/>
	</g>
</g>
</svg>
