<?xml version="1.0" encoding="utf-8"?>
<!-- Generator: Adobe Illustrator 30.0.0, SVG Export Plug-In . SVG Version: 9.03 Build 0)  -->
<svg version="1.1" id="レイヤー_1" xmlns="http://www.w3.org/2000/svg" xmlns:xlink="http://www.w3.org/1999/xlink" x="0px"
	 y="0px" viewBox="0 0 178.01 75.1" style="enable-background:new 0 0 178.01 75.1;" xml:space="preserve">
<style type="text/css">
	.st0{fill:#F3F2EE;}
	.st1{fill:#978475;}
	.st2{fill:none;stroke:#978475;stroke-linecap:round;stroke-linejoin:round;stroke-miterlimit:10;}
</style>
<path class="st0" d="M177.42,6.48c-1.53-0.17-9.56,2.25-11.26,1.62s-7.95-2.22-12.25-1.38c-2.73,0.54-19.85-0.79-37.6-3.56
	C103.57,1.18,87.27-0.18,82.1,0.02C53.06,1.14,47.85,22.89,41.94,30.2c-5.92,7.31-5.5,9.81-7.3,11.7
	c-2.61,2.75-8.54,13.83-8.98,15.78c-0.44,1.94-1.17,5.1-4.08,5.95c-2.27-1.94-1.03-3.82-0.8-7.57c0.53-8.58,4.42-13.7,2.53-21.66
	s-1.01-7.84-1.13-11.63c-0.12-3.79-6.21-13.72-10.9-18.27c-1.3-1.26-1.42-3.76-1.42-3.76c-1.65,0.29-1.8,5.21-1.84,8.22
	c-0.05,4.39-2.06,6.83-4.26,11.22c-2.2,4.38-5.61,16.98-2.53,24.2c7.07,16.64,9.83,9.48,15,16.53c2.38,3.24,0.17-0.13,2.62,3.95
	c-2.08,1.85-6.69,6.03-11,7.44c0,0-0.27,2.42,3.23,2.8c1.76,0.19,4.65-4.12,8.01-5.54c6.01-2.56,7.56-0.26,10.58-1.47
	s6.69,0.21,9.03,1.18c9.49,3.92,41.2,2.71,48.42,1.53c7.22-1.18,41-12.47,41.83-13.93s2.9-4.11,7.71-5.56
	c4.82-1.45,12.24-8.37,17.47-13.55c5.23-5.17,2.44-7.92,13.2-14.91C178.08,15.84,178.95,6.65,177.42,6.48z"/>
<g>
	<g>
		<path class="st1" d="M71.38,44.39c-1.24-0.04-3.09-0.07-4.57,0c-0.49,0.02-0.49-0.49-0.02-0.53c1.24-0.11,1.46-0.24,1.48-0.71
			c0.07-2.34,0.07-11.42,0-14.12c-0.38,0.11-0.57,0.44-0.75,0.71c-0.99,1.39-5.46,8.53-6.03,9.32c-0.33,0.46-0.86,0.44-1.19-0.11
			c-1.02-1.68-4.4-7.25-5.88-9.52c-0.13-0.22-0.31-0.46-0.55-0.62c-0.18,0.07-0.24,0.24-0.24,0.51c-0.04,1.9-0.02,11.95,0.02,13.68
			c0.02,0.69,0.24,0.8,1.5,0.86c0.46,0.02,0.46,0.55,0,0.53c-1.48-0.07-2.94-0.04-4.15,0c-0.55,0.02-0.55-0.53-0.02-0.55
			c1.3-0.09,1.59-0.24,1.59-0.77c0.07-2.47,0.07-11.18,0-13.9c-0.02-0.42-0.15-0.68-1.46-0.77c-0.51-0.02-0.51-0.57,0.04-0.55
			c0.86,0.04,1.59,0.02,2.21,0.02c1.02-0.02,2.17,0.51,2.61,1.26c1.17,1.9,3.67,6.01,4.79,7.75c0.35,0.55,0.66,0.6,0.93,0.18
			c1.86-2.87,4.73-7.47,5.52-8.77c0.2-0.31,0.57-0.4,1.41-0.4c0.77,0,1.41,0,2.43-0.04c0.53-0.02,0.55,0.53,0.02,0.55
			c-1.22,0.07-1.3,0.24-1.33,0.82c-0.02,2.85,0,12.15,0.04,13.77c0.02,0.57,0.18,0.77,1.61,0.86
			C71.94,43.86,71.91,44.41,71.38,44.39z"/>
		<path class="st1" d="M75.82,38.34c0-3.65,2.7-6.36,6.3-6.36s6.3,2.72,6.3,6.36c0,3.65-2.7,6.36-6.3,6.36S75.82,41.98,75.82,38.34z
			 M86.82,37.65c-0.44-3.23-2.76-5.35-5.48-4.95c-2.7,0.38-4.38,3.09-3.91,6.34c0.44,3.2,2.76,5.33,5.46,4.93
			C85.59,43.6,87.27,40.9,86.82,37.65z"/>
		<path class="st1" d="M101.16,33.17c0,0.6-0.62,0.31-1.63,0.31c-0.93,0-2.14,0.22-3.8,1.81c-0.04,2.5-0.07,5.68,0.04,7.87
			c0.02,0.38,0.42,0.57,1.35,0.66c0.42,0.04,0.42,0.58,0,0.55c-1.37-0.04-3-0.04-4.18,0c-0.49,0.02-0.49-0.55-0.02-0.57
			c1.04-0.04,1.37-0.24,1.39-0.66c0.09-1.48,0.09-7.18-0.04-9.43c-0.02-0.4-0.66-0.33-1.92-0.26c-0.44,0.02-0.49-0.6-0.02-0.64
			c1.04-0.09,2.12-0.38,3.16-0.66c0.44-0.11,0.49,0.26,0.4,0.55c-0.07,0.22-0.13,0.49-0.13,0.71c0,0.4-0.02,0.86-0.02,1.35
			c0.86-1.33,1.79-2.14,2.78-2.43C99.77,31.93,101.16,32.37,101.16,33.17z"/>
		<path class="st1" d="M104.21,38.38c0-3.62,2.52-6.34,5.83-6.34c2.14,0,4.31,1.61,4.33,3.76c0.02,0.73-0.31,1.17-1.04,1.33
			c-1.94,0.4-5.17,0.97-7.14,1.37c-0.33,0.07-0.51-0.4-0.04-0.51c1.88-0.49,4.93-1.24,6.32-1.61c0.51-0.13,0.68-0.4,0.55-0.88
			c-0.29-1.17-1.24-2.74-3-2.74c-2.25,0-4.29,2.52-4.29,5.35c0,3.23,1.75,5.85,4.57,5.85c1.33,0,2.61-0.71,3.38-1.61
			c0.2-0.24,0.51-0.4,0.75-0.13c0.24,0.29,0.13,0.62-0.11,0.84c-1.02,1.02-2.5,1.66-4.11,1.66
			C106.79,44.7,104.21,41.98,104.21,38.38z"/>
	</g>
</g>
<path class="st2" d="M130.52,42.65l7.19-4.15c1.24-0.71,1.24-1.88,0-2.6l-7.19-4.15"/>
</svg>
