<?xml version="1.0" encoding="utf-8"?>
<!-- Generator: Adobe Illustrator 30.0.0, SVG Export Plug-In . SVG Version: 9.03 Build 0)  -->
<svg version="1.1" id="レイヤー_1" xmlns="http://www.w3.org/2000/svg" xmlns:xlink="http://www.w3.org/1999/xlink" x="0px"
	 y="0px" viewBox="0 0 31.6 52.46" style="enable-background:new 0 0 31.6 52.46;" xml:space="preserve">
<style type="text/css">
	.st0{fill:none;stroke:#978474;stroke-miterlimit:10;}
</style>
<g>
	<path class="st0" d="M0.94,51.62c0,0-0.72-1,1.43-7.67s0.6-6.46,2.92-11.09s8.93-9.62,12.71-7.42c0.97,0.56,0.25,1.44,0.76,3.23
		c0.73,2.57-2.52,8.63-7.25,8.67c-1.16,0.01-2.77,0.51-3.55,1.67s-1.07,1.37-2.51,2.18s-1.12,2.19-1.89,4.42
		C2.78,47.84,1.31,52.41,0.94,51.62z"/>
	<path class="st0" d="M18.31,23.8c0,0-2.75-2.57,2.54-6.17s5.58,2.7,3.84,3.72c-1.73,1.02-2.72,2.29-4.19,1.9
		S18.99,23.24,18.31,23.8z"/>
	<path class="st0" d="M15.34,22.22c-0.57,0.09-1.28,0.18-2.24-1.38c-0.96-1.56-1.34-0.5-0.59,0.35s0.92,1.71,0.08,2.07
		c-0.83,0.35-3.65-1.08-6.03-5.05S5.51,14.31,4,12.6s-1.94-1.77-0.13-2.44s5.42-0.9,9.21,3.3S15.87,22.14,15.34,22.22z"/>
	<path class="st0" d="M21.38,14.81c-1.62,0.57-4.87,1.76-3.84-4.16s9.9-10.89,12.05-9.75s0.69,2.08,0.82,3.51s1.34,4.38-2.62,7.22
		S22.32,14.49,21.38,14.81z"/>
	<path class="st0" d="M15.14,10.44c0,0,0.81-2.58,0.57-4.07s-2.09-2.85-2.82-2.99c-0.72-0.14-1.86,1.27-1.63,2.79
		C11.5,7.68,12.96,10.3,15.14,10.44z"/>
</g>
<g>
</g>
<g>
</g>
<g>
</g>
<g>
</g>
<g>
</g>
<g>
</g>
</svg>
